<?xml version="1.0" encoding="UTF-8" standalone="no"?>
<svg width="160px" height="83px" viewBox="0 0 160 83" version="1.1" xmlns="http://www.w3.org/2000/svg" xmlns:xlink="http://www.w3.org/1999/xlink">
    <!-- Generator: Sketch 40.3 (33839) - http://www.bohemiancoding.com/sketch -->
    <title>Group</title>
    <desc>Created with Sketch.</desc>
    <defs>
        <polygon id="path-1" points="79.913 0.3 0.06 0.3 0.06 53.347 159.766 53.347 159.766 0.3"></polygon>
    </defs>
    <g id="Page-1" stroke="none" stroke-width="1" fill="none" fill-rule="evenodd">
        <g id="Artboard" transform="translate(-567.000000, -92.000000)">
            <g id="Group" transform="translate(567.000000, 92.000000)">
                <g id="Group-16">
                    <mask id="mask-2" fill="white">
                        <use xlink:href="#path-1"></use>
                    </mask>
                    <g id="Clip-14"></g>
                    <polygon id="Fill-13" fill="#797C7B" mask="url(#mask-2)" points="6.66 53.347 153.016 53.347 153.016 52.186 6.66 52.186"></polygon>
                    <path d="M147.6,37.356 C154.26,37.356 159.766,34.718 159.766,28.042 C159.766,24.245 157.103,21.767 152.84,20.647 C148.49,19.488 142.804,19.687 142.804,16.849 C143.16,14.931 144.758,14.531 147.6,14.531 C151.597,14.531 151.775,16.65 151.951,18.168 L158.7,18.168 C158.168,12.853 153.904,9.216 147.246,9.216 C140.139,9.216 135.877,13.013 135.877,17.969 C135.877,20.807 137.298,23.285 139.784,24.645 C141.563,25.404 143.87,25.964 146.711,26.524 C149.732,26.723 152.484,27.083 152.484,29.201 C152.484,30.521 151.063,32.24 147.954,32.24 C143.338,32.24 142.45,29.762 142.45,28.042 L135.345,28.042 C135.521,33.559 140.139,37.356 147.6,37.356 L147.6,37.356 Z M110.477,23.285 C110.477,27.482 114.207,31.079 118.384,31.079 C122.468,31.079 126.021,27.482 126.021,23.285 C126.021,19.128 122.468,15.49 118.384,15.49 C114.207,15.49 110.477,19.128 110.477,23.285 L110.477,23.285 Z M118.026,37.356 C110.477,37.356 103.907,31.079 103.907,23.285 C103.907,15.49 110.477,9.216 118.026,9.216 C121.047,9.216 123.888,9.975 126.021,11.692 L126.021,9.614 L132.68,9.614 L132.68,36.796 L126.021,36.796 L126.021,35.077 C123.888,36.437 121.047,37.356 118.026,37.356 L118.026,37.356 Z M79.305,23.285 C79.305,27.482 83.037,31.079 87.12,31.079 C91.384,31.079 95.115,27.482 95.115,23.285 C95.115,19.128 91.384,15.49 87.12,15.49 C83.037,15.49 79.305,19.128 79.305,23.285 L79.305,23.285 Z M95.115,0.3 L101.596,0.3 L101.596,36.796 L95.115,36.796 L95.115,35.077 C92.806,36.437 89.963,37.356 86.942,37.356 C79.127,37.356 73,31.079 73,23.285 C73,15.49 79.127,9.216 86.942,9.216 C89.963,9.216 92.628,9.975 95.115,11.692 L95.115,0.3 L95.115,0.3 Z M63.409,7.136 L70.158,7.136 L70.158,0.3 L63.409,0.3 L63.409,7.136 Z M63.409,36.796 L70.158,36.796 L70.158,9.614 L63.409,9.614 L63.409,36.796 Z M37.476,23.285 C37.476,27.482 41.118,31.079 45.556,31.079 C49.643,31.079 53.373,27.482 53.373,23.285 C53.373,19.128 49.643,15.49 45.556,15.49 C41.118,15.49 37.476,19.128 37.476,23.285 L37.476,23.285 Z M45.202,37.356 C37.476,37.356 31.082,31.079 31.082,23.285 C31.082,15.49 37.476,9.216 45.202,9.216 C48.223,9.216 51.064,9.975 53.373,11.692 L53.373,0.3 L60.033,0.3 L60.033,36.796 L53.373,36.796 L53.373,35.077 C51.064,36.437 48.223,37.356 45.202,37.356 L45.202,37.356 Z M6.482,23.285 C6.482,27.482 10.034,31.079 14.12,31.079 C18.561,31.079 22.201,27.482 22.201,23.285 C22.201,19.128 18.561,15.49 14.12,15.49 C10.034,15.49 6.482,19.128 6.482,23.285 L6.482,23.285 Z M13.943,37.356 C6.306,37.356 0,31.079 0,23.285 C0,15.49 6.306,9.216 13.943,9.216 C16.961,9.216 19.98,9.975 22.201,11.692 L22.201,9.614 L28.773,9.614 L28.773,36.796 L22.201,36.796 L22.201,35.077 C19.98,36.437 17.139,37.356 13.943,37.356 L13.943,37.356 Z" id="Fill-15" fill="#797C7B" mask="url(#mask-2)"></path>
                </g>
                <path d="M42.006,80.167 C40.763,81.487 39.253,82.047 37.476,82.047 C35.701,82.047 34.101,81.487 32.858,80.326 C31.26,78.647 31.26,76.93 31.26,73.133 C31.26,69.494 31.26,67.776 32.858,66.098 C34.101,64.937 35.701,64.379 37.476,64.379 C40.763,64.379 43.072,66.456 43.604,69.494 L41.65,69.494 C41.118,67.415 39.607,65.895 37.476,65.895 C36.234,65.895 35.167,66.456 34.457,67.216 C33.391,68.375 33.214,69.494 33.214,73.133 C33.214,76.93 33.391,78.049 34.457,79.207 C35.167,79.967 36.234,80.527 37.476,80.527 C38.719,80.527 39.963,79.967 40.763,79.008 C41.472,78.049 41.65,77.129 41.65,75.769 L41.65,74.45 L37.476,74.45 L37.476,72.731 L43.604,72.731 L43.604,75.611 C43.604,77.688 43.25,79.008 42.006,80.167" id="Fill-17" fill="#797C7B"></path>
                <path d="M59.857,66.097 L55.327,66.097 L55.327,72.531 L59.857,72.531 C61.988,72.531 63.409,71.415 63.409,69.334 C63.409,67.217 61.988,66.097 59.857,66.097 M63.409,82.046 L59.501,74.252 L55.327,74.252 L55.327,82.046 L53.373,82.046 L53.373,64.38 L60.033,64.38 C63.231,64.38 65.363,66.256 65.363,69.334 C65.363,71.975 63.763,73.491 61.456,74.09 L65.718,82.046 L63.409,82.046" id="Fill-18" fill="#797C7B"></path>
                <path d="M83.569,67.217 C82.679,66.456 81.614,65.896 80.55,65.896 C79.307,65.896 78.241,66.456 77.353,67.217 C76.374,68.376 76.198,69.495 76.198,73.132 C76.198,76.929 76.374,78.047 77.353,79.208 C78.241,79.966 79.307,80.526 80.55,80.526 C81.614,80.526 82.679,79.966 83.569,79.208 C84.635,78.047 84.811,76.929 84.811,73.132 C84.811,69.495 84.635,68.376 83.569,67.217 M84.99,80.327 C83.745,81.486 82.148,82.046 80.55,82.046 C78.595,82.046 77.174,81.486 76.02,80.327 C74.421,78.648 74.421,76.929 74.421,73.132 C74.421,69.495 74.421,67.777 76.02,66.097 C77.174,64.936 78.595,64.38 80.55,64.38 C82.148,64.38 83.745,64.936 84.99,66.097 C86.588,67.777 86.588,69.495 86.588,73.132 C86.588,76.929 86.588,78.648 84.99,80.327" id="Fill-19" fill="#797C7B"></path>
                <path d="M102.308,82.046 C98.754,82.046 96.179,79.769 96.179,76.172 L96.179,64.38 L98.044,64.38 L98.044,75.969 C98.044,78.648 99.821,80.526 102.308,80.526 C104.971,80.526 106.571,78.648 106.571,75.969 L106.571,64.38 L108.522,64.38 L108.522,76.172 C108.522,79.769 105.861,82.046 102.308,82.046" id="Fill-20" fill="#797C7B"></path>
                <path d="M125.132,66.097 L120.512,66.097 L120.512,73.132 L125.132,73.132 C127.263,73.132 128.86,71.975 128.86,69.495 C128.86,67.217 127.263,66.097 125.132,66.097 M125.309,74.812 L120.512,74.812 L120.512,82.046 L118.738,82.046 L118.738,64.38 L125.309,64.38 C128.506,64.38 130.817,66.456 130.817,69.495 C130.817,72.73 128.506,74.812 125.309,74.812" id="Fill-21" fill="#797C7B"></path>
                <path d="M157.014,4.019 C155.682,4.019 154.703,5.058 154.703,6.377 C154.703,7.656 155.682,8.695 157.014,8.695 C158.256,8.695 159.325,7.656 159.325,6.377 C159.325,5.058 158.256,4.019 157.014,4.019 M157.014,9.135 C155.503,9.135 154.259,7.895 154.259,6.377 C154.259,4.818 155.503,3.578 157.014,3.578 C158.525,3.578 159.767,4.818 159.767,6.377 C159.767,7.895 158.525,9.135 157.014,9.135" id="Fill-22" fill="#797C7B"></path>
                <path d="M157.102,5.217 L156.482,5.217 L156.482,6.297 L157.102,6.297 C157.456,6.297 157.636,6.058 157.636,5.737 C157.636,5.457 157.456,5.217 157.102,5.217 M157.636,7.856 L157.014,6.616 L156.482,6.616 L156.482,7.856 L156.124,7.856 L156.124,4.858 L157.102,4.858 C157.636,4.858 158.081,5.217 158.081,5.737 C158.081,6.177 157.814,6.457 157.456,6.577 L158.168,7.856" id="Fill-23" fill="#797C7B"></path>
            </g>
        </g>
    </g>
</svg>