<?xml version="1.0" encoding="UTF-8" standalone="no"?>
<svg width="173px" height="46px" viewBox="0 0 173 46" version="1.1" xmlns="http://www.w3.org/2000/svg" xmlns:xlink="http://www.w3.org/1999/xlink">
    <!-- Generator: Sketch 40.3 (33839) - http://www.bohemiancoding.com/sketch -->
    <title>angelpad</title>
    <desc>Created with Sketch.</desc>
    <defs>
        <polygon id="path-1" points="0.0169454977 33.2036915 21.6012308 33.2036915 21.6012308 0.268050156 0.0169454977 0.268050156"></polygon>
        <polygon id="path-3" points="4.09003371 0.27374599 0.24180604 0.27374599 0.24180604 33.6000702 4.09003371 33.6000702 4.09003371 0.27374599"></polygon>
    </defs>
    <g id="Page-1" stroke="none" stroke-width="1" fill="none" fill-rule="evenodd">
        <g id="Artboard" transform="translate(-1335.000000, -370.000000)">
            <g id="angelpad" transform="translate(1335.000000, 370.000000)">
                <path d="M34.041117,15.5818652 C34.3045234,15.4036721 34.5493277,15.2494594 34.7818546,15.0782759 C35.4359062,14.5957156 36.0687514,14.0825341 36.7395449,13.6243232 C38.3270525,12.5393003 40.0868159,12.0117305 42.024788,12.0560021 C43.9698288,12.1006426 45.4341901,12.9458611 46.4349858,14.5864924 C47.171631,15.7943689 47.4368976,17.1417009 47.5674847,18.5229744 C47.7482976,20.4340314 47.7259751,22.3425058 47.6511944,24.2627859 C47.5477665,26.925722 47.6173385,29.5952988 47.6273837,32.2622931 C47.6322202,33.609994 47.5674847,33.6933722 46.2177127,33.6955857 C45.7946998,33.6966925 45.3709428,33.6955857 44.949046,33.6671781 C44.3169449,33.6247512 44.0141019,33.3513741 43.9274159,32.7422709 C43.8894675,32.4770103 43.9032331,32.2040021 43.902489,31.9343144 C43.8946761,28.5183924 43.8995127,25.1024704 43.8745858,21.6865484 C43.867889,20.7601654 43.8128267,19.8293552 43.7015858,18.9099819 C43.6379665,18.3846257 43.4746396,17.8518909 43.2547622,17.367486 C42.587317,15.8950867 41.2074095,15.2383915 39.6050202,15.5774381 C38.6205944,15.7858835 37.6982998,16.1485416 36.8641794,16.7115286 C36.3146718,17.0819342 35.7993923,17.5073104 35.2286783,17.8404541 C34.2308589,18.4222566 33.8517471,19.3065816 33.8394697,20.393818 C33.8309127,21.1427457 33.8528632,21.8920423 33.8536073,22.6409701 C33.8562116,24.9482577 33.8472826,27.2559142 33.8588159,29.5632019 C33.8629084,30.3106539 33.9220632,31.0577369 33.9432697,31.8055578 C33.9525708,32.1339054 33.9674525,32.4692627 33.9135062,32.7906007 C33.8026374,33.4495095 33.5529966,33.6631199 32.8784826,33.6815664 C32.2143858,33.699644 31.5484288,33.6915275 30.8847041,33.6657024 C30.2250718,33.6402463 30.1249923,33.5280916 30.105274,32.8422509 C30.0918804,32.3633799 30.1130869,31.883402 30.1127148,31.4041621 C30.1086224,25.7407191 30.1019256,20.0769072 30.0996933,14.4134642 C30.0989492,12.830386 30.2332568,12.704212 31.7939772,12.7470078 C31.9751622,12.7521729 32.1567191,12.7573379 32.337532,12.7687747 C33.1768611,12.8230074 33.435803,13.0532197 33.5939213,13.8903216 C33.6876761,14.3880081 33.7743622,14.8875392 33.8673729,15.3855945 C33.8718374,15.4106818 33.9053213,15.430604 34.041117,15.5818652" id="Fill-1" fill="#797C7B"></path>
                <g id="Group-8" transform="translate(52.086022, 11.900941)">
                    <mask id="mask-2" fill="white">
                        <use xlink:href="#path-1"></use>
                    </mask>
                    <g id="Clip-7"></g>
                    <path d="M12.0918071,12.0354896 C9.70329097,13.5108403 6.62203075,12.5221082 5.61453828,10.0890154 C5.07954043,8.79628506 4.93035118,7.47957423 5.3552243,6.14109653 C5.93337914,4.31858279 7.2314372,3.28152083 9.13146086,3.14390998 C10.9083383,3.01552237 12.3875813,3.66963509 13.3578695,5.2291018 C13.8802178,6.06878627 14.1213017,7.00808181 14.1250222,8.5586942 C14.089306,9.70385263 13.5628652,11.1268153 12.0918071,12.0354896 M6.06359419,23.049892 C6.78349742,22.491701 7.58487806,22.2891585 8.51945011,22.4256626 C9.52954688,22.5728656 10.5645705,22.5470405 11.5787598,22.6743213 C12.4095318,22.7787285 13.2269103,22.991601 14.0472652,23.170532 C14.2202652,23.2085318 14.3839641,23.3011332 14.5435705,23.3837735 C16.3420265,24.312739 16.7758286,26.1289809 15.5953361,27.7559618 C15.0287146,28.5369864 14.2500286,29.034304 13.3738673,29.3951174 C12.0758092,29.9293279 10.7014824,30.0909192 9.01091892,30.2137729 C8.35314688,30.0979289 7.39476409,29.9798713 6.46428452,29.7503969 C5.66774043,29.5537573 4.96048667,29.1398179 4.40614258,28.5085788 C3.77850602,27.7935927 3.57016194,26.9668208 3.89495548,26.0854472 C4.33619849,24.8890075 5.0386157,23.844567 6.06359419,23.049892 M21.5963899,2.61412663 C21.5513727,1.53685131 21.0941318,1.19780472 20.031949,1.29999831 C18.5024802,1.44757027 16.9663146,1.54570563 15.4308931,1.61137515 C15.0279705,1.62871485 14.5606845,1.54312312 14.218777,1.34353204 C12.1037125,0.108354713 9.84094688,0.0788403208 7.54767376,0.54885702 C5.3422028,1.00079615 3.58095118,2.16624573 2.53811462,4.19831165 C1.65897699,5.9112532 1.19652753,7.7260194 1.61247161,9.66474606 C1.89931677,11.001748 2.33646731,12.3029638 3.47119849,13.1618326 C4.58286301,14.0037307 4.98801785,14.5475334 3.39827806,15.6631774 C2.74571462,16.1213883 2.20550817,16.6740453 1.81151462,17.3624685 C1.07933398,18.6426553 1.29288667,20.0420064 2.36771892,21.0480783 C2.47747161,21.1506408 2.5950372,21.2450869 2.70888237,21.3435911 C3.5560243,22.0762859 3.56011677,22.3267893 2.73604151,23.0281251 C2.64451892,23.1063382 2.54555548,23.1764349 2.45775333,23.2579684 C1.52057699,24.1293809 0.745611398,25.1144237 0.313669462,26.3300477 C-0.403257419,28.3473565 0.192755484,30.2473455 1.95214688,31.4696103 C2.41794473,31.7927929 2.92466731,32.0871989 3.45408452,32.2864211 C5.42070387,33.0268634 7.44126946,33.3400849 9.56377484,33.1489792 C11.7342738,32.9534463 13.7622802,32.3461877 15.7017404,31.4120572 C17.4555512,30.5675766 18.7063598,29.2139728 19.4798372,27.4493811 C20.5353232,25.0406377 19.8604372,22.5702831 17.7922501,21.1517476 C16.9841727,20.5979838 16.0853168,20.2316364 15.1142845,20.1301807 C13.5866759,19.970434 12.0512544,19.8785705 10.5188092,19.7649401 C9.49606301,19.6893094 8.46959634,19.6535232 7.45057054,19.5446889 C6.9468243,19.4911941 6.43638129,19.3635443 5.96425871,19.1794483 C5.08326086,18.8359746 4.79269527,18.1014351 5.24770387,17.2868379 C5.91440495,16.0929807 6.88804151,15.3023639 8.34868237,15.2942475 C9.01315118,15.2905582 9.67910817,15.3252376 10.3417168,15.291296 C12.1122695,15.2012771 13.7135426,14.638659 15.0573619,13.4713648 C17.4347168,11.4060952 17.9113039,8.72655731 17.5254953,5.78286559 C17.4760135,5.40471244 17.4071856,5.02877286 17.3324049,4.5580183 C17.7185856,4.53293107 18.0091512,4.50157203 18.3000888,4.4975138 C18.9344222,4.48829055 19.5706157,4.5222321 20.2027168,4.48497018 C21.1436135,4.4296307 21.562906,3.97990514 21.597134,3.06311433 C21.6027146,2.91369771 21.6027146,2.76354324 21.5963899,2.61412663" id="Fill-6" fill="#797C7B" mask="url(#mask-2)"></path>
                </g>
                <path d="M168.676005,26.901225 C168.614989,28.1271791 168.020093,29.0421253 166.960142,29.6881215 C165.968648,30.2920598 164.916882,30.7550668 163.764665,30.8683283 C162.090843,31.03324 160.689729,30.4023698 159.571368,29.1745711 C158.721994,28.2419163 158.239454,27.1207383 157.957445,25.9051143 C157.409798,23.5413804 157.523643,21.2289277 158.372273,18.9367662 C159.559835,15.7281828 162.902641,14.8637801 165.086906,15.2611176 C165.874893,15.4042624 166.651346,15.6824355 167.390596,15.9975017 C168.372417,16.4154993 168.832263,17.2020578 168.80808,18.2844982 C168.779805,19.5418113 168.801383,20.7998623 168.801383,22.0579132 C168.821101,22.0582822 168.84082,22.05902 168.860538,22.0597579 C168.800639,23.6734573 168.756366,25.2882635 168.676005,26.901225 M172.590641,31.4442279 C172.585805,24.3467544 172.579108,17.2492808 172.592501,10.1514384 C172.59771,7.36823118 172.651284,4.58502397 172.680303,1.80144784 C172.681792,1.65313801 172.669142,1.50187675 172.641983,1.35578051 C172.502839,0.602056713 172.264731,0.398407405 171.488278,0.37959198 C171.065637,0.368893013 170.642624,0.3773784 170.219983,0.375902681 C169.062557,0.371844452 168.698327,0.741881147 168.711349,1.86711736 C168.746693,4.95063351 168.774596,8.03378073 168.801755,11.1172969 C168.803987,11.3862468 168.805848,11.6596238 168.76083,11.9230398 C168.648473,12.5808418 168.351955,12.7782193 167.687114,12.6712296 C167.508534,12.642822 167.328837,12.6147834 167.153977,12.5697739 C165.551587,12.1558346 163.936177,12.1100873 162.313697,12.421833 C159.014048,13.0556546 156.456996,14.7350235 154.861303,17.7181907 C153.416288,20.4191266 153.13242,23.2912459 153.701273,26.2618695 C154.152934,28.6200695 155.163774,30.7034166 157.013944,32.3001453 C158.819097,33.8581363 160.902538,34.512249 163.305936,34.0599409 C164.793736,33.7799231 166.097746,33.1324511 167.32028,32.2813298 C167.759663,31.9754869 168.208346,31.6825566 168.700559,31.3516265 C169.15222,31.8566915 168.992241,32.3274461 169.034282,32.7576183 C169.100134,33.4327601 169.313686,33.6600209 169.997501,33.6847392 C170.570448,33.7053993 171.144882,33.6924867 171.7182,33.680312 C172.47568,33.6644481 172.72346,33.3796342 172.671746,32.6059882 C172.645703,32.2186118 172.590641,31.8316043 172.590641,31.4442279" id="Fill-9" fill="#797C7B"></path>
                <path d="M16.0790292,22.2227511 C15.3248981,22.2411976 14.5696508,22.228654 13.8147755,22.228654 C12.4259389,22.2293918 11.0374744,22.2290229 9.64863785,22.228654 C9.43731742,22.228654 9.22562495,22.2319744 9.01467656,22.2253336 C7.72331527,22.1847513 7.57152172,21.9774127 7.96551527,20.7791284 C8.86288301,18.0497849 9.76173892,15.3211794 10.662083,12.5929427 C11.0936529,11.286193 11.5278271,9.98018113 11.967954,8.67601391 C12.0594766,8.4044815 12.184111,8.14327913 12.2931196,7.87728066 C12.3593432,7.87063993 12.4251948,7.86436812 12.4910465,7.85772738 C12.6138206,8.10859971 12.763754,8.34987987 12.8549045,8.61182011 C14.2727604,12.6814859 15.6857798,16.7533653 17.0928465,20.8267203 C17.487212,21.9689273 17.3238852,22.1921299 16.0790292,22.2227511 M25.3540615,32.6232541 C25.2510056,32.2484213 25.1140938,31.8824428 24.9831346,31.5157265 C22.1909518,23.7051115 19.3969088,15.8952343 16.6054701,8.08461927 C16.2222658,7.01324682 15.8569196,5.93560257 15.4685067,4.86607477 C15.1879862,4.09316662 15.0224271,3.98359444 14.2176981,3.96883724 C13.8553282,3.96182758 13.4929583,3.96773045 13.1305884,3.96773045 L13.1305884,3.96404116 C12.7682185,3.96404116 12.4039884,3.98507016 12.0434787,3.959614 C11.3034852,3.90722595 10.8443841,4.26582582 10.5593991,4.90296777 C10.4738292,5.09407346 10.393468,5.28776166 10.3194314,5.48366344 C6.97067226,14.3674956 3.62228516,23.2509588 0.277246452,32.1358977 C0.17195828,32.4148087 0.0674141935,32.7010983 0.0205367742,32.9932908 C-0.0587083871,33.4876568 0.084528172,33.6581025 0.589018495,33.6780247 C1.28250667,33.7056944 1.97711097,33.7001605 2.67134323,33.713073 C3.32613892,33.7252477 3.75398839,33.3891526 4.01888301,32.8302238 C4.13347226,32.5882057 4.1978357,32.3225762 4.28414968,32.0672767 C4.88909161,30.2805492 5.48250022,28.4905013 6.10232387,26.7089388 C6.45167226,25.7043426 6.87356903,25.4014512 7.90040774,25.3988687 C11.0415669,25.3903833 14.182354,25.3896454 17.3235131,25.3984997 C18.2807798,25.4014512 18.6505905,25.6541682 18.9478529,26.5222602 C19.5684206,28.3337061 20.1562486,30.1565887 20.7757002,31.9684035 C20.9196809,32.3897214 21.0964013,32.8110394 21.3307884,33.1880858 C21.639212,33.6850343 22.1299368,33.8934797 22.7278099,33.8351888 C23.3561905,33.7739465 23.9849432,33.7167623 24.614812,33.6699082 C25.3856852,33.6127241 25.5620335,33.3799293 25.3540615,32.6232541" id="Fill-12" fill="#797C7B"></path>
                <path d="M124.92397,15.6415212 C124.053389,17.7422081 122.408959,18.8722404 120.20386,19.2264131 C119.316909,19.36882 118.408008,19.4149363 117.507664,19.4285867 C116.317499,19.4470332 115.679817,18.8549007 115.586062,17.6381699 C115.4964,16.4778853 115.479658,15.3116979 115.443942,14.147724 C115.4272,13.6098242 115.440965,13.0711866 115.440965,12.5329178 L115.428316,12.5329178 C115.428316,11.3065948 115.423479,10.0806407 115.429432,8.85431773 C115.435013,7.7065768 115.775432,7.31440431 116.898258,7.24910371 C118.316486,7.16646341 119.723925,7.23803582 121.111645,7.59774247 C123.80412,8.29575786 125.43032,10.3857458 125.350331,13.005886 C125.3228,13.910871 125.27369,14.7977785 124.92397,15.6415212 M129.557765,11.8105531 C129.277617,8.49645572 127.618677,6.14268293 124.492772,4.87245726 C123.028411,4.27737332 121.482944,3.99292837 119.903993,3.97374401 C117.548589,3.94533641 115.192813,3.96230719 112.837036,3.96968578 C111.777086,3.97300615 111.55386,4.19547089 111.52298,5.21814458 C111.51926,5.3380468 111.521864,5.45794902 111.521864,5.57785124 L111.521864,18.7859108 L111.525213,18.7859108 C111.525213,22.7696159 111.523725,26.7529521 111.526329,30.7366572 C111.526701,31.3653138 111.517772,31.9961839 111.560557,32.6226269 C111.610411,33.3553217 111.898372,33.6449317 112.636877,33.6807179 C113.329249,33.7146594 114.024598,33.685145 114.71883,33.674815 C115.150028,33.6685432 115.389251,33.4446027 115.419015,33.0144305 C115.431292,32.8351305 115.439477,32.6554617 115.439105,32.4757928 C115.437245,29.9899431 115.43278,27.5040934 115.430548,25.0178748 C115.430176,24.5390037 115.404877,24.0571813 115.446174,23.5812617 C115.524303,22.6836552 115.998286,22.311405 116.903466,22.3914628 C117.292995,22.4257732 117.682152,22.5069378 118.070937,22.5047242 C120.270456,22.4936563 122.392217,22.0800859 124.378927,21.1319361 C126.777488,19.9871466 128.452426,18.1863997 129.257527,15.6356183 C129.653008,14.3816256 129.666402,13.0959049 129.557765,11.8105531" id="Fill-14" fill="#797C7B"></path>
                <path d="M141.17864,30.0669757 C140.402187,30.5425263 139.562858,30.854641 138.790496,30.9287959 C137.415425,31.0612417 136.301529,30.4421774 135.91944,29.3748632 C135.414578,27.9633373 135.809316,26.5366854 137.012503,25.8180099 C137.781144,25.3590611 138.616008,24.9849662 139.460918,24.6820748 C140.564025,24.2865819 141.702105,23.9840594 142.833116,23.6693622 C143.739785,23.4170141 143.996122,23.617343 144.016585,24.5285999 C144.022537,24.7979187 144.017329,25.0676065 144.017701,25.3369253 C144.29264,27.1815749 142.887062,29.0203215 141.17864,30.0669757 M147.82184,19.0145735 C147.807703,17.9535311 147.597498,16.8674015 147.298376,15.8443589 C146.77826,14.0650099 145.544937,12.9622784 143.688443,12.5671545 C141.614675,12.1259143 139.548348,12.2085546 137.504716,12.6936975 C136.453322,12.943463 135.411602,13.275131 134.40969,13.6783714 C133.237754,14.1498638 132.795395,15.459196 133.351972,16.5183938 C133.634724,17.0562936 133.917477,17.1813608 134.436477,16.8983916 C135.643385,16.2405896 136.968602,15.9546689 138.284146,15.6344377 C139.290894,15.3890994 140.314012,15.3311774 141.332666,15.5241277 C142.297374,15.706748 143.114008,16.1675415 143.487911,17.1138467 C143.748714,17.7746001 143.929526,18.4763048 144.060114,19.175427 C144.271434,20.306935 143.828331,20.9429702 142.722619,21.2359005 C141.820415,21.4749671 140.911886,21.6930047 140.01861,21.9619546 C138.49063,22.4223791 136.910191,22.7776586 135.46406,23.4236548 C132.760795,24.6315314 131.355217,26.4872488 131.677778,29.4947654 C131.911421,31.6725586 132.75075,33.233501 135.348354,33.9359436 C137.480161,34.5122121 139.471335,34.181282 141.274628,32.8815419 C141.909333,32.4240688 142.535109,31.9536832 143.171303,31.4980548 C143.432105,31.3113762 143.710021,31.1490471 144.115548,30.8882136 C144.20149,31.3681914 144.274782,31.7024419 144.318311,32.0407506 C144.35998,32.3668847 144.336914,32.7037177 144.403509,33.023211 C144.512146,33.5459847 144.870423,33.8119831 145.362636,33.7872648 C145.902843,33.759964 146.443049,33.7260225 146.983255,33.6906052 C147.516021,33.6555568 147.744455,33.4581793 147.830025,32.9394639 C147.858673,32.7638533 147.850116,32.580864 147.849744,32.4015641 C147.849,27.938988 147.879879,23.4760429 147.82184,19.0145735" id="Fill-16" fill="#797C7B"></path>
                <path d="M81.001874,19.1287574 C81.5394761,16.7011986 84.3104525,14.6827831 86.9798611,15.1944888 C88.8397041,15.5508751 90.0830718,17.4678349 90.2516073,19.0796897 C90.3044374,19.5873372 90.0347062,19.925277 89.5231471,20.0695286 C89.3520073,20.1178584 89.167474,20.1337224 88.9881492,20.1396253 C87.1532331,20.1993919 85.318317,20.2539936 83.4837729,20.3100709 L83.4837729,20.2960516 C82.9409622,20.2960516 82.3951751,20.3344203 81.8568288,20.2868283 C81.1086503,20.2207899 80.8437557,19.8426367 81.001874,19.1287574 M82.3620632,22.8601144 C86.0158976,22.9534537 89.6656396,22.809571 93.3098009,22.5313979 C94.0613277,22.4742137 94.1852181,22.4081753 94.1725686,21.6931891 C94.1509901,20.4690797 94.1636396,19.2313199 93.9817105,18.0260259 C93.3295191,13.7032742 88.8810009,11.6376356 85.7271923,12.1179824 C81.9669535,12.6905616 79.3407019,14.8152289 77.8369041,18.2665682 C76.9611148,20.2764983 76.6653406,22.3864084 76.8457815,24.5819103 C76.9953428,26.4022104 77.4343535,28.1210549 78.312003,29.7229485 C79.3853471,31.6819663 80.9802955,33.0333566 83.1533987,33.6553724 C85.3421277,34.2814464 87.5624804,34.3500674 89.7508374,33.7140322 C90.8420396,33.3967525 91.8852482,32.8990661 92.9232482,32.4246222 C93.501031,32.1608373 93.9225557,31.6845488 93.787132,30.9931742 C93.6617535,30.3549254 93.4348073,29.7358611 92.9507794,29.2200971 C92.7937772,29.2588347 92.7301578,29.2628929 92.6784439,29.2894559 C92.5720396,29.3447954 92.471588,29.4104649 92.3700202,29.4742898 C90.3126224,30.7670201 88.0840847,31.2278136 85.7082181,30.6740498 C83.0417858,30.0531408 81.0740503,27.6126695 80.7563256,24.6630749 C80.613089,23.3341893 80.6506654,22.8165807 82.3620632,22.8601144" id="Fill-18" fill="#797C7B"></path>
                <g id="Group-5" transform="translate(100.079570, 0.095184)">
                    <mask id="mask-4" fill="white">
                        <use xlink:href="#path-3"></use>
                    </mask>
                    <g id="Clip-4"></g>
                    <path d="M4.08945957,16.8308774 C4.08945957,21.8601299 4.09131978,26.8890134 4.08834344,31.9182659 C4.08759935,33.5161013 3.97598645,33.6219842 2.39964022,33.5972659 C2.09754129,33.5924698 1.79544237,33.5891495 1.49408753,33.5743923 C0.601184301,33.5297517 0.413674624,33.3460247 0.360844516,32.4292338 C0.335173548,31.9813529 0.334057419,31.5316274 0.334057419,31.0826397 C0.340010108,23.449111 0.356007957,15.8159513 0.349311183,8.18242259 C0.347450968,6.26841424 0.264113333,4.35440589 0.242162796,2.44002861 C0.236954194,1.9674294 0.289040215,1.4863448 0.381306882,1.02223098 C0.473573548,0.559961811 0.82589828,0.307244825 1.29430043,0.291749769 C1.92714559,0.270720765 2.56445527,0.258915008 3.19469613,0.309089475 C3.89041656,0.364060031 4.06155634,0.576563656 4.06974129,1.29450125 C4.0827628,2.46179547 4.07420581,3.62945862 4.07457785,4.79675285 L4.07457785,16.8308774 L4.08945957,16.8308774 Z" id="Fill-3" fill="#797C7B" mask="url(#mask-4)"></path>
                </g>
            </g>
        </g>
    </g>
</svg>