<?xml version="1.0" encoding="utf-8"?>
<!-- Generator: Adobe Illustrator 19.2.0, SVG Export Plug-In . SVG Version: 6.00 Build 0)  -->
<svg version="1.1" id="Layer_1" xmlns="http://www.w3.org/2000/svg" xmlns:xlink="http://www.w3.org/1999/xlink" x="0px" y="0px"
	 viewBox="0 0 238 92" style="enable-background:new 0 0 238 92;" xml:space="preserve">
<style type="text/css">
	.st0{fill:none}
	.st1{fill:#797C7B;}
</style>
<g>
	<polygon id="path-1" class="st0" points="172.4,91.4 65,91.4 65,0 172.4,0 	"/>
</g>
<title>bechtel</title>
<desc>Created with Sketch.</desc>
<g id="Page-1">
	<g id="Artboard" transform="translate(-593.000000, -345.000000)">
		<g id="bechtel" transform="translate(593.000000, 344.000000)">
			<path id="Fill-1" class="st1" d="M117.6,9.6c0,0,0.1-0.3,0.4-0.2c0.1,0,0.1,0,0.1,0.1c0.2,0,0.4,0,0.4-0.1c0.1-0.1,0.1-0.1,0-0.2
				c0,0-0.2-0.1-0.4-0.2c0-0.1,0.1-0.1,0.3-0.1c0.1,0,0.1,0,0.1,0.1c0.2,0,0.4,0,0.4-0.1c0.1,0,0.1-0.1,0.1-0.1h0.1
				c0.1-0.1,0.1-0.1,0-0.2c-0.1-0.1-1.7-0.1-1.8,0l-0.1,0.1l0,0h-0.1l-0.4,0.4c-0.1,0.1-0.1,0.3,0,0.4
				C116.8,9.7,117.3,9.7,117.6,9.6"/>
			<path id="Fill-3" class="st1" d="M91.1,37.2C91.2,37.2,91.2,37.3,91.1,37.2c0.2,0,0.7-0.2,0.7-0.4l0,0c0,0,0,0,0-0.1
				c0.2,0,0.1-0.6,0.2-0.6c-0.1-0.1-0.5-0.3-0.5-0.4v0.2c0.1,0,0.1,0.1,0.1,0.1c-0.1-0.1-0.3-0.2-0.3-0.2l-0.4,0.4v0.2
				C91.2,36.7,90.9,37.1,91.1,37.2"/>
			<path id="Fill-5" class="st1" d="M104.4,22.4L104.4,22.4L104.4,22.4C104.4,22.4,104.3,22.4,104.4,22.4L104.4,22.4 M104,23.6
				c0.1,0,0.2,0.1,0.2-0.1l0.3-0.3c0.2-0.2,0.2-0.2,0.2-0.4c0.1-0.1,0.2-0.2,0.3-0.3c0.2-0.1,0.3-0.2,0.1-0.5c0-0.1-0.1-0.1-0.2-0.2
				c0,0,0-0.1-0.1-0.2c0,0-0.2,0-0.3,0c-0.1,0-0.4,0.1-0.4,0.2v0.1H104l0,0l0,0l0,0l0,0c-0.1,0.1-0.3,0.3-0.4,0.4
				c0.1,0.1,0,0.3,0.1,0.4c0.2,0.2,0.1-0.3,0.3-0.1l0.1,0.1v0.1c-0.1,0.1-0.2,0.2-0.3,0.2c0,0.1-0.2,0.4-0.2,0.4
				c0,0.1,0.1,0.1,0.1,0.2C103.8,23.7,103.9,23.7,104,23.6"/>
			<path id="Fill-7" class="st1" d="M105.3,21.3L105.3,21.3c0,0.1-0.2,0.2-0.3,0.2C105,21.6,105.2,21.5,105.3,21.3 M105.4,21.3
				L105.4,21.3C105.4,21.4,105.3,21.4,105.4,21.3C105.3,21.4,105.3,21.4,105.4,21.3L105.4,21.3 M110.1,18.3L110.1,18.3
				c-0.1,0-0.1,0-0.1,0.1C110,18.3,110,18.3,110.1,18.3 M105,21.7c0,0.1,0,0.1,0,0.1c0.1,0,0.3,0.1,0.3,0.1c0-0.1,0.1-0.1,0.2-0.2
				c0.1,0.1,0.2,0,0.3,0c0,0,0,0,0,0.1s0.1,0.2,0.1,0.2c0.1,0.1,0.1,0,0.1,0c0.1-0.1,0.2-0.1,0.3-0.2l0,0c0.1,0,0.2,0,0.3,0h0.1
				c0.1,0,0.1,0,0.1,0c0,0.1-0.2,0.3-0.2,0.4l0.1,0.1v0.1c0.1,0,0.1,0,0.2-0.1l0.1-0.1c0,0,0.1-0.1,0.2-0.1c0,0,0.1,0,0.2-0.1v-0.1
				l0,0c0,0,0.1-0.1,0.2-0.1l0,0c0.1,0.1,0.2,0.2,0.3,0.3c0.1-0.1,0.1-0.3,0.3-0.3c0.2,0,0.1,0,0.2,0.1c0,0,0.1,0,0.1-0.1h0.1
				c0.1,0,0.1,0.1,0.3,0.1c0.2,0,0.1,0,0.1,0l0.1,0.1c0.1-0.1,0.3-0.3,0.4-0.4l0,0c0-0.1,0.1-0.1,0.1-0.1l0,0
				c0.1-0.1,0.2-0.3,0.3-0.3c0-0.1,0,0,0-0.1c0,0-0.1,0-0.1-0.1s0-0.3,0.1-0.4l0,0c0,0,0.2-0.1,0.1-0.1l0,0l0,0l0,0
				c0,0,0.2-0.1,0.1-0.1l-0.1-0.1c0-0.1-0.1-0.1,0-0.2v-0.2v-0.2v0.1l0.1-0.1l0,0l0,0l0.1-0.1c0,0,0.1-0.4,0.2-0.4
				c0-0.1,0-0.3,0.1-0.4l-0.1-0.2c0,0-0.1-0.1-0.1-0.2s0.2-0.2,0-0.3c0,0,0,0-0.1,0s0.1,0.2,0,0.2l0,0l0,0c0,0,0,0-0.1,0l0,0
				c-0.1-0.1-0.1-0.1-0.3,0c0,0,0,0,0,0.1l0,0v-0.1l0,0c0,0,0.1,0,0.1-0.1c0.1-0.1,0-0.1,0.2-0.1l0,0l0,0c0,0,0-0.1-0.1-0.1h0.1
				c0.1,0,0.4,0.4,0.5,0.5c0.1-0.1,0.3-0.3,0.4-0.4l0,0V18c0.1-0.1,0.1-0.1,0.1-0.1c0.1,0,0.4-0.1,0.4-0.1c0.1,0,0.1-0.1,0.2-0.1
				l0.1-0.1l0.2-0.2l0,0l0,0c0.1,0,0.1-0.1,0.2-0.1l0,0c0,0-0.1-0.1-0.1-0.2c0-0.2,0-0.2,0-0.3c0-0.1,0.1-0.1,0-0.1
				s-0.2,0.2-0.3,0.2c-0.1-0.1-0.1-0.1-0.2-0.1l-0.2-0.1c-0.3-0.3-0.3-0.3-0.5-0.7c-0.1,0-0.1,0-0.1,0c-0.1,0-0.1,0-0.1,0.1l0,0
				c0,0,0,0-0.1,0s-0.1,0-0.1,0.1l0,0c-0.1,0-0.2,0.3-0.3,0.3c-0.1,0-0.1,0-0.1,0.1c0,0,0,0.2-0.1,0.3c0,0.1,0,0.3-0.1,0.3l0,0
				c0,0,0,0-0.1,0l-0.1,0.1c0,0.1,0.1,0.1,0.1,0.1v0.1l0,0l-0.2,0.1l0,0h-0.1l-0.1,0.1c0.1,0.1,0.1,0.2,0,0.3l-0.2,0.1
				c0,0.1-0.1,0.2-0.1,0.3c0,0,0,0.1,0,0.2l0.1,0.1c0,0.2-0.2,0.1,0,0.3l0,0c0,0.1-0.1,0.1-0.1,0.1s0,0.1-0.1,0.2v0.1
				c0,0.1-0.1,0.1-0.2,0.2c0,0.1,0.1,0.2,0.1,0.3c-0.1,0.1-0.2,0.2-0.2,0.3c-0.1,0-0.1,0.1-0.1,0.1c-0.1,0.1-0.1,0.2-0.3,0.2
				l-0.2,0.1c-0.1,0.1-0.3,0.1-0.4-0.1c0,0,0-0.2,0.1-0.1c0.1-0.1,0-0.1,0-0.1s0,0-0.1,0l-0.1,0.1c0,0,0,0-0.1,0l0,0
				c-0.1,0-0.3,0.3-0.4,0.3c-0.1,0.1-0.1,0.1-0.1,0.2c0,0,0,0-0.1,0l0,0h-0.1l0,0c-0.2,0,0-0.1-0.2-0.2s-0.3,0-0.5,0
				c-0.1,0-0.3,0.1-0.4,0s0.1-0.1-0.1-0.1c-0.1,0-0.1,0-0.1,0c-0.1,0-0.1,0.1-0.2,0.2l0,0h-0.1c-0.1,0-0.3,0.2-0.3,0.2
				c-0.1,0-0.2,0-0.2,0.1c0,0,0,0.1-0.1,0.1l0,0h-0.1v0.1l0,0l0,0h-0.1v0.1l0,0c-0.2,0.2-0.4,0.4-0.4,0.4
				C105,21.7,105,21.7,105,21.7"/>
			<path id="Fill-9" class="st1" d="M111.7,13.8L111.7,13.8v0.1l0,0C111.7,13.9,111.7,13.8,111.7,13.8 M111.8,15.2l0.4-0.4l0,0
				l0.1-0.1c0,0,0-0.2-0.1-0.2l0,0c0,0,0.1,0.1,0.2,0.1l0.1-0.1c0,0,0-0.2-0.1-0.2l-0.1-0.1c0-0.1,0-0.1-0.1-0.2
				c0-0.1-0.1,0-0.1-0.2s0-0.3,0.1-0.3c0,0,0,0,0-0.1c0,0,0,0,0.1,0.1c0,0,0,0.1,0.1,0.2c0.1,0,0.4-0.3,0.4-0.4l0,0
				c0.1,0-0.1-0.3-0.1-0.3l0,0c0,0,0,0,0,0.1c0,0,0,0.1,0.1,0.2s-0.1-0.3,0-0.4l0,0v-0.1c0-0.1-0.1-0.3-0.2-0.3c0,0,0.1-0.2,0-0.3
				c0-0.1-0.1-0.3-0.1-0.3l-0.1-0.6c0,0,0.1-0.1,0.1-0.2c0-0.1-0.1-0.5-0.1-0.5l-0.1-0.1c0-0.1,0.1-0.2,0-0.3c0-0.1-0.1-0.2-0.1-0.2
				l0,0c-0.1,0-0.1,0.1,0,0.2l-0.1-0.1l0,0c0,0,0,0-0.1,0l0,0l-0.3,0.4c-0.2,0,0.1,0.2,0,0.4c0,0.1-0.1,0.1-0.1,0.1
				c-0.1,0-0.2,0.1-0.2,0.2c0,0,0,0.4,0,0.5s-0.1,0.3-0.1,0.3c0,0.1,0.1,0,0.1,0.1s0,0.1,0,0.2c0,0.1,0,0.2,0,0.3s0,0.3,0,0.4v0.1
				c0,0.1-0.1,0.3-0.1,0.3c-0.1,0.1-0.1,0.3-0.2,0.4l0.1,0.1c0,0,0,0.2,0,0.4c0,0.1-0.1,0.1-0.1,0.2c0,0.1,0,0.3,0,0.4
				c-0.1,0.1,0,0.5,0.1,0.5C111.3,15.4,111.4,14.8,111.8,15.2"/>
			<path id="Fill-11" class="st1" d="M92.7,35.4c0,0.2,0.2,0.4,0.4,0.5c0.1,0.1,0,0.4,0,0.5h0.2c0,0.2,0.3,0.6,0.6,0.9H94v0.2
				c0.3,0.1,0.7,0.1,1.1,0.2c0,0,0.3-0.3,0.4-0.4l0,0l0,0l0,0l0,0v-0.1c0.1,0,0.2,0,0.2,0c-0.1-0.1-0.1-0.3-0.2-0.4
				c-0.2-0.1-0.4,0-0.5-0.2l-0.2-0.5c-0.2-0.2-0.3-0.1-0.4-0.2v-0.4h-0.2v-0.1c0.1-0.4,0.2-0.8,0.2-1l0,0h0.1c0-0.1,0-0.1,0-0.1h0.1
				c0.1-0.4,0.1-0.4,0.2-0.8h0.1v-0.1H95c0-0.2-0.1-0.4,0-0.5c-0.2-0.1-0.8-0.1-0.9-0.2c0,0,0,0.1-0.1,0.2h-0.1l-0.4,0.4
				c-0.1,0.1-0.1,0.4-0.2,0.5c-0.2,0.1-0.4,0.3-0.4,0.4c0,0.1-0.1,0.2-0.2,0.3c-0.1,0-0.2,0.3-0.2,0.4h-0.2c0.1,0.2,0.1,0.2,0.2,0.5
				C92.5,35.4,92.7,35.4,92.7,35.4z"/>
			<path id="Fill-13" class="st1" d="M90.5,38.4c0.2,0,0.4-0.1,0.4-0.1s0.5-0.3,0.4-0.4c0,0,0,0-0.1,0c0.1,0,0.2-0.1,0.2-0.1
				s-0.1-0.1-0.3-0.1c-0.2,0-0.6,0.1-0.6,0.2l0,0c-0.1,0-0.1,0-0.1,0.1l0,0c-0.1,0-0.4,0.4-0.4,0.5S90.3,38.4,90.5,38.4"/>
			<path id="Fill-15" class="st1" d="M91.8,39.5c0.4,0.1,0.7,0.2,1.1,0.4c-0.1,0,0.1-0.2,0.2-0.2s0.2,0,0.2,0
				c0.2-0.2,0.3-0.3,0.4-0.4h0.1c0,0,0-0.1-0.1-0.1l0,0l0,0h0.2c-0.4-0.3,0.7-0.7-0.5-0.7v0.1h-0.1l0,0c-0.2,0-0.4,0-0.6,0v0.1h-0.1
				c0.1,0-0.2,0.3-0.2,0.4c0.1,0,0.1,0,0.2,0.1c-0.2,0-0.3,0-0.4,0C92.1,39.2,91.8,39.5,91.8,39.5"/>
			<path id="Fill-17" class="st1" d="M95.2,27.7C95.2,27.7,95.3,27.7,95.2,27.7c0.1-0.1,0.3-0.3,0.4-0.4c0,0,0.1,0.1,0.1,0v-0.1h0.1
				c0-0.1,0-0.2,0.1-0.3c0.2-0.3,0.3-0.7,0.4-0.8c0.1-0.1,0.2-0.5,0.2-0.6c-0.1-0.2-0.2-0.1-0.2-0.1S96,25.6,96,25.7
				c0,0-0.2,0.1-0.3,0.2l0,0L95.6,26c0,0,0,0.1-0.1,0.1l0,0c0,0-0.2,0.1-0.3,0.2c0,0.1-0.1,0.2-0.2,0.3c-0.1,0.2-0.1,0.3-0.1,0.4
				s0.1,0.2,0.2,0.3C95.2,27.6,95.2,27.7,95.2,27.7"/>
			<path id="Fill-19" class="st1" d="M120.7,76c0,0,0,0.1-0.1,0.2h-0.1c-0.1,0-0.4,0.4-0.4,0.4c-0.1,0.1-0.1,0.4-0.2,0.5
				c-0.2,0.1-0.4,0.3-0.4,0.5h-0.2V78h-0.2v0.3v0.1H119l-0.1,0.2c-0.2,0-0.3,0-0.4,0.1V79c-0.1,0-0.2,0-0.3,0.1
				c-0.1,0-0.2-0.1-0.3,0l0,0l-0.4,0.4c0.1,0.2,0.1,0.4,0.2,0.5c0,0,0,0,0,0.1c-0.1,0-0.3,0.2-0.3,0.2c-0.2,0.4-0.1,0.3-0.2,0.7H117
				c0,0.2,0.1,0.4,0,0.5c0.2,0.1,0.2-0.1,0.2,0.2c0.1,0,0.5,0,0.5,0s0.1-0.2,0.3-0.4c0.1,0,0.1,0,0.1,0s0-0.1,0.1-0.1l0,0
				c0,0,0.2-0.2,0.3-0.4h0.1c0,0,0-0.1,0.1-0.1h0.1c0.1-0.2,0.1-0.4,0.1-0.6l0.3-0.1v-0.1l0.1-0.1c0.1-0.1,0.1-0.5,0.2-0.7
				c0.1-0.1,0.2-0.2,0.3-0.3c0.1-0.1,0.2-0.2,0.2-0.3c0-0.1,0.1-0.1,0.1-0.2l0.1-0.1c0.1,0,0.1-0.1,0.2-0.2s0.3-0.3,0.3-0.5h0.1
				v-0.1h0.1c0.1-0.4,0.1-0.9,0.2-1.3C121.1,76,120.8,76.1,120.7,76"/>
			<path id="Fill-21" class="st1" d="M123.9,75.1c-0.2-0.3-0.5-0.5-0.7-0.5c-0.1-0.1,0.1-0.4,0-0.5c0,0-0.5-0.3-0.5-0.4v-0.2h-0.2
				v-0.4c-0.2-0.2-0.7-0.1-0.7-0.2c0.1,0.1,0.1,0.2,0.2,0.2c-0.1,0-0.2,0-0.3-0.1l-0.4,0.4c0.2,0.2,0.3,0.4,0.5,0.5v0.2h0.2
				c0,0-0.2,1.5-0.2,1.8c0.2,0,0.5-0.2,0.7-0.5c0.4-0.1,0.8,0.2,0.9,0.2L123.9,75.1L123.9,75.1h-0.2
				C123.8,75.1,123.9,75.1,123.9,75.1L123.9,75.1z"/>
			<path id="Fill-23" class="st1" d="M114.1,77.6c-0.2,0-0.5,0.1-0.7,0.2s-0.6-0.1-0.8,0.1V78h-0.1c0,0-0.2,0.2-0.4,0.4
				c-0.2,0.2,0.5,0.9,0.5,0.9s0.6,0.4,1,0.3c0.1,0,0.4-0.4,0.4-0.4l0,0c0,0,0,0,0-0.1l0,0c0.2-0.1,0.1-0.9,0.1-0.9
				S114.4,77.6,114.1,77.6"/>
			<path id="Fill-25" class="st1" d="M106,22.7L106,22.7c0,0,0.1,0,0.2,0C106.1,22.7,106,22.7,106,22.7 M106,22.3h-0.2
				c-0.2,0.2-0.2,0.2-0.4,0.2c0,0,0,0-0.1,0.1l0,0c-0.2,0.2-0.1,0.4-0.3,0.3c0,0,0,0-0.1,0.1c0,0,0.1,0.4,0.2,0.4
				c0.1,0.1,0.1,0,0.1,0c0.1-0.1,0.2-0.1,0.3-0.2l0,0c0.1,0,0.2,0,0.3,0h0.1c0.1,0,0.2-0.1,0.2-0.2c0,0,0.3-0.1,0.2-0.2
				c0.1,0,0.1-0.1,0.1-0.2c0,0,0-0.1,0-0.2C106.4,22.3,106.1,22.3,106,22.3"/>
			<path id="Fill-27" class="st1" d="M78.3,56.6l-0.7,0.3v5.5l0.7-0.3c0.9-0.4,1.3-0.8,1.3-1.8v-2.9C79.6,56.4,79.2,56.2,78.3,56.6"
				/>
			<g id="Group-31" transform="translate(0.000000, 0.385700)">
				<g id="Clip-30">
				</g>
				<path id="Fill-29" class="st1" d="M160.4,57.8c0.1-1,0.1-2,0-3.1c0-0.3,0.1-0.6,0-0.9c0-0.1-0.5-0.4-0.5-0.5
					c-0.2-0.6-0.1-0.8-0.3-1.2c-0.2-0.3-0.9-0.4-1-0.7c-0.2-0.4,0-0.8-0.2-1.2c0-0.1-0.3-0.4-0.3-0.5l-0.3,0.2c0,0,0,0,0,0.1
					l-0.1,0.1c0,0,0,0,0,0.1c0,0,0,0,0-0.1l-0.3,0.2c-0.1,0.3-0.1,0.5-0.2,0.7c-0.5,0.1-1.1-0.1-1.7,0.1v0.1h-0.1v0.1
					c-0.1,0-0.2,0-0.4,0.1v0.1c-0.2,0-0.5-0.1-0.7-0.2l8-3.2C161.8,51.4,161.3,54.6,160.4,57.8L160.4,57.8z M153,53.5
					c0,0.1,0,0.2-0.1,0.2c0,0-0.2,0.3-0.1,0.5c0,0.1-0.1,0.3-0.1,0.3s-0.1,0.1-0.1,0.2s-0.1,0.2-0.1,0.2s-0.1,0.2-0.1,0.3
					s-0.1,0.2-0.1,0.2l-0.2,0.4c0,0-0.1,0.2-0.1,0.4h-0.1c-0.2,0-0.3,0.1-0.3,0.2s-0.1,0.3-0.3,0.4c-0.2,0.1-0.3,0.3-0.3,0.4
					s-0.1,0.3-0.3,0.4c-0.1,0-0.1,0.1-0.1,0.1c-0.1,0-0.2,0-0.3,0c-0.1,0.1-0.3,0.2-0.3,0.3s-0.1,0.2-0.1,0.2s-0.1,0.1-0.1,0.2
					c0,0.1-0.1,0.2-0.1,0.2s-0.1,0.2-0.1,0.3s-0.1,0.2-0.2,0.3c-0.1,0-0.2,0.2-0.2,0.3s-0.1,0.3-0.2,0.3c-0.1,0-0.2,0.2-0.3,0.3
					c0,0.1-0.2,0.2-0.2,0.2s-0.1,1.5,0.2,1.8s0.5,0.6,0.5,0.6s-0.2,0.5-0.2,0.6s-0.1,0.2-0.2,0.2c0,0-0.1,0.8,0,1.1
					c0.1,0.4,0,0.7-0.1,0.8c-0.1,0-0.2,0.2-0.2,0.3c0,0.1-0.1,0.2-0.1,0.2s-0.1,0.4-0.1,0.6s0.1,0.3,0.1,0.3s0.1,0.3,0.1,0.5
					c0,0.1-0.1,0.3-0.2,0.4c-0.1,0-0.2,0.2-0.2,0.3s-0.1,0.2-0.2,0.3c-0.1,0-0.2,0.2-0.2,0.2s-0.3,0.2-0.4,0.2
					c-0.1,0-0.1,0.3-0.1,0.6c0,0.2,0,0.4-0.1,0.5c-0.1,0-0.2,0.7-0.2,0.9c0,0.2,0.1,0.4,0.1,0.4s0.1,0.3,0.1,0.5
					c0,0.1,0.1,0.3,0.1,0.3s0.1,0.3,0.1,0.5c0,0.1-0.1,0.3-0.3,0.4c-0.1,0.1-0.3,0.3-0.3,0.4s-0.1,0.2-0.1,0.2l-0.1,0.1
					c0,0-0.4,0.3-0.4,0.4c-0.1,0.1-0.2,0.2-0.3,0.3c-0.1,0.1-0.2,0.3-0.2,0.4s-0.1,0.2-0.1,0.2s-0.1,0.6-0.1,0.8
					c0,0.2-0.1,0.4-0.1,0.4s-0.1,0.3-0.1,0.5c0,0.1-0.1,0.3-0.3,0.4c-0.1,0.1-0.3,0.2-0.6,0.4c-0.1,0-0.1,0-0.2,0c0,0,0,0-0.2,0.1
					c-0.1,0-0.2,0-0.3,0.1l-0.2,0.2C143,78,143,77.9,143,78c0,0.1,0.6,0.3,0.6,0.3c0,0.1-0.1,0.1-0.1,0.1s-0.1,0.1-0.1,0.2
					s-0.2,0.4-0.4,0.5c-0.1,0.1-0.3,0.2-0.4,0.3h-0.1c-0.1,0-0.2,0.1-0.2,0.1c-0.1,0-0.1,0-0.2,0c-0.2,0-0.3,0.3-0.3,0.2
					c0.1,0,0,0.5,0,0.7s-0.1,0.4-0.2,0.4c-0.1,0-0.2,0.2-0.2,0.3c0,0.1-1.1,0.6-1.1,0.7l-0.1,0.1c0,0-0.2,0.3-0.2,0.5
					s-0.1,0.5-0.2,0.5c-0.1,0-0.7,0.3-1.3,0.5c-0.1,0-0.1,0-0.1,0.1l0,0h-0.1c0,0,0,0-0.1,0s-0.3,0.1-0.3,0.2h-0.1
					c-0.1,0-0.4,0.2-0.3,0.2c0.1,0,0.3,0.1,0.3,0.2s-0.1,0.2-0.2,0.2c-0.1,0-0.2,0.3-0.2,0.5l0,0c-0.6,0-1.2,0.1-1.2,0.2
					s-0.1,0.2-0.2,0.2c-0.1,0-0.3,0.3-0.3,0.4s-0.1,0.2-0.2,0.2c-0.1,0-0.2,0.1-0.3,0.3c0,0.1-0.4,0.4-0.5,0.4s-0.1,0.1-0.2,0.2
					c-0.7,0.4-1.4,0.8-1.8,1c0,0-0.1,0-0.1,0.1C133.1,87,133,87,133,87c-0.1,0-0.3,0.2-0.5,0.5c-3.2,1.1-6.6,1.9-10,2.2
					c-0.1,0-0.3,0-0.3,0c-0.2,0-0.3-0.1-0.3-0.1s-0.9-0.1-1.2-0.1c-0.3,0-0.6,0.1-0.6,0.1s-0.6,0.1-0.8,0.1c-0.2,0-0.4,0.1-0.4,0.1
					s-0.5,0.1-0.6,0.1s-0.1,0-0.2,0H118c-0.9,0-1.9,0-2.8-0.1c-0.2-0.1-0.6-0.1-0.8-0.1c-0.1,0-0.2,0-0.3,0
					c-10.3-0.9-19.6-5.3-26.6-12l14.4-5.8l-0.2,0.2c0.2,0.1,0.4,0.1,0.5,0.1c0.2,0,0.6-0.1,0.6-0.1h0.1c0.1,0,0.3-0.2,0.9,0l0.2,0.1
					c0.2,0,0.4,0,0.4,0s0.8,0,1.8-0.2l0.2,0.2c0.2,0.2-0.8,1.1,0,1.4l0.6,0.2c0.3-0.2,0.5-0.4,0.5-0.4s0.1,0.1,0.2,0.1
					s0.2,0,0.2,0.1c0,0,0,0.1,0.1,0.1c0,0,0.1,0.1,0.1,0.2s0.1,0.3,0.2,0.3c0.1,0.1,0.3,0.2,0.3,0.3c0,0,0.1,0.1,0.1,0.2
					c0.1,0,0.4,0.2,0.4,0.2s0,0.1,0.1,0.1c0,0,0.1,0.1,0.1,0.2s0.1,0.3,0.1,0.3s0.2,0.1,0.4,0.3c0.1,0.2,0.5,0.5,0.5,0.5
					s0.1,0.1,0.3,0.1c0.2,0,0.5,0.2,0.5,0.3c0.1,0.1,0.2,0.3,0.3,0.3c0.1,0,0.2,0,0.2,0.1c0,0,0.2,0.1,0.3,0.1
					c0.2,0,0.7-0.2,0.7-0.2s0.2-0.1,0.4-0.1c0.2,0,0.8-0.1,0.9-0.1l0.1-0.1l0.1-0.1c0-0.1,0-0.1,0-0.2c0.2,0,0.3-0.1,0.3-0.1
					l0.1-0.1l0,0h0.1l0.1-0.1l0.1-0.1c0-0.6,0-1,0-1.1l0.1-0.1l0.1-0.1h0.1c0.1,0,0.2-0.1,0.3-0.2l0,0c0.1,0,0.1-0.1,0.1-0.1
					s0-0.1,0.1-0.1c0,0,0,0,0.1-0.1c0,0,0,0,0.1,0c0,0,0.1-0.1,0.1-0.2c0,0,0-0.1,0.1-0.2c0,0,0,0,0.1-0.1s0.1-0.1,0.2-0.2
					s0.2-0.2,0.2-0.4c0-0.1,0.2-0.7,0.2-0.7s0.1-0.1,0.1-0.2v-0.1l0.1-0.1c0.1-0.1,0.2-0.2,0.2-0.3c0-0.1,0.1-0.2,0.2-0.3l0,0
					c0.1,0,0.1-0.1,0.1-0.1l0,0c0.1-0.1,0.2-0.2,0.2-0.3s0-0.2,0.1-0.2s0.2-0.5,0.2-0.7s-0.1-0.4-0.1-0.4s-0.1-0.1-0.1-0.3
					c0-0.1,0-0.5-0.1-0.5s-0.1-0.1-0.1-0.2s0-0.3-0.1-0.3c0,0-0.1-0.2-0.2-0.4c0-0.2-0.2-0.9-0.2-0.9s-0.1-0.1-0.1-0.2
					s-0.1-0.3-0.1-0.3s-0.1,0-0.1-0.1c0,0-0.1-0.2-0.2-0.3l0,0L152,52c0,0.1,0.1,0.1,0.1,0.1c0.1,0,0.3,0.2,0.5,0.4
					c0.1,0.2,0.4,0.4,0.5,0.4C153.1,52.8,153,53.3,153,53.5L153,53.5z M73.8,46.3c0-2.2,0.2-4.4,0.5-6.6l0,0c0,0,0.1-0.1,0.1-0.2
					c0-0.1,0.1-0.2,0.1-0.2s0.1-0.3,0.1-0.5s0.1-0.3,0.1-0.3s0.2-1.3,0.2-1.8c0-0.1,0-0.1,0-0.2c0.1-0.3,0.1-0.5,0.2-0.8
					c0.1-0.2,0.1-0.4,0.2-0.6c0.1,0,0.1-0.1,0.1-0.2c0-0.1,0.1-0.1,0.1-0.2c0,0,0,0,0.1,0s0.2-0.1,0.2-0.1c0.1,0,0.2-0.1,0.2-0.2
					c0-0.1,0.2-0.3,0.2-0.3c0.1,0,0.1-0.1,0.1-0.2c0-0.1,0.1-0.2,0.1-0.2s0.2-0.5,0.2-0.6s0.1-0.2,0.2-0.2c0,0,0.1-0.2,0.1-0.3
					s0.1-0.2,0.1-0.2s0.1-0.2,0.1-0.3s0.1-0.2,0.1-0.2s0.1-0.1,0.1-0.2s0.1-0.2,0.1-0.2s0.1-0.1,0.1-0.2l0,0
					c0.2-0.1,0.3-0.2,0.5-0.3c0.3-0.2,0.6-0.5,0.6-0.6l0,0c0.1,0,0.1-0.1,0.2-0.1c0.2-0.2,0.4-0.3,0.4-0.4s0.1-0.2,0.1-0.2
					s0.1-0.3,0.2-0.6c0.2-0.1,0.3-0.1,0.5-0.2l0.1,0.1l0.1,0.1c0.1,1.5,0,2.6,0,2.6s-0.1,1.1-0.1,1.5c0,0.4,0.1,0.8,0.1,0.8
					s0.1,0.1,0.1,0.2c0,0.1,0.1,0.2,0.1,0.2s0.1,0.1,0.1,0.2s0.1,0.2,0.1,0.2s0.1,0.1,0.1,0.2c0,0.1,0.1,0.2,0.1,0.2s0.1,0.7,0.1,1
					s-0.1,0.6-0.2,0.6c0,0-0.1,0.3-0.1,0.5c0,0.1-0.1,0.3-0.1,0.3s-0.1,0.3-0.1,0.5c0,0.1-0.1,0.3-0.1,0.3s-0.1,0.3-0.1,0.5
					c0,0.1-0.1,0.3-0.1,0.3S80,39.5,80,39.7c0,0.1-0.1,0.3-0.1,0.3s-0.1,0.6-0.1,0.9c0,0.3,0.1,0.5,0.1,0.5s0.2,0.3,0.3,0.3
					c0.1,0,0.2,0.6,0.2,0.8S80.3,43,80.2,43c0,0-0.2,0.4-0.2,0.5l-0.1,0.1c0,0-0.1,0.1-0.1,0.2c0,0.1-0.1,0.2-0.2,0.3
					c-0.1,0-0.2,0.4-0.2,0.5c0,0.2-0.1,0.3-0.1,0.3s0,0.2,0,0.4l-5.5,2.2C73.8,46.9,73.8,46.6,73.8,46.3L73.8,46.3z M81.2,39.3
					c0,0,0.2-1.2,0.2-1.6c0-0.1,0.1-0.3,0.1-0.5c0.2,0,0.4-0.1,0.4-0.1c0.2,0,0.3,0,0.3,0.1s0.1,0.2,0.1,0.2s0.2,0.4,0.2,0.5
					s0.1,0.2,0.1,0.2s0.1,0.1,0.1,0.2c0,0.1,0.1,0.2,0.1,0.2s0.1,0.6,0.1,1.3l0.2,0.5l0.1,0.3c0,0,0.4-0.1,0.5-0.1
					c0.2,0,0.7-0.2,0.7-0.2h0.1c0,0,0.1-0.2,0.1-0.3c0.1,0,0.3-0.1,0.3-0.1H85c0,0,0,0,0-0.1l0,0h0.1c0,0,0.1-0.2,0.1-0.3
					s0.1-0.2,0.1-0.2s0.1-0.8,0.1-1.1s0-0.6,0.1-0.6v-0.1c0.1-0.2,0.2-0.4,0.2-0.4c0-0.1,0-0.2-0.1-0.2c0,0,0-0.2-0.1-0.5
					c0.1-0.2,0.1-0.4,0.1-0.5c0-0.3-0.1-0.5-0.1-0.5s-0.1-0.1-0.2-0.3C85.2,35,85,34.8,85,34.8s-0.1-0.3-0.1-0.5S85,34,85,34
					s0.1-0.3,0.1-0.5c0-0.1-0.1-0.3-0.1-0.3s-0.1-0.1-0.1-0.2s0.1-0.1,0.1-0.1s-0.1-0.4-0.1-0.6c0-0.2,0.1-0.3,0.2-0.3
					c0,0-0.5-0.6-0.5-0.8c0-0.2,0-0.3,0-0.3s0.1-0.2,0.1-0.3c0,0,0.1,0,0.2,0s0.1-0.5,0.1-0.7v-0.1l0,0l0.1-0.1l0,0
					c0.1,0,0.2-0.3,0.1-0.4c0-0.1,0.1-0.2,0.1-0.2s0.1-0.1,0.1-0.2l0,0c0.1-0.1,0.2-0.1,0.3-0.1c0,0,0,0,0.1-0.1l0,0l0,0l0,0l0,0
					c0.1,0,0.2,0,0.3,0c0.1,0,0.2-0.1,0.2-0.1s0.4,0.2,0.4,0.1c0,0,0.1-0.1,0.2-0.1s0.2-0.1,0.2-0.1s0.2-0.1,0.3-0.1
					c0.1,0,0.6-0.1,0.8,0c0.2,0.1,0,0.3,0,0.4s0.1,0.3,0.2,0.3c-0.1,0.1-0.2,0.1-0.2,0.2c0,0,0,0,0,0.1c0,0-0.1,0-0.1,0.1
					S88,29.6,88,29.7l0,0c0,0.1-0.2,0.2-0.4,0.3c0,0.1-0.1,0-0.1,0.2c-0.1,0.2,0.7,0.2,0.8,0c0.1-0.1,0.2-0.2,0.2-0.4
					c0.1,0,0.2-0.1,0.2-0.1s0,0,0-0.1c0,0,0.1,0,0.1-0.1c0.1-0.2,0.4-0.5,0.3-0.6s-0.3-0.1-0.5,0c0-0.1,0.1-0.2,0.1-0.2
					s0.6-0.1,1.1-0.2c0.4-0.1,0.7-0.2,1-0.2c0.4-0.1,0.7-0.5,0.8-0.5c0.1-0.1,0.2-0.2,0.2-0.3c0.1-0.1,0.2-0.1,0.2-0.1l0.1-0.1
					c0.1,0,0.1,0,0.1,0c0.1,0,0.2,0,0.2-0.1c0,0,0.4-0.5,1-0.9l0.5-0.4c0.3-0.2,0.3-0.3,0.3-0.3l0.1-0.1c0.1-0.1,0.1-0.1,0.1-0.1
					l0,0c0.4-0.4,0.3-0.4,0.3-0.4s0.1-0.1,0.1-0.2s0.1-0.2,0.2-0.3c0.1,0,0.2-0.2,0.2-0.3c0-0.1,0.1-0.2,0.1-0.2s0.2-0.6,0.2-0.7
					s-0.2-0.4-0.3-0.4c-0.1-0.1-0.2-0.9-0.1-1.1s0.2-0.3,0.3-0.3c0,0,0.1-0.1,0.1-0.2s0.1-0.2,0.1-0.2s0.1-0.1,0.1-0.2
					s0.1-0.2,0.1-0.2s0.1-0.1,0.1-0.2s-0.5-0.4-0.6-0.5s-0.2-0.4-0.3-0.5s0.1-0.3,0.1-0.3s0.2-0.4,0.2-0.5s0.1-0.2,0.1-0.2
					s0.1-0.1,0.1-0.2s0-0.1,0.1-0.1s0.2,0,0.3,0c0.1,0,0.2-0.1,0.2-0.1s0.6-0.1,0.8,0c0.2,0.1,0.6-0.3,0.7-0.5c0,0,0-0.1,0.1-0.1
					l0,0c0.1,0,0.1-0.1,0.1-0.1s0.2,0,0.5,0h0.2h0.1c0.1-0.1,0.3-0.1,0.3,0c0,0,0.3,0.2,0.4,0.2s0.1,0.1,0.1,0.1s0.7,0.1,1.1,0.1
					s0.6,0.4,0.5,0.5s0,0.2,0.1,0.3c0.1,0.1,0.2,0.8,0.2,1s0,0.5-0.1,0.5s-0.2,0.2-0.2,0.3v0.1c-0.2,0.2-0.5,0.4-0.5,0.5
					c0,0,0,0,0,0.1c-0.2,0.1-0.3,0.3-0.4,0.4c-0.2,0.2,0,0.4,0.1,0.4s0.2-0.1,0.2-0.1s0.1-0.1,0.2-0.1s0.2-0.1,0.2-0.1
					s0.4-0.1,0.6-0.1s0.3,0,0.3-0.1h0.4c0,0.1,0.4-0.4,0.5-0.5l0,0c0,0,0,0,0.1-0.1s0.4-0.4,0.5-0.5s0.2-0.4,0.2-0.4l0.1-0.1
					c0,0,0.2-0.8,0.1-1.2c0-0.4,0-0.6,0-0.6s0.1-0.2,0.1-0.3c0-0.1,0.1-0.2,0.1-0.2s0.1-0.7,0.1-0.9v-0.1l0,0c0.1,0,0.2-0.1,0.4-0.2
					c0.1-0.1,0.3,0,0.3,0l0.1,0.1c0,0,0.1,0.1,0.1,0.2s0.1,0.2,0.1,0.2l0.1,0.1c0,0-0.4,0.1-0.2,0.1c0.1,0.1,0.3,0,0.4-0.1
					c0-0.1,0.1-0.2,0.2-0.2c0,0,0.1-0.1,0.1-0.2c0.1,0,0.2-0.1,0.2-0.1h0.1c0.1,0,0.6,0,0.6,0c0,0.1,0.2,0.1,0.3,0.1
					c0.1,0,0.3-0.3,0.4-0.4l0,0c0,0,0.1-0.1,0.2-0.1s0.2-0.2,0.3-0.3h0.1v-0.1l0,0c0,0,0.2-0.1,0.3-0.1c0.1,0,0.2-0.1,0.2-0.1
					s0.3-0.2,0.4-0.3c0.1,0,0.2-0.2,0.3-0.3c0.1,0,0.1-0.1,0.2-0.1c0,0,0,0,0.1-0.1l0.1-0.1c0.1-0.1,0.4-0.4,0.4-0.5
					s0.1-0.2,0.1-0.2s0-0.1,0.1-0.2c0.1,0,0.2-0.1,0.3-0.2c0-0.1,0.2-0.2,0.2-0.2s0-0.1,0.1-0.1s0.1-0.1,0.1-0.1
					c0.1,0,0.1-0.1,0.2-0.1l0,0l0,0l0,0l0.1-0.1c0,0,0.1-0.2,0.1-0.3s0.1-0.2,0.1-0.2s-0.1-1.1-0.1-1.4c0-0.3-0.1-0.6-0.2-0.6
					c0,0-0.1-0.2-0.1-0.3s-0.1-0.2-0.1-0.2s-0.1-0.1-0.1-0.2s-0.1-0.2-0.1-0.2S110,9,110,8.9s-0.1-0.3-0.2-0.3s-0.1-0.2-0.2-0.3
					c0.1,0,0.2-0.1,0.2-0.2c0-0.1,0.1-0.2,0.2-0.2s0.2,0,0.2-0.1l0,0h0.1c0.1-0.1,0.2-0.2,0.2-0.3l0,0c0.1,0,0.1-0.1,0.1-0.1
					c0.1,0,0.2-0.1,0.2-0.2c0.1-0.1,0.2-0.2,0.2-0.3c0-0.1-0.2-0.2-0.2-0.5c0.1-0.1,0.3-0.1,0.3-0.1c0.2,0,0.4-0.1,0.4-0.2
					s0.4,0,0.4,0c0,0.1,0,0.2,0,0.3c0,0.1,0.1,0.2,0.1,0.2s0.1,0.4,0.1,0.6s0.1,0.3,0.1,0.3s0.1,0.1,0.1,0.3c0,0.1,0,0.3,0,0.4
					l0.1,0.1c0,0,0.2-0.1,0.3-0.3c0.1-0.1,0.1-0.2,0.2-0.2l0.1-0.1c0.1,0,0.2-0.1,0.3-0.2c0.1-0.1,0.3-0.3,0.3-0.4s0.1-0.2,0.2-0.3
					c0.1,0,0.2-0.2,0.2-0.3s0.1-0.2,0.2-0.3c0.1,0,0.1-0.1,0.1-0.1s0,0,0.1,0l0.1-0.1l0,0c0.1,0,0.3-0.4,0.3-0.6c0-0.1,0-0.2,0-0.2
					c0.1,0,0.2-0.1,0.2-0.1c0.1,0,0.1-0.1,0.2-0.2l0,0l0,0l0.1-0.1l0,0l0.1-0.1l0.1-0.1c0,0,0-0.1,0-0.2s-0.3-0.3-0.3-0.4
					s-0.3-0.2-0.5-0.2s-0.3,0.1-0.3,0.1l0,0l0,0h-0.1c-0.1,0-0.2,0.1-0.2,0.1s-0.6,0.1-0.8,0.1c-0.2,0-0.4,0-0.4,0.1
					c0,0-0.7,0.1-1,0.1s-0.6-0.1-0.6-0.2s-0.3-0.3-0.4-0.3s-0.1-0.1-0.1-0.1S110,3.8,109,3.9c0,0,0,0-0.4-0.1c3-0.6,6.1-1,9.3-1
					c1.7,0,3.3,0.1,4.9,0.3c0,0.1,0.1,0.1,0.2,0.2c-0.3,0.1-0.6,0.2-0.7,0.2c-0.8,0-1.4-0.2-1.4-0.1c0,0,0,0.1-0.1,0.1h-0.1l0,0
					c-0.2,0.1-0.7,0.3-0.9,0.4c-0.3,0.1-0.6,0.2-0.6,0.2l0,0c-0.1,0-0.1,0.1-0.1,0.1s0.3,0.1,0.5,0.1l0,0c-0.1,0.1-0.3,0.1-0.4,0.1
					c-0.3,0.1-0.6,0.2-0.6,0.2s0.3,0.1,0.5,0.1c0.1,0,0.2,0.2,0.2,0.3c0,0.1,0,0.3-0.1,0.5c0,0.1,0,0.3,0,0.3s0.1,0.1,0.1,0.3
					l0.1,0.1h0.1c0.3,0.1,0.3,0.2,0.3,0.2s-0.2,0.4-0.3,0.6c-0.1,0.1,0.1,0.3,0.2,0.3s0.2,0.1,0.2,0.1l0.1,0.1l0.1,0.1
					c0,0,0.1,0.1,0.2,0.1s0.2,0.1,0.3,0.1h-0.1c-0.1,0-0.1,0.1-0.1,0.1s-0.1,0-0.1,0.1c-0.1,0-0.2,0-0.3,0c-0.1,0-0.2,0.1-0.2,0.1
					s-0.1,0.1-0.2,0.1s-0.2,0.1-0.2,0.1l0,0l0,0h-0.1c-0.1,0-0.1,0.1-0.2,0.1S119,8.5,119,8.6c0,0,0,0.1,0.1,0.1
					c-0.1,0-0.2,0.1-0.2,0.1s-0.1,0.1-0.2,0.1s-0.2,0.1-0.2,0.2s0.3,0.1,0.5,0.2c0.1,0,0.3-0.1,0.3-0.1s0.6-0.2,0.8-0.2
					c0.2,0,0.3-0.1,0.3-0.2h0.4c0.1,0.1,0.1,0,0.2-0.1s0.4-0.3,0.6-0.3c0.1,0,0.3-0.2,0.4-0.4h0.1c0.1,0,0.3-0.2,0.4-0.4
					c0,0,0,0,0.1-0.1c0-0.1,0.6-0.2,0.7-0.1s0.2,0.2,0.2,0.2s1.3,0.2,1.7,0.1c0.4-0.1,0.8-0.1,0.8,0s0.1,0.3,0.3,0.4
					c0.2,0.1,0.3,0.3,0.3,0.3s0.3,0,0.7,0l0.2,0.1c0.6,0.2,0.1,0.2,0,0.3s0.3,0.4,0.3,0.6c0,0.1,0.4,0.2,0.5,0.2s0.4-0.1,0.5,0
					s0.2,0.5,0.2,0.6s0,0.3,0,0.3s0.3,0.1,0.4,0.1c0.2,0,0.3,0.1,0.3,0.1l0.1,0.1c0,0,0.2,0.5,0.2,0.9s0.1,0.7,0.2,0.7l0.2,0.3
					c0,0,0.1,0,0.2,0c0,0,0.1,0.2,0.1,0.3s0.1,0.2,0.1,0.2s0.1,0.1,0.1,0.2s0.1,0.2,0.1,0.2s0.1,0.2,0.2,0.2c0,0.1,0.1,0.1,0.2,0.1
					c0.1,0,0.2,0.1,0.3,0.2c0.1,0.1,0.2,0.2,0.3,0.2s0.2,0.1,0.2,0.1l0.1,0.1c0,0,0.1,0.1,0.1,0.2c0,0.1,0.1,0.2,0.1,0.2
					s0.1,0.6,0.1,0.8s-0.3,0.6-0.3,0.6s0,0.3,0,0.6l-0.1-0.1c0,0-0.1-0.1-0.1-0.2l-0.1-0.1c0,0-0.2,0.2-0.3,0.3c0,0,0,0.1-0.1,0.2
					c0,0.1,0.1,0.5,0.1,0.5s0.1,0.4,0.2,0.6c0.1,0.2,0.2,0.1,0.2,0.1c0.1,0,0,0,0.1,0c0,0,0.1-0.1,0.2-0.1c0,0.1,0,0.2,0,0.3
					c-0.1,0-0.2,0.3-0.1,0.5c-0.2,0-0.3,0-0.3-0.1c-0.1-0.1-0.3,0.6,0,0.6c0.2,0,0.3,0.4,0.3,0.6s-0.1,0.4-0.1,0.4s-0.1,0.2-0.1,0.3
					c0,0.1-0.1,0.2-0.1,0.2s-0.1,0.3-0.1,0.5c0,0.1,0.1,0.3,0.1,0.3s0.1,0.2,0.1,0.3c0,0.1,0.1,0.2,0.1,0.2s0.1,0.7,0.1,1
					s0.1,0.6,0.1,0.6s0.1,0.1,0.1,0.2v0.1l-42,16.4c-0.1,0-0.3-0.1-0.3-0.1v-0.2c-0.2-0.1-0.5,0-0.5,0v0.1c-0.1,0-0.1,0-0.1,0
					l-0.4,0.4c0,0,0,0.2,0,0.3l-7.3,3c0-0.4,0-0.7,0-1c0-0.5-0.2-1-0.2-1s-0.1-0.5-0.1-0.7s-0.1-0.4-0.2-0.5c-0.2-0.1-0.3-0.8-0.3-1
					C81.1,39.5,81.2,39.3,81.2,39.3L81.2,39.3z M133.2,5.3c-0.2,0.1-0.3,0.1-0.3,0.1c-0.6-0.1-1.1-0.2-1.1-0.2s-0.6-0.1-0.9-0.1
					c-0.2,0-0.4-0.1-0.4-0.1s-0.3-0.1-0.4-0.1c-0.1,0-0.2-0.1-0.2-0.1s-0.3-0.1-0.5-0.1c-0.1,0-0.3-0.1-0.3-0.1s-0.2-0.1-0.3-0.1
					s-0.2-0.1-0.2-0.1l-0.4-0.3c-0.1-0.1-0.1-0.2-0.1-0.2s-0.1-0.1-0.2-0.1c-0.1,0-0.1,0-0.2-0.1C129.7,4.2,131.5,4.7,133.2,5.3
					L133.2,5.3z M85.1,64.4v1.8c0,3.4-2.3,5.5-6.5,7.2L72.1,76V55.8l6.6-2.6c3.4-1.4,6.5-1.6,6.5,1.5v1.5c0,1.9-0.6,3.5-4.2,5.4v0.1
					C83.8,60.8,85.1,61.2,85.1,64.4L85.1,64.4z M97.5,53.1V56l-4.6,1.8v7l4.8-1.9v2.9l-10.4,4.1V49.8l10.4-4.2v2.8l-4.8,1.9v4.5
					L97.5,53.1z M106.2,44.8c-0.9,0.3-1,1.2-1,1.7v12.3c0,0.6,0.1,1.3,1,0.9c0.9-0.3,1-1.2,1-1.7v-4l5.6-2.2v4.6
					c0,2.7-3.1,4.9-6.6,6.3c-3.4,1.4-6.5,1.6-6.5-1.1V48.1c0-2.7,3.1-4.9,6.6-6.3c3.4-1.4,6.5-1.6,6.5,1.1v3.8l-5.6,2.2v-3.2
					C107.2,45.2,107.1,44.4,106.2,44.8L106.2,44.8z M120.3,47.1v9.6l-5.6,2.2V38.8l5.6-2.2v7.3l2-0.8v-7.3l5.6-2.2v20.1l-5.6,2.2
					v-9.6L120.3,47.1z M129.5,35.8v-2.9l13-5.2v2.9l-3.7,1.5v17.2l-5.6,2.2V34.3L129.5,35.8z M154.4,30.5v2.9l-4.6,1.8v6.9l4.8-1.9
					v2.9l-10.4,4.1V27.1l10.4-4.1v2.9l-4.8,1.9v4.6L154.4,30.5z M166.8,35.3v2.9l-10.5,4.2V22.3L162,20v17.2L166.8,35.3z M169.9,9.1
					h-0.2c-0.3,0-0.6,0.1-0.9,0.2l-16.5,6.6c-8.5-9.4-20.7-15.3-34.4-15.3c-25.4,0-46.1,20.5-46.1,45.7c0,0.6,0,1.1,0,1.7l-5,2
					c-1,0.4-1.8,1.6-1.8,2.8v29.8c0,1.5,1.1,2.7,2.5,2.8h0.2c0.3,0,0.5,0,0.9-0.2l16.7-6.7c8.3,8.3,19.9,13.4,32.6,13.4
					c25.1,0,45.6-20,46.1-44.8l6.6-2.6c1-0.4,1.8-1.6,1.8-2.8V11.9C172.4,10.4,171.3,9.2,169.9,9.1L169.9,9.1z"/>
			</g>
			<path id="Fill-32" class="st1" d="M78.3,64.5l-0.7,0.3v6.4l0.7-0.3c0.9-0.4,1.3-0.7,1.3-1.5v-4.5C79.6,64.2,79.2,64.2,78.3,64.5"
				/>
		</g>
	</g>
</g>
</svg>
