<?xml version="1.0" encoding="UTF-8"?>
<svg width="1191px" height="144px" viewBox="0 0 1191 144" version="1.1" xmlns="http://www.w3.org/2000/svg" xmlns:xlink="http://www.w3.org/1999/xlink">
    <!-- Generator: Sketch 42 (36781) - http://www.bohemiancoding.com/sketch -->
    <title>dd-logo</title>
    <desc>Created with Sketch.</desc>
    <defs></defs>
    <g id="Page-1" stroke="none" stroke-width="1" fill="none" fill-rule="evenodd">
        <g id="dd-logo" fill="#6C36C7">
            <g id="dutchman.digital">
                <path d="M38.267,29.35 C45.846,29.35 53.139,31.781 58.287,37.644 L58.287,7.185 L80.738,7.185 L80.738,108 L58.287,108 L58.287,100.278 C52.996,106.856 45.417,109.001 37.981,109.001 C13.385,109.001 0.658,89.267 0.801,67.96 C1.087,46.796 13.242,29.35 38.267,29.35 Z M40.698,87.408 C50.422,87.408 58.287,79.114 58.287,68.818 C58.287,58.522 50.422,50.085 40.698,50.085 C29.258,50.085 23.538,59.094 23.395,68.532 C23.252,77.827 29.115,87.408 40.698,87.408 Z M168.54,108 L168.54,30.637 L144.659,30.637 L144.659,72.679 C144.659,92.413 118.776,95.416 118.776,73.108 L118.776,30.637 L96.039,30.637 L96.039,73.251 C95.896,92.413 101.902,108.858 123.924,109.001 C132.218,109.144 140.369,107.142 145.803,100.135 L145.803,108 L168.54,108 Z" id="du"></path>
                <path d="M228.6,108.143 L227.885,89.553 C225.883,89.982 223.595,90.268 221.45,90.268 C216.016,90.268 211.011,88.123 211.011,81.259 L211.011,50.8 L227.17,50.8 L227.17,31.495 L211.011,31.495 L211.011,14.764 L188.56,16.766 L188.56,31.495 L178.407,31.495 L178.407,50.8 L188.56,50.8 L188.56,81.259 C188.56,101.422 198.999,109.43 216.302,109.287 C220.02,109.287 224.167,108.858 228.6,108.143 Z" id="t"></path>
                <path d="M291.151,75.11 C285.288,94.272 257.546,91.126 257.546,69.247 C257.546,47.368 285.431,44.365 291.151,63.527 L313.459,63.527 C307.167,15.908 235.524,19.197 235.524,69.247 C235.524,119.297 307.024,122.586 313.459,75.11 L291.151,75.11 Z M324.899,7.185 L324.899,108 L348.78,108 L348.78,65.958 C348.78,56.52 357.074,50.657 363.938,50.8 C369.944,50.943 375.521,55.376 375.521,65.529 L375.521,108 L398.258,108 L398.258,65.386 C398.544,46.081 392.395,29.779 370.373,29.493 C362.079,29.493 353.213,31.495 347.636,38.359 L347.636,7.185 L324.899,7.185 Z M413.416,30.637 L413.416,108 L437.297,108 L437.297,64.242 C437.297,55.519 444.59,51.515 450.167,51.658 C455.315,51.801 459.748,55.233 459.748,64.528 L459.748,108 L482.485,108 L482.485,63.956 C482.628,55.376 490.922,51.515 496.499,51.658 C501.647,51.801 506.08,55.233 506.08,64.528 L506.08,108 L528.817,108 L528.817,64.385 C529.103,39.932 517.377,30.208 502.791,29.636 C493.782,29.207 482.485,32.496 477.194,39.789 C473.619,33.926 467.899,29.922 459.033,29.493 C450.739,29.35 441.587,31.495 436.153,38.359 L436.153,30.637 L413.416,30.637 Z M578.438,29.35 C586.017,29.35 593.453,32.21 598.458,38.645 L598.458,30.637 L620.909,30.637 L620.909,108 L598.458,108 L598.458,100.278 C593.167,106.856 585.588,109.001 578.152,109.001 C553.556,109.001 540.829,89.267 540.972,67.96 C541.258,46.796 553.413,29.35 578.438,29.35 Z M580.869,87.408 C590.593,87.408 598.458,79.114 598.458,68.818 C598.458,58.522 590.593,50.085 580.869,50.085 C569.429,50.085 563.709,59.094 563.566,68.532 C563.423,77.827 569.286,87.408 580.869,87.408 Z M634.208,30.637 L634.208,108 L658.089,108 L658.089,65.958 C658.089,56.091 666.097,50.371 672.818,50.371 C678.967,50.371 684.83,55.09 684.83,65.529 L684.83,108 L707.71,108 L707.71,65.386 C707.853,46.081 701.847,29.779 679.825,29.493 C671.531,29.493 662.379,31.495 656.945,38.359 L656.945,30.637 L634.208,30.637 Z M730.018,82.975 C722.868,82.975 717.148,88.123 717.148,95.702 C717.148,101.994 722.868,108.429 730.018,108.429 C737.74,108.429 743.317,101.994 743.317,95.702 C743.317,88.123 737.74,82.975 730.018,82.975 Z M795.083,29.35 C802.662,29.35 809.955,31.781 815.103,37.644 L815.103,7.185 L837.554,7.185 L837.554,108 L815.103,108 L815.103,100.278 C809.812,106.856 802.233,109.001 794.797,109.001 C770.201,109.001 757.474,89.267 757.617,67.96 C757.903,46.796 770.058,29.35 795.083,29.35 Z M797.514,87.408 C807.238,87.408 815.103,79.114 815.103,68.818 C815.103,58.522 807.238,50.085 797.514,50.085 C786.074,50.085 780.354,59.094 780.211,68.532 C780.068,77.827 785.931,87.408 797.514,87.408 Z M875.735,30.637 L875.735,108 L852.855,108 L852.855,30.637 L875.735,30.637 Z M850.71,13.62 C850.71,5.04 857.145,0.607 863.723,0.464 C870.587,0.321 877.737,4.611 877.737,13.62 C877.737,21.914 871.302,26.061 864.724,26.204 C857.86,26.347 850.71,22.2 850.71,13.62 Z M924.927,107.714 C900.045,107.714 887.604,91.269 887.604,69.962 C887.604,47.654 900.188,29.636 924.784,29.779 C932.22,29.779 939.799,31.781 944.947,38.359 L944.947,30.637 L967.398,30.637 L967.398,103.567 C967.398,132.167 947.664,143.75 928.073,143.75 C908.911,143.75 889.892,132.167 889.892,113.434 L913.487,113.434 C913.487,118.153 920.208,122.014 927.358,121.871 C935.509,121.728 944.232,117.295 944.947,103.71 L944.947,99.706 C939.942,105.569 932.649,107.714 924.927,107.714 Z M927.501,51.229 C915.775,51.229 910.055,60.953 910.198,70.248 C910.341,81.116 918.921,86.407 927.501,86.407 C936.224,86.264 944.947,80.687 944.947,69.962 C944.947,59.666 937.082,51.229 927.501,51.229 Z M1005.579,30.637 L1005.579,108 L982.699,108 L982.699,30.637 L1005.579,30.637 Z M980.554,13.62 C980.554,5.04 986.989,0.607 993.567,0.464 C1000.431,0.321 1007.581,4.611 1007.581,13.62 C1007.581,21.914 1001.146,26.061 994.568,26.204 C987.704,26.347 980.554,22.2 980.554,13.62 Z M1067.212,108.143 L1066.497,89.553 C1064.495,89.982 1062.207,90.268 1060.062,90.268 C1054.628,90.268 1049.623,88.123 1049.623,81.259 L1049.623,50.8 L1065.782,50.8 L1065.782,31.495 L1049.623,31.495 L1049.623,14.764 L1027.172,16.766 L1027.172,31.495 L1017.019,31.495 L1017.019,50.8 L1027.172,50.8 L1027.172,81.259 C1027.172,101.422 1037.611,109.43 1054.914,109.287 C1058.632,109.287 1062.779,108.858 1067.212,108.143 Z M1111.256,29.35 C1118.835,29.35 1126.271,32.21 1131.276,38.645 L1131.276,30.637 L1153.727,30.637 L1153.727,108 L1131.276,108 L1131.276,100.278 C1125.985,106.856 1118.406,109.001 1110.97,109.001 C1086.374,109.001 1073.647,89.267 1073.79,67.96 C1074.076,46.796 1086.231,29.35 1111.256,29.35 Z M1113.687,87.408 C1123.411,87.408 1131.276,79.114 1131.276,68.818 C1131.276,58.522 1123.411,50.085 1113.687,50.085 C1102.247,50.085 1096.527,59.094 1096.384,68.532 C1096.241,77.827 1102.104,87.408 1113.687,87.408 Z M1167.169,7.9 L1167.169,108 L1190.049,108 L1190.049,7.9 L1167.169,7.9 Z" id="chman.digital"></path>
            </g>
        </g>
    </g>
</svg>