<?xml version="1.0" encoding="UTF-8" standalone="no"?>
<svg width="171px" height="71px" viewBox="0 0 171 71" version="1.1" xmlns="http://www.w3.org/2000/svg" xmlns:xlink="http://www.w3.org/1999/xlink">
    <!-- Generator: Sketch 40.3 (33839) - http://www.bohemiancoding.com/sketch -->
    <title>Disney</title>
    <desc>Created with Sketch.</desc>
    <defs></defs>
    <g id="Page-1" stroke="none" stroke-width="1" fill="none" fill-rule="evenodd">
        <g id="Artboard" transform="translate(-40.000000, -356.000000)" fill="#797C7B">
            <g id="Disney" transform="translate(40.000000, 356.000000)">
                <path d="M85.6946489,8.01298718 C86.8871011,8.07579487 87.9549415,8.51544872 88.8335904,9.26914103 C90.0260426,10.3996795 90.3398457,12.2848205 89.775,13.7922051 C87.5774681,18.3161795 82.3565106,21.3364103 78.7891596,22.3367821 C76.6552979,22.8392436 73.9556809,22.8392436 72.0091915,22.0855513 C71.0677819,22.6508205 70.2728138,24.4777051 69.1212926,23.7185513 C67.4558617,22.4168846 68.8975372,20.3797308 67.936117,18.9342436 C67.7378298,18.6356795 67.2384734,18.6138333 66.9865213,18.1277564 C65.6685479,15.2376923 67.301234,12.4732436 69.1212926,10.2740641 C72.155633,6.887 80.8611702,3.11216667 85.6946489,8.01298718 L85.6946489,8.01298718 Z M75.5874574,10.2740641 C73.8920106,10.5881026 71.9773564,11.3263205 70.9422606,12.5360513 C69.9062553,13.7448718 69.2468138,14.9236538 69.8753298,16.1798077 C72.0719521,14.5468077 73.138883,12.2848205 75.5874574,10.902141 C75.5874574,10.6509103 75.9640213,10.4624872 75.5874574,10.2740641 L75.5874574,10.2740641 Z M85.8201702,10.902141 C81.4887766,10.5252949 78.2243138,13.7922051 75.148133,16.9335 C74.9598511,17.4359615 73.8301596,18.0012308 74.7088085,18.5674103 C78.8519202,18.9442564 82.80675,17.75 85.8201702,14.9864615 C86.6988191,14.1690513 87.3264255,13.1013205 86.8871011,11.9707821 C86.6988191,11.5311282 86.2594947,11.0914744 85.8201702,10.902141 L85.8201702,10.902141 Z" id="Fill-2"></path>
                <path d="M123.361037,29.6242949 C125.370287,34.5251154 127.064824,42.2522821 123.361037,46.9637692 C122.356867,48.0943077 120.59866,49.1365513 119.468968,48.2827308 C115.325856,44.9530128 113.567649,40.1787179 110.993553,35.9068846 C110.616989,35.7184615 110.616989,36.2209231 110.428707,36.4093462 C109.487298,40.7439872 111.245505,46.3985 108.294846,49.7910256 C107.164245,49.9794487 106.108229,49.3977949 105.72075,48.2827308 C104.276346,43.8224744 105.783511,39.1737949 106.160074,34.7135385 C107.038723,32.4515513 107.416197,29.8127179 109.361777,28.116 C112.500718,29.3730641 114.006973,32.8912051 115.827941,35.4672308 C117.145915,37.4142692 118.212846,39.6134487 119.720011,41.3729744 C121.037984,40.8067949 120.389457,39.0845897 120.347617,38.0423462 C119.845532,33.9589359 118.71584,30.1895641 117.648,26.2945769 C117.586149,25.2896538 117.020394,23.5929359 118.087324,22.964859 C120.912463,24.2210128 122.105824,27.1738846 123.361037,29.6242949" id="Fill-3"></path>
                <path d="M104.401867,28.116 C104.401867,29.0590256 103.648739,30.2368974 103.021133,30.3779872 C96.9942926,31.3210128 90.2770851,30.7548333 84.6277181,32.6399744 C84.4394362,33.330859 85.2553245,33.4564744 85.6946489,33.6448974 C90.5281277,34.3985897 95.6135585,34.5870128 100.321516,35.7812692 C102.811931,36.4138974 103.7115,39.3622179 103.899782,41.8126282 C104.015298,43.7441923 103.272176,46.0844615 101.389356,47.4034231 C96.74325,50.3562949 89.6494787,50.2306795 84.9415213,47.5290385 C83.1414734,46.5186538 81.426016,44.8902051 81.3004947,42.880359 C81.3105,41.282859 81.9908617,40.0267051 83.1205532,39.4250256 C87.6402287,37.6026923 93.2277447,38.6076154 97.1198138,40.9324103 C97.3708564,42.1894744 96.0110426,42.1212051 95.362516,42.5663205 C91.0311223,45.0786282 87.76575,39.7390641 83.7481596,41.6861026 C83.1833138,42.063859 82.7758245,43.1161154 83.435266,43.4456282 C88.394266,45.6448077 93.9181117,44.0737051 98.8152606,42.6919359 C99.3801064,42.5035128 100.070473,41.9382436 100.133234,41.3729744 C99.9449521,39.3622179 97.6846596,38.9216538 96.2411649,38.3563846 C91.9725319,37.2886538 87.2636649,37.2886538 82.6812287,36.849 C81.8025798,36.6605769 80.6828936,36.0479744 80.4209362,35.3416154 C79.9188511,33.8333205 79.9188511,31.7606667 81.0494521,30.5036026 C86.8871011,25.3524615 95.7390798,25.7921154 103.146654,27.1738846 C103.648739,27.3623077 104.213585,27.5507308 104.401867,28.116" id="Fill-4"></path>
                <path d="M76.9691011,30.5036026 C77.5339468,36.5349615 77.84775,42.1266667 77.7222287,48.4711538 C77.5967074,49.2885641 76.6552979,49.4769872 76.0267819,49.7910256 C75.0226117,49.9794487 73.7255585,49.7646282 73.3271649,49.2257564 C71.8836702,46.9009615 72.3857553,43.7596667 72.260234,40.9324103 C72.448516,36.4721538 72.3857553,31.6350513 73.6409681,27.4888333 C73.8820053,26.8862436 74.5832872,26.3573846 75.148133,26.7342308 C76.6552979,27.4888333 76.9063404,28.9962179 76.9691011,30.5036026" id="Fill-5"></path>
                <path d="M146.714362,29.6242949 C147.01816,30.1322179 147.331963,30.916859 146.714362,31.2572949 C143.889223,32.514359 140.059915,31.9490897 136.795452,32.3259359 C135.916803,33.0796282 135.226436,34.3357821 135.540239,35.4672308 C135.854043,35.6556538 136.13692,35.9432949 136.481649,35.9068846 C138.490899,36.0325 141.50341,34.9647692 142.822293,36.849 C143.147011,37.4088077 142.780452,39.5033077 141.880883,39.550641 C139.432309,39.8646795 135.403803,39.2411538 134.222266,39.8646795 C132.715101,40.8696026 132.840622,42.8175513 132.275777,44.3877436 C133.342707,45.0786282 134.462394,44.3722692 135.728521,44.1993205 C138.051574,43.8224744 140.624761,43.1315897 142.947814,43.6340513 C143.387138,44.4505513 144.014745,45.3307692 143.57542,46.3356923 C139.62059,49.4769872 134.515149,52.6965641 129.074074,50.4191026 C127.033899,49.5024744 126.123415,46.3985 126.813782,43.7596667 C127.253106,41.8745256 129.199596,40.0531026 128.007144,38.0423462 C127.818862,37.1630385 128.320947,36.4093462 129.074074,36.2209231 C131.145176,36.2209231 130.705851,33.6448974 131.773691,32.4515513 C130.58033,31.1316795 127.56691,31.1953974 127.881622,28.5565641 C129.325117,27.8028718 131.082415,28.0541026 132.715101,27.8028718 C136.418888,27.0482692 140.562,26.6086154 144.328548,27.0482692 C145.082585,27.2002821 146.086755,28.6821795 146.714362,29.6242949" id="Fill-6"></path>
                <path d="M57.0685213,15.3005 C62.8606915,20.0392949 70.3765053,28.116 69.4350957,37.4142692 C68.3054043,44.7645897 60.521266,50.2934872 53.9295798,52.0530128 C47.5261755,53.9372436 39.4900851,53.7488205 32.9611596,52.2414359 C32.5218351,53.4347821 32.0825106,54.879359 30.7017766,55.3818205 C29.8222181,55.695859 28.6925266,55.5083462 28.0021596,54.9421667 C26.0556702,53.1207436 27.6255957,49.6026026 24.8004574,48.4711538 C19.2757021,46.1472692 13.3116223,41.5604872 10.4873936,35.9068846 C10.1108298,34.7754359 10.5501543,33.6448974 11.2405213,32.7655897 C15.5719149,29.3102564 21.0339096,27.9284872 26.4949947,26.8598462 C26.8087979,26.9854615 26.6832766,26.5458077 26.9343191,26.4201923 C27.2490319,22.6508205 27.3745532,18.818641 28.5670053,15.4261154 C28.8389681,14.949141 29.5084149,14.7980385 29.9477394,15.1120769 C33.4013936,17.75 31.7687074,22.7136282 33.2749628,26.2945769 C39.8666489,26.6086154 46.4592447,26.9226538 51.6692872,30.6292179 C53.4265851,32.0747051 53.8559043,34.8336923 53.3010638,36.4093462 C52.747133,37.985 50.9161596,39.1109872 49.2207128,39.2366026 C48.0910213,39.2366026 45.95625,39.3458333 46.0817713,38.482 C46.2072926,37.6181667 49.9219947,36.2045385 48.7813883,35.0275769 C47.1414255,33.3335897 38.9361543,32.3259359 33.8507234,31.697859 C33.223117,31.5722436 32.6473564,31.7606667 32.6473564,32.4515513 C32.5218351,37.2258462 32.1452713,42.5035128 32.9611596,47.0893846 C33.0239202,47.4034231 33.4013936,47.7802692 33.7151968,47.8430769 C42.6917872,49.2885641 52.1713723,48.4711538 59.202383,43.3200128 C62.4668457,40.6811795 63.5346862,36.9746154 62.9689309,32.8912051 C60.1437926,21.5202821 48.2793032,14.6724231 38.5486755,10.2740641 C29.0690904,6.12784615 18.5853351,3.99147436 7.34845213,4.55765385 C5.55931915,4.68782051 2.72326596,5.30588462 2.70234574,5.93942308 C2.68142553,6.57296154 5.91496277,6.37361538 5.52748404,7.57242308 C5.14091489,8.77214103 1.85553191,8.06032051 0.882287234,7.76084615 C-0.0909574468,7.46319231 0.0027287234,6.06503846 0.254680851,5.18573077 C2.70234574,0.851089744 9.53506915,0.499730769 12.6212553,0.347717949 C29.6966968,-0.0919358974 46.2072926,6.41548718 57.0685213,15.3005 L57.0685213,15.3005 Z M26.3067128,32.1375128 C21.9753191,32.2003205 17.3919734,32.6399744 13.3752926,34.147359 C12.5584947,34.4613974 11.5543245,35.3416154 12.1819309,36.4093462 C13.814617,38.6076154 16.1476755,40.4144744 18.3342926,41.6861026 C20.5209096,42.958641 23.4188138,44.5761667 26.0556702,44.9530128 C26.6832766,40.8696026 26.6832766,36.849 26.6214255,32.6399744 C26.3694734,32.514359 26.6214255,32.2631282 26.3067128,32.1375128 L26.3067128,32.1375128 Z" id="Fill-7"></path>
                <path d="M156.068426,26.4201923 C155.880144,31.8862821 150.794713,35.2788077 150.794713,40.7439872 C150.982995,40.9324103 151.108516,41.183641 151.359559,41.0580256 C155.440819,36.5977692 159.45841,30.2523718 165.422489,28.368141 C166.991505,28.2425256 168.41408,29.6088205 169.000755,30.6292179 C171.071856,34.7754359 170.569771,40.6183718 167.681872,44.3877436 C164.700287,48.0888462 159.52117,51.8017821 153.619851,51.1727949 C151.171277,57.2041538 149.476739,63.5495513 148.53442,70.1461795 C148.033245,71.465141 146.839883,70.2717949 146.086755,70.0205641 C141.002234,65.9999615 145.176271,55.3563333 145.52191,54.0000513 C145.866638,52.6437692 147.227362,49.4505897 148.220617,46.7753462 C145.835713,42.5035128 147.341968,37.3514615 149.288457,33.3936667 C150.794713,30.7548333 152.866723,28.116 155.315298,26.1061538 C155.629101,26.1061538 155.880144,26.1689615 156.068426,26.4201923 L156.068426,26.4201923 Z M166.175617,33.2052436 C165.422489,33.0796282 165.108686,34.0845513 164.48017,34.2738846 C161.593181,37.5398846 158.705282,40.8067949 157.260878,44.7017821 C159.207367,44.9530128 160.839144,43.696859 162.53459,43.0059744 C165.422489,41.183641 167.242548,38.1679615 167.054266,34.7135385 C166.928745,34.147359 166.42666,33.7077051 166.175617,33.2052436 L166.175617,33.2052436 Z" id="Fill-8"></path>
            </g>
        </g>
    </g>
</svg>