<?xml version="1.0" encoding="UTF-8" standalone="no"?>
<svg width="180px" height="72px" viewBox="0 0 180 72" version="1.1" xmlns="http://www.w3.org/2000/svg" xmlns:xlink="http://www.w3.org/1999/xlink">
    <!-- Generator: Sketch 40.3 (33839) - http://www.bohemiancoding.com/sketch -->
    <title>haha</title>
    <desc>Created with Sketch.</desc>
    <defs></defs>
    <g id="Page-1" stroke="none" stroke-width="1" fill="none" fill-rule="evenodd">
        <g id="Artboard" transform="translate(-1334.000000, -89.000000)" fill="#797C7B">
            <g id="haha" transform="translate(1334.500000, 89.000000)">
                <path d="M0.188421053,40.3764706 L2.92052632,40.3764706 L2.92052632,45.6 L2.96763158,45.6 C3.39157895,44.8941176 4.52210526,44.2352941 5.65263158,44.2352941 C8.00789474,44.2352941 9.51526316,45.7882353 9.51526316,48.2352941 L9.51526316,55.6235294 L6.78315789,55.6235294 L6.78315789,48.8470588 C6.78315789,47.7176471 6.21789474,46.7294118 4.80473684,46.7294118 C3.48578947,46.7294118 2.87342105,47.5764706 2.87342105,48.6588235 L2.87342105,55.6235294 L0.188421053,55.6235294 L0.188421053,40.3764706 L0.188421053,40.3764706 Z" id="Shape"></path>
                <path d="M21.0089474,53.5058824 C20.0668421,54.8235294 18.7478947,55.9529412 16.4397368,55.9529412 C13.3778947,55.9529412 11.2110526,53.6941176 11.2110526,50.1176471 C11.2110526,46.5411765 13.4721053,44.2823529 16.3455263,44.2823529 C19.2189474,44.2823529 21.3386842,46.4941176 21.3386842,50.1176471 L21.3386842,50.9176471 L13.8960526,50.9176471 C13.9902632,52.6117647 14.8381579,53.5529412 16.3455263,53.5529412 C17.7586842,53.5529412 18.5123684,52.6117647 19.0776316,51.8117647 L21.0089474,53.5058824 L21.0089474,53.5058824 Z M18.795,48.8941176 C18.6536842,47.4823529 17.8057895,46.6352941 16.3455263,46.6352941 C14.9794737,46.6352941 14.0844737,47.6705882 13.9902632,48.8941176 L18.795,48.8941176 L18.795,48.8941176 Z" id="Shape"></path>
                <path d="M29.4407895,54.5882353 L29.4407895,54.5882353 C29.3936842,54.5882353 28.64,55.9529412 26.3789474,55.9529412 C23.5055263,55.9529412 22.375,54.3529412 22.375,52.6588235 C22.375,50.6823529 23.5055263,49.8823529 26.1434211,49.2235294 C28.7813158,48.5647059 29.0168421,48.3294118 29.0168421,47.7176471 C29.0168421,47.1058824 28.4515789,46.5411765 27.1326316,46.5411765 C25.4839474,46.5411765 25.06,47.4823529 24.7773684,48.3764706 L22.5163158,47.4352941 C22.9873684,45.7411765 24.4005263,44.2823529 27.0855263,44.2823529 C29.5821053,44.2823529 31.7018421,45.4588235 31.7018421,48.6588235 L31.7018421,55.6705882 L29.4407895,55.6705882 C29.4407895,55.6705882 29.4407895,54.5882353 29.4407895,54.5882353 L29.4407895,54.5882353 Z M25.0128947,52.4705882 C25.0128947,53.3176471 25.6723684,53.6 26.6615789,53.6 C28.4515789,53.6 29.1110526,52.8 29.1110526,51.9529412 L29.1110526,50.0235294 L29.0639474,50.0235294 C28.9226316,50.2588235 28.8755263,50.5411765 26.7086842,51.0588235 C25.1542105,51.4823529 25.0128947,52 25.0128947,52.4705882 L25.0128947,52.4705882 Z" id="Shape"></path>
                <polygon id="Shape" points="33.9628947 40.3764706 36.7892105 40.3764706 36.7892105 55.6235294 33.9628947 55.6235294"></polygon>
                <path d="M39.8039474,46.8705882 L38.1081579,46.8705882 L38.1081579,44.5647059 L39.8981579,44.5647059 L39.8981579,41.8352941 L42.4889474,41.8352941 L42.4889474,44.5647059 L45.2681579,44.5647059 L45.2681579,46.8705882 L42.4889474,46.8705882 L42.4889474,51.4352941 C42.4889474,52.5647059 42.7244737,53.0352941 43.9963158,53.0352941 L44.8913158,53.0352941 L44.8913158,55.6705882 L43.7607895,55.6705882 C40.6518421,55.6705882 39.8510526,54.3529412 39.8510526,51.7176471 L39.8510526,46.8705882 L39.8039474,46.8705882 L39.8039474,46.8705882 L39.8039474,46.8705882 Z" id="Shape"></path>
                <path d="M46.8226316,40.3764706 L49.5547368,40.3764706 L49.5547368,45.6 L49.6018421,45.6 C50.0257895,44.8941176 51.1563158,44.2352941 52.2868421,44.2352941 C54.6421053,44.2352941 56.1494737,45.7882353 56.1494737,48.2352941 L56.1494737,55.6235294 L53.4173684,55.6235294 L53.4173684,48.8470588 C53.4173684,47.7176471 52.8521053,46.7294118 51.4389474,46.7294118 C50.12,46.7294118 49.5076316,47.5764706 49.5076316,48.6588235 L49.5076316,55.6235294 L46.8226316,55.6235294 L46.8226316,40.3764706 L46.8226316,40.3764706 Z" id="Shape"></path>
                <path d="M67.7844737,51.8117647 C67.2663158,54.4470588 65.5234211,55.9058824 62.9797368,55.9058824 C60.0592105,55.9058824 57.7981579,53.8352941 57.7981579,50.0705882 C57.7981579,46.3058824 60.2005263,44.2352941 62.9797368,44.2352941 C65.4763158,44.2352941 67.2663158,45.8352941 67.6431579,48.2352941 L65.0994737,48.7058824 C64.8639474,47.5764706 64.2515789,46.6823529 62.9797368,46.6823529 C61.4723684,46.6823529 60.4831579,47.8117647 60.4831579,50.0705882 C60.4831579,52.3294118 61.4723684,53.4588235 62.9797368,53.4588235 C64.2986842,53.4588235 64.9581579,52.5176471 65.1936842,51.1058824 L67.7844737,51.8117647 L67.7844737,51.8117647 Z" id="Shape"></path>
                <path d="M75.8865789,54.5882353 L75.8865789,54.5882353 C75.8394737,54.5882353 75.0857895,55.9529412 72.8247368,55.9529412 C69.9513158,55.9529412 68.8207895,54.3529412 68.8207895,52.6588235 C68.8207895,50.6823529 69.9513158,49.8823529 72.5892105,49.2235294 C75.2271053,48.5647059 75.4626316,48.3294118 75.4626316,47.7176471 C75.4626316,47.1058824 74.8973684,46.5411765 73.5784211,46.5411765 C71.9297368,46.5411765 71.5057895,47.4823529 71.2231579,48.3764706 L68.9621053,47.4352941 C69.4331579,45.7411765 70.8463158,44.2823529 73.5313158,44.2823529 C76.0278947,44.2823529 78.1476316,45.4588235 78.1476316,48.6588235 L78.1476316,55.6705882 L75.8865789,55.6705882 L75.8865789,54.5882353 L75.8865789,54.5882353 L75.8865789,54.5882353 Z M71.4586842,52.4705882 C71.4586842,53.3176471 72.1181579,53.6 73.1073684,53.6 C74.8973684,53.6 75.5568421,52.8 75.5568421,51.9529412 L75.5568421,50.0235294 L75.5097368,50.0235294 C75.3684211,50.2588235 75.3213158,50.5411765 73.1544737,51.0588235 C71.6,51.4823529 71.4586842,52 71.4586842,52.4705882 L71.4586842,52.4705882 Z" id="Shape"></path>
                <path d="M80.4086842,44.5647059 L82.9994737,44.5647059 L82.9994737,45.7411765 L83.0465789,45.7411765 C83.4705263,44.9411765 84.3655263,44.3764706 85.3076316,44.3764706 C85.6373684,44.3764706 85.9671053,44.4235294 86.2968421,44.5647059 L85.8728947,47.2 C85.5902632,47.1058824 85.3076316,47.0117647 85.025,47.0117647 C83.8473684,47.0117647 83.1407895,47.7647059 83.1407895,49.5529412 L83.1407895,55.6235294 L80.4086842,55.6235294 L80.4086842,44.5647059 L80.4086842,44.5647059 L80.4086842,44.5647059 Z" id="Shape"></path>
                <path d="M96.5657895,53.5058824 C95.6236842,54.8235294 94.3047368,55.9529412 91.9965789,55.9529412 C88.9347368,55.9529412 86.7678947,53.6941176 86.7678947,50.1176471 C86.7678947,46.5411765 89.0289474,44.2823529 91.9023684,44.2823529 C94.7757895,44.2823529 96.9897368,46.5411765 96.9897368,50.1176471 L96.9897368,50.9176471 L89.5471053,50.9176471 C89.6413158,52.6117647 90.4892105,53.5529412 91.9965789,53.5529412 C93.4097368,53.5529412 94.1634211,52.6117647 94.7286842,51.8117647 L96.5657895,53.5058824 L96.5657895,53.5058824 Z M94.3047368,48.8941176 C94.1634211,47.4823529 93.3155263,46.6352941 91.8552632,46.6352941 C90.4892105,46.6352941 89.5942105,47.6705882 89.5,48.8941176 L94.3047368,48.8941176 L94.3047368,48.8941176 Z" id="Shape"></path>
                <path d="M110.697368,54.5882353 L110.697368,54.5882353 C110.650263,54.5882353 109.896579,55.9529412 107.635526,55.9529412 C104.762105,55.9529412 103.631579,54.3529412 103.631579,52.6588235 C103.631579,50.6823529 104.762105,49.8823529 107.4,49.2235294 C110.037895,48.5647059 110.273421,48.3294118 110.273421,47.7176471 C110.273421,47.1058824 109.708158,46.5411765 108.389211,46.5411765 C106.740526,46.5411765 106.316579,47.4823529 106.033947,48.3764706 L103.772895,47.4352941 C104.243947,45.7411765 105.657105,44.2823529 108.342105,44.2823529 C110.838684,44.2823529 112.958421,45.4588235 112.958421,48.6588235 L112.958421,55.6705882 L110.697368,55.6705882 L110.697368,54.5882353 L110.697368,54.5882353 Z M106.269474,52.4705882 C106.269474,53.3176471 106.928947,53.6 107.918158,53.6 C109.708158,53.6 110.367632,52.8 110.367632,51.9529412 L110.367632,50.0235294 L110.320526,50.0235294 C110.179211,50.2588235 110.132105,50.5411765 107.965263,51.0588235 C106.410789,51.4823529 106.269474,52 106.269474,52.4705882 L106.269474,52.4705882 Z" id="Shape"></path>
                <path d="M115.737632,46.8705882 L114.041842,46.8705882 L114.041842,44.5647059 L115.831842,44.5647059 L115.831842,41.8352941 L118.422632,41.8352941 L118.422632,44.5647059 L121.201842,44.5647059 L121.201842,46.8705882 L118.422632,46.8705882 L118.422632,51.4352941 C118.422632,52.5647059 118.658158,53.0352941 119.93,53.0352941 L120.825,53.0352941 L120.825,55.6705882 L119.694474,55.6705882 C116.585526,55.6705882 115.784737,54.3529412 115.784737,51.7176471 L115.737632,46.8705882 L115.737632,46.8705882 L115.737632,46.8705882 L115.737632,46.8705882 Z" id="Shape"></path>
                <path d="M128.503158,40.3764706 L131.235263,40.3764706 L131.235263,45.6 L131.282368,45.6 C131.706316,44.8941176 132.836842,44.2352941 133.967368,44.2352941 C136.322632,44.2352941 137.83,45.7882353 137.83,48.2352941 L137.83,55.6235294 L135.097895,55.6235294 L135.097895,48.8470588 C135.097895,47.7176471 134.532632,46.7294118 133.119474,46.7294118 C131.800526,46.7294118 131.188158,47.5764706 131.188158,48.6588235 L131.188158,55.6235294 L128.456053,55.6235294 L128.503158,40.3764706 L128.503158,40.3764706 L128.503158,40.3764706 Z" id="Shape"></path>
                <path d="M139.525789,50.1176471 C139.525789,46.3529412 141.975263,44.2823529 144.707368,44.2823529 C147.486579,44.2823529 149.888947,46.3529412 149.888947,50.1176471 C149.888947,53.8823529 147.627895,55.9529412 144.707368,55.9529412 C141.739737,55.9529412 139.525789,53.8823529 139.525789,50.1176471 L139.525789,50.1176471 Z M147.156842,50.1176471 C147.156842,47.9058824 146.120526,46.7294118 144.660263,46.7294118 C143.152895,46.7294118 142.163684,47.8588235 142.163684,50.1176471 C142.163684,52.3764706 143.152895,53.5058824 144.660263,53.5058824 C146.167632,53.5058824 147.156842,52.3294118 147.156842,50.1176471 L147.156842,50.1176471 Z" id="Shape"></path>
                <path d="M151.584737,44.5647059 L154.081316,44.5647059 L154.081316,45.6470588 L154.128421,45.6470588 C154.599474,44.8941176 155.635789,44.2823529 156.813421,44.2823529 C157.991053,44.2823529 159.121579,44.8941176 159.639737,45.7411765 L159.686842,45.7411765 C160.252105,44.9411765 161.288421,44.2823529 162.560263,44.2823529 C165.245263,44.2823529 166.846842,45.8352941 166.846842,48.0941176 L166.846842,55.6705882 L164.350263,55.6705882 L164.350263,48.6588235 C164.350263,47.6705882 163.832105,46.7764706 162.418947,46.7764706 C161.147105,46.7764706 160.534737,47.5294118 160.534737,48.4705882 L160.534737,55.6235294 L158.038158,55.6235294 L158.038158,48.6117647 C158.038158,47.6235294 157.425789,46.7294118 156.106842,46.7294118 C154.787895,46.7294118 154.222632,47.4823529 154.222632,48.4235294 L154.222632,55.5764706 L151.584737,55.5764706 L151.584737,44.5647059 L151.584737,44.5647059 L151.584737,44.5647059 Z" id="Shape"></path>
                <path d="M178.434737,53.5058824 C177.492632,54.8235294 176.173684,55.9529412 173.865526,55.9529412 C170.803684,55.9529412 168.636842,53.6941176 168.636842,50.1176471 C168.636842,46.5411765 170.897895,44.2823529 173.771316,44.2823529 C176.644737,44.2823529 178.858684,46.5411765 178.858684,50.1176471 L178.858684,50.9176471 L171.416053,50.9176471 C171.510263,52.6117647 172.358158,53.5529412 173.865526,53.5529412 C175.278684,53.5529412 176.032368,52.6117647 176.597632,51.8117647 L178.434737,53.5058824 L178.434737,53.5058824 Z M176.173684,48.8941176 C176.032368,47.4823529 175.184474,46.6352941 173.724211,46.6352941 C172.358158,46.6352941 171.463158,47.6705882 171.368947,48.8941176 L176.173684,48.8941176 L176.173684,48.8941176 Z" id="Shape"></path>
                <path d="M129.869211,0 C123.839737,0 118.987895,4.84705882 118.987895,10.8705882 C118.987895,11.9529412 119.129211,12.9882353 119.458947,13.9764706 C120.730789,18.8705882 126.430526,27.7647059 129.162632,31.0117647 L129.209737,31.0588235 L129.209737,31.0588235 C129.256842,31.1058824 129.256842,31.1058824 129.303947,31.1058824 C129.492368,31.2470588 129.680789,31.2941176 129.916316,31.2941176 C130.151842,31.2941176 130.340263,31.2 130.528684,31.1058824 C130.575789,31.1058824 130.575789,31.0588235 130.622895,31.0588235 L130.622895,31.0588235 C130.622895,31.0588235 130.67,31.0588235 130.67,31.0117647 C133.449211,27.6705882 139.101842,18.8235294 140.373684,13.9764706 C140.656316,12.9882353 140.797632,11.9529412 140.797632,10.8705882 C140.750526,4.89411765 135.851579,0 129.869211,0 L129.869211,0 Z M129.869211,18.0235294 C125.912368,18.0235294 122.709211,14.8235294 122.709211,10.8705882 C122.709211,6.91764706 125.912368,3.71764706 129.869211,3.71764706 C133.826053,3.71764706 137.029211,6.91764706 137.029211,10.8705882 C137.029211,14.8235294 133.778947,18.0235294 129.869211,18.0235294 L129.869211,18.0235294 Z" id="Shape"></path>
                <path d="M133.213684,9.41176471 L131.329474,9.41176471 L131.329474,7.52941176 C131.329474,7.15294118 130.999737,6.82352941 130.622895,6.82352941 L129.162632,6.82352941 C128.785789,6.82352941 128.456053,7.15294118 128.456053,7.52941176 L128.456053,9.41176471 L126.571842,9.41176471 C126.195,9.41176471 125.865263,9.74117647 125.865263,10.1176471 L125.865263,11.5764706 C125.865263,11.9529412 126.195,12.2823529 126.571842,12.2823529 L128.456053,12.2823529 L128.456053,14.1647059 C128.456053,14.5411765 128.785789,14.8705882 129.162632,14.8705882 L130.622895,14.8705882 C130.999737,14.8705882 131.329474,14.5411765 131.329474,14.1647059 L131.329474,12.2823529 L133.213684,12.2823529 C133.590526,12.2823529 133.920263,11.9529412 133.920263,11.5764706 L133.920263,10.1176471 C133.873158,9.74117647 133.543421,9.41176471 133.213684,9.41176471 L133.213684,9.41176471 Z" id="Shape"></path>
                <path d="M59.6352632,61.6941176 L61.0013158,61.6941176 L61.0013158,62.9647059 L59.6352632,62.9647059 L59.6352632,61.6941176 L59.6352632,61.6941176 Z M59.6352632,63.7647059 L61.0013158,63.7647059 L61.0013158,69.2705882 L59.6352632,69.2705882 L59.6352632,63.7647059 L59.6352632,63.7647059 Z" id="Shape"></path>
                <path d="M62.6028947,64.9411765 L61.755,64.9411765 L61.755,63.8117647 L62.65,63.8117647 L62.65,62.4470588 L63.9218421,62.4470588 L63.9218421,63.8117647 L65.335,63.8117647 L65.335,64.9411765 L63.9689474,64.9411765 L63.9689474,67.2 C63.9689474,67.7647059 64.0631579,68 64.7226316,68 L65.1465789,68 L65.1465789,69.3176471 L64.5813158,69.3176471 C63.0268421,69.3176471 62.65,68.6588235 62.65,67.3411765 L62.6028947,64.9411765 L62.6028947,64.9411765 L62.6028947,64.9411765 Z" id="Shape"></path>
                <path d="M66.4655263,64.1882353 C66.9365789,64.0941176 66.9836842,63.9058824 66.9836842,63.4823529 L66.4655263,63.4823529 L66.4655263,62.0235294 L68.02,62.0235294 L68.02,63.3411765 C68.02,64.1882353 67.5960526,64.8 66.4655263,64.8941176 L66.4655263,64.1882353 L66.4655263,64.1882353 Z" id="Shape"></path>
                <path d="M69.6215789,67.1529412 C69.7157895,67.9058824 70.1397368,68.2823529 70.8463158,68.2823529 C71.5057895,68.2823529 71.9297368,68.0470588 71.9297368,67.6705882 C71.9297368,67.2941176 71.5528947,67.2470588 70.4223684,66.9176471 C69.1976316,66.5882353 68.5852632,66.1647059 68.5852632,65.3176471 C68.5852632,64.4705882 69.2918421,63.6235294 70.6578947,63.6235294 C72.0239474,63.6235294 72.6834211,64.3294118 72.9660526,65.2235294 L71.8355263,65.5529412 C71.6471053,65.0823529 71.4115789,64.7058824 70.6578947,64.7058824 C70.0926316,64.7058824 69.81,64.9411765 69.81,65.2235294 C69.81,65.5529412 69.9984211,65.6 71.4586842,66.0235294 C72.8247368,66.4 73.1073684,66.9176471 73.1073684,67.7176471 C73.1073684,68.4705882 72.4478947,69.4117647 70.8463158,69.4117647 C69.1976316,69.4117647 68.4910526,68.3764706 68.3497368,67.4352941 L69.6215789,67.1529412 L69.6215789,67.1529412 Z" id="Shape"></path>
                <polygon id="Shape" points="76.3576316 63.7647059 77.6765789 63.7647059 78.3831579 67.4352941 78.4302632 67.4352941 79.655 63.7647059 80.8797368 63.7647059 82.0102632 67.4352941 82.0102632 67.4352941 82.8581579 63.7647059 84.1771053 63.7647059 82.8581579 69.2705882 81.5392105 69.2705882 80.2673684 65.3176471 80.2673684 65.3176471 78.9013158 69.2705882 77.5823684 69.2705882"></polygon>
                <path d="M85.2134211,61.6941176 L86.5794737,61.6941176 L86.5794737,64.2823529 L86.5794737,64.2823529 C86.7678947,63.9529412 87.3331579,63.5764706 87.8984211,63.5764706 C89.0760526,63.5764706 89.8297368,64.3764706 89.8297368,65.5529412 L89.8297368,69.2235294 L88.4636842,69.2235294 L88.4636842,65.8823529 C88.4636842,65.3176471 88.1810526,64.8470588 87.4744737,64.8470588 C86.815,64.8470588 86.5323684,65.2705882 86.5323684,65.7882353 L86.5323684,69.2235294 L85.1663158,69.2235294 L85.2134211,61.6941176 L85.2134211,61.6941176 L85.2134211,61.6941176 Z" id="Shape"></path>
                <path d="M95.7178947,68.2352941 C95.2468421,68.8941176 94.5873684,69.4588235 93.4568421,69.4588235 C91.9494737,69.4588235 90.8660526,68.3294118 90.8660526,66.5411765 C90.8660526,64.7529412 91.9965789,63.6235294 93.4097368,63.6235294 C94.8228947,63.6235294 95.9534211,64.7529412 95.9534211,66.5411765 L95.9534211,66.9647059 L92.2321053,66.9647059 C92.2792105,67.8117647 92.7031579,68.2823529 93.4568421,68.2823529 C94.1634211,68.2823529 94.5402632,67.8117647 94.8228947,67.4352941 L95.7178947,68.2352941 L95.7178947,68.2352941 Z M94.5873684,65.9294118 C94.5402632,65.2235294 94.1163158,64.8 93.3626316,64.8 C92.6560526,64.8 92.2321053,65.3176471 92.185,65.9294118 L94.5873684,65.9294118 L94.5873684,65.9294118 Z" id="Shape"></path>
                <path d="M96.9426316,63.7647059 L98.2144737,63.7647059 L98.2144737,64.3294118 L98.2144737,64.3294118 C98.4028947,63.9058824 98.8739474,63.6235294 99.345,63.6235294 C99.5334211,63.6235294 99.6747368,63.6705882 99.8631579,63.7176471 L99.6747368,65.0352941 C99.5334211,64.9882353 99.3921053,64.9411765 99.2507895,64.9411765 C98.6855263,64.9411765 98.3086842,65.3176471 98.3086842,66.2117647 L98.3086842,69.2235294 L96.9426316,69.2235294 L96.9426316,63.7647059 L96.9426316,63.7647059 L96.9426316,63.7647059 Z" id="Shape"></path>
                <path d="M105.091842,68.2352941 C104.620789,68.8941176 103.961316,69.4588235 102.830789,69.4588235 C101.323421,69.4588235 100.24,68.3294118 100.24,66.5411765 C100.24,64.7529412 101.370526,63.6235294 102.783684,63.6235294 C104.196842,63.6235294 105.327368,64.7529412 105.327368,66.5411765 L105.327368,66.9647059 L101.606053,66.9647059 C101.653158,67.8117647 102.077105,68.2823529 102.830789,68.2823529 C103.537368,68.2823529 103.914211,67.8117647 104.196842,67.4352941 L105.091842,68.2352941 L105.091842,68.2352941 Z M104.008421,65.9294118 C103.961316,65.2235294 103.537368,64.8 102.783684,64.8 C102.077105,64.8 101.653158,65.3176471 101.606053,65.9294118 L104.008421,65.9294118 L104.008421,65.9294118 Z" id="Shape"></path>
                <polygon id="Shape" points="110.508947 69.0352941 108.295 63.8117647 109.661053 63.8117647 111.074211 67.5294118 111.074211 67.5294118 112.487368 63.8117647 113.853421 63.8117647 110.697368 71.6705882 109.378421 71.6705882"></polygon>
                <path d="M114.230263,66.5411765 C114.230263,64.6588235 115.455,63.6235294 116.821053,63.6235294 C118.187105,63.6235294 119.411842,64.6588235 119.411842,66.5411765 C119.411842,68.4235294 118.281316,69.4588235 116.821053,69.4588235 C115.360789,69.4588235 114.230263,68.4235294 114.230263,66.5411765 L114.230263,66.5411765 Z M118.045789,66.5411765 C118.045789,65.4588235 117.527632,64.8470588 116.821053,64.8470588 C116.114474,64.8470588 115.596316,65.4117647 115.596316,66.5411765 C115.596316,67.6705882 116.067368,68.2352941 116.821053,68.2352941 C117.574737,68.2352941 118.045789,67.6235294 118.045789,66.5411765 L118.045789,66.5411765 Z" id="Shape"></path>
                <path d="M120.212632,63.7647059 L121.578684,63.7647059 L121.578684,67.1529412 C121.578684,67.8588235 121.861316,68.0941176 122.426579,68.0941176 C123.038947,68.0941176 123.51,67.8117647 123.51,67.0117647 L123.51,63.7176471 L124.876053,63.7176471 L124.876053,69.2235294 L123.557105,69.2235294 L123.557105,68.7058824 L123.557105,68.7058824 C123.368684,68.9411765 122.897632,69.4117647 122.143947,69.4117647 C120.825,69.4117647 120.259737,68.5176471 120.259737,67.2941176 L120.212632,63.7647059 L120.212632,63.7647059 L120.212632,63.7647059 L120.212632,63.7647059 Z" id="Shape"></path>
                <polygon id="Shape" points="128.503158 63.7647059 129.822105 63.7647059 130.528684 67.4352941 130.575789 67.4352941 131.800526 63.7647059 133.025263 63.7647059 134.155789 67.4352941 134.155789 67.4352941 135.003684 63.7647059 136.322632 63.7647059 135.003684 69.2705882 133.684737 69.2705882 132.412895 65.3176471 132.412895 65.3176471 131.046842 69.2705882 129.727895 69.2705882"></polygon>
                <path d="M140.279474,68.7529412 L140.279474,68.7529412 C140.279474,68.7529412 139.855526,69.4588235 138.772105,69.4588235 C137.358947,69.4588235 136.793684,68.6588235 136.793684,67.8117647 C136.793684,66.8235294 137.358947,66.4 138.677895,66.1176471 C139.996842,65.7882353 140.091053,65.6941176 140.091053,65.3647059 C140.091053,65.0352941 139.808421,64.8 139.148947,64.8 C138.348158,64.8 138.112632,65.2705882 137.971316,65.6941176 L136.840789,65.2235294 C137.076316,64.3764706 137.782895,63.6235294 139.101842,63.6235294 C140.326579,63.6235294 141.41,64.2352941 141.41,65.7882353 L141.41,69.2705882 L140.279474,69.2705882 L140.279474,68.7529412 L140.279474,68.7529412 L140.279474,68.7529412 Z M138.112632,67.7176471 C138.112632,68.1411765 138.442368,68.2823529 138.913421,68.2823529 C139.808421,68.2823529 140.138158,67.8588235 140.138158,67.4823529 L140.138158,66.5411765 L140.138158,66.5411765 C140.091053,66.6352941 140.043947,66.7764706 138.960526,67.0588235 C138.159737,67.2 138.112632,67.4823529 138.112632,67.7176471 L138.112632,67.7176471 Z" id="Shape"></path>
                <path d="M142.681842,63.7647059 L144.000789,63.7647059 L144.000789,64.2823529 L144.000789,64.2823529 C144.283421,63.9058824 144.848684,63.5764706 145.461053,63.5764706 C146.685789,63.5764706 147.392368,64.3294118 147.392368,65.6470588 L147.392368,69.2705882 L146.026316,69.2705882 L146.026316,66.0235294 C146.026316,65.3176471 145.790789,64.8941176 145.037105,64.8941176 C144.377632,64.8941176 144.000789,65.3176471 144.000789,65.9294118 L144.000789,69.2705882 L142.634737,69.2705882 L142.681842,63.7647059 L142.681842,63.7647059 L142.681842,63.7647059 Z" id="Shape"></path>
                <path d="M148.993947,64.9411765 L148.146053,64.9411765 L148.146053,63.8117647 L149.041053,63.8117647 L149.041053,62.4470588 L150.312895,62.4470588 L150.312895,63.8117647 L151.726053,63.8117647 L151.726053,64.9411765 L150.36,64.9411765 L150.36,67.2 C150.36,67.7647059 150.454211,68 151.113684,68 L151.537632,68 L151.537632,69.3176471 L150.972368,69.3176471 C149.417895,69.3176471 149.041053,68.6588235 149.041053,67.3411765 L148.993947,64.9411765 L148.993947,64.9411765 L148.993947,64.9411765 L148.993947,64.9411765 Z" id="Shape"></path>
                <path d="M155.824211,64.9411765 L154.976316,64.9411765 L154.976316,63.8117647 L155.871316,63.8117647 L155.871316,62.4470588 L157.143158,62.4470588 L157.143158,63.8117647 L158.556316,63.8117647 L158.556316,64.9411765 L157.190263,64.9411765 L157.190263,67.2 C157.190263,67.7647059 157.284474,68 157.943947,68 L158.367895,68 L158.367895,69.3176471 L157.802632,69.3176471 C156.248158,69.3176471 155.871316,68.6588235 155.871316,67.3411765 L155.824211,64.9411765 L155.824211,64.9411765 L155.824211,64.9411765 L155.824211,64.9411765 Z" id="Shape"></path>
                <path d="M159.121579,66.5411765 C159.121579,64.6588235 160.346316,63.6235294 161.712368,63.6235294 C163.078421,63.6235294 164.303158,64.6588235 164.303158,66.5411765 C164.303158,68.4235294 163.172632,69.4588235 161.712368,69.4588235 C160.252105,69.4588235 159.121579,68.4235294 159.121579,66.5411765 L159.121579,66.5411765 Z M163.031316,66.5411765 C163.031316,65.4588235 162.513158,64.8470588 161.806579,64.8470588 C161.052895,64.8470588 160.581842,65.4117647 160.581842,66.5411765 C160.581842,67.6705882 161.052895,68.2352941 161.806579,68.2352941 C162.466053,68.2352941 163.031316,67.6235294 163.031316,66.5411765 L163.031316,66.5411765 Z" id="Shape"></path>
                <path d="M167.506316,61.6941176 L168.872368,61.6941176 L168.872368,64.2823529 L168.872368,64.2823529 C168.872368,64.2823529 169.296316,63.5764706 170.285526,63.5764706 C171.604474,63.5764706 172.640789,64.7058824 172.640789,66.4941176 C172.640789,68.2823529 171.698684,69.4117647 170.238421,69.4117647 C169.249211,69.4117647 168.778158,68.7058824 168.778158,68.7058824 L168.778158,68.7058824 L168.778158,69.2235294 L167.506316,69.2235294 L167.506316,61.6941176 L167.506316,61.6941176 L167.506316,61.6941176 Z M168.825263,67.0117647 C168.825263,67.6235294 169.249211,68.1882353 170.002895,68.1882353 C170.756579,68.1882353 171.227632,67.6235294 171.227632,66.4941176 C171.227632,65.3647059 170.756579,64.8 170.002895,64.8 C169.249211,64.8 168.825263,65.3647059 168.825263,65.9764706 L168.825263,67.0117647 L168.825263,67.0117647 Z" id="Shape"></path>
                <path d="M178.246316,68.2352941 C177.775263,68.8941176 177.115789,69.4588235 175.985263,69.4588235 C174.477895,69.4588235 173.394474,68.3294118 173.394474,66.5411765 C173.394474,64.7529412 174.525,63.6235294 175.938158,63.6235294 C177.351316,63.6235294 178.481842,64.7529412 178.481842,66.5411765 L178.481842,66.9647059 L174.760526,66.9647059 C174.807632,67.8117647 175.231579,68.2823529 175.985263,68.2823529 C176.691842,68.2823529 177.068684,67.8117647 177.351316,67.4352941 L178.246316,68.2352941 L178.246316,68.2352941 Z M177.115789,65.9294118 C177.068684,65.2235294 176.644737,64.8 175.891053,64.8 C175.184474,64.8 174.760526,65.3176471 174.713421,65.9294118 L177.115789,65.9294118 L177.115789,65.9294118 Z" id="Shape"></path>
            </g>
        </g>
    </g>
</svg>