<?xml version="1.0" encoding="UTF-8" standalone="no"?>
<svg width="172px" height="28px" viewBox="0 0 172 28" version="1.1" xmlns="http://www.w3.org/2000/svg" xmlns:xlink="http://www.w3.org/1999/xlink">
    <!-- Generator: Sketch 40.3 (33839) - http://www.bohemiancoding.com/sketch -->
    <title>homeserve</title>
    <desc>Created with Sketch.</desc>
    <defs></defs>
    <g id="Page-1" stroke="none" stroke-width="1" fill="none" fill-rule="evenodd">
        <g id="Artboard" transform="translate(-305.000000, -373.000000)" fill="#797C7B">
            <g id="homeserve" transform="translate(305.000000, 373.000000)">
                <path d="M41.3711304,18.0439893 C41.3714445,15.8478923 41.3876735,13.6515894 41.3651623,11.4556983 C41.3522838,10.1985354 41.9346435,9.33125676 43.0416714,8.77829454 C44.1295387,8.23500993 45.308393,8.00079116 46.509968,7.88218895 C48.5140937,7.68451859 50.5491069,7.54563458 52.4551257,8.27207312 C53.543307,8.68676905 54.4357979,8.622938 55.5348684,8.31840211 C58.2178902,7.57518218 60.9744138,7.44824075 63.684868,8.26692546 C65.4246179,8.79239914 66.8081672,9.78054499 67.421205,11.5705942 C67.5605651,11.9776715 67.6540651,12.3960738 67.6540651,12.8298161 C67.653751,16.8445833 67.6566827,20.8593505 67.651971,24.8741177 C67.6507146,25.9224912 66.9170586,26.7558982 65.9200739,26.8734709 C64.8961804,26.9941322 63.9700797,26.4100781 63.7068557,25.4682612 C63.6233024,25.1694907 63.6091675,24.8608367 63.6105286,24.5503295 C63.6268623,20.8282586 63.6278047,17.1059817 63.6660214,13.3841167 C63.6723036,12.7676323 63.411383,12.4233564 62.8829454,12.1920203 C62.3028892,11.9380345 61.691422,11.7923556 61.0650869,11.7502477 C59.7204872,11.6599576 58.3827979,11.7377903 57.0529614,11.9710825 C56.6572877,12.0404731 56.5245239,12.1960355 56.5263038,12.6067163 C56.5434752,16.6556639 56.5394964,20.7048176 56.5349942,24.7538682 C56.5332142,26.2987855 55.1776207,27.2796217 53.7785753,26.760737 C52.9625179,26.4581573 52.487479,25.7174082 52.4868508,24.7176286 C52.4841285,20.9431545 52.4690512,17.1684744 52.5017187,13.3941032 C52.507582,12.721818 52.2181821,12.3808367 51.6495386,12.1521774 C50.2602306,11.5935527 48.8104041,11.6884757 47.3648704,11.7771185 C46.8794659,11.806975 46.3998202,11.9183704 45.9151486,11.9712884 C45.4936132,12.0173086 45.3542531,12.1981975 45.3565565,12.6387347 C45.3770784,16.7220688 45.372995,20.8055059 45.3661892,24.88884 C45.3638858,26.3408934 43.9500772,27.2847694 42.6047446,26.7502358 C41.8605136,26.4544509 41.3741668,25.7540596 41.3724915,24.9411403 C41.3677799,22.64209 41.3708163,20.3430396 41.3711304,18.0439893" id="Fill-1"></path>
                <path d="M19.4020761,13.6658381 C19.4020761,17.3547581 19.4025996,21.0436781 19.4018667,24.7325981 C19.4015526,26.049062 18.6320881,26.8856606 17.4224509,26.8889551 C16.19826,26.8923525 15.4057608,26.0351633 15.4051326,24.6989323 C15.4034573,21.4389158 15.3956046,18.1788993 15.4152888,14.9190887 C15.4179064,14.4836992 15.2924718,14.3866142 14.8643401,14.3888792 C11.5315295,14.406999 8.19861433,14.406999 4.86590852,14.389291 C4.42594528,14.3869231 4.27559135,14.4647558 4.27915126,14.9418414 C4.30386124,18.2188452 4.2962179,21.4960549 4.28920278,24.7731617 C4.28616638,26.1920641 3.15945425,27.1337781 1.82228849,26.856113 C0.884146989,26.6613253 0.272156242,25.8606574 0.271632726,24.8114603 C0.26985277,20.4190604 0.270585693,16.0267634 0.270899803,11.6343634 C0.271213913,8.5459701 0.267758704,5.45757677 0.275611451,2.36918344 C0.27812433,1.41645352 0.840695123,0.6672623 1.69287522,0.427792905 C2.54170482,0.189147137 3.46916659,0.51664161 3.94734653,1.23360845 C4.21433992,1.63399386 4.29475205,2.08348801 4.29391443,2.55738208 C4.28951689,5.01096532 4.3027095,7.46454856 4.28114062,9.91792589 C4.27737131,10.3528007 4.40793631,10.4559599 4.836801,10.4537979 C8.18688756,10.4366047 11.5372882,10.4377371 14.8874795,10.4527683 C15.2911107,10.4546215 15.4172782,10.356507 15.4141371,9.94459079 C15.3950811,7.40545336 15.3990598,4.86600706 15.4086925,2.32666372 C15.4119383,1.45578169 15.9268691,0.757655304 16.7293151,0.468562415 C17.5151133,0.185543772 18.417551,0.42418954 18.9582388,1.05992622 C19.2864836,1.44589817 19.4082536,1.88911216 19.4069971,2.39327451 C19.3978879,6.15076139 19.4020761,9.90835123 19.4020761,13.6658381" id="Fill-3"></path>
                <path d="M125.117222,19.3322441 C125.117326,17.6850941 125.117117,16.0380471 125.117326,14.3908971 C125.11764,11.5962295 126.431876,9.67738578 129.076367,8.62921815 C131.193677,7.78994278 133.413073,7.6644427 135.657493,7.76368969 C136.40476,7.7967377 137.154017,7.84224306 137.888406,8.01644006 C138.920361,8.26126303 139.592347,8.84284626 139.936821,9.85868655 C141.413347,14.2117583 142.919923,18.5550495 144.421577,22.899885 C144.468903,23.0368129 144.463773,23.2691786 144.636009,23.279165 C144.865414,23.292549 144.833899,23.0334155 144.884784,22.8913399 C146.503393,18.3689099 148.119383,13.8455534 149.719983,9.31684329 C149.986138,8.56363689 150.431337,8.01654301 151.234097,7.83102115 C152.009529,7.65177944 152.694498,7.86170124 153.219062,8.45574182 C153.74394,9.05009127 153.842256,9.73874595 153.570237,10.47723 C152.864746,12.3924704 152.155695,14.3065783 151.452089,16.2225394 C150.494054,18.8313762 149.539265,21.4413455 148.584266,24.0512119 C148.070382,25.455495 147.231918,26.5707882 145.725133,27.0449911 C144.135842,27.5452412 142.513255,26.9644816 141.550927,25.5860398 C140.750051,24.439037 140.35019,23.1189697 139.89494,21.8255673 C138.755873,18.589333 137.629265,15.3486717 136.504333,12.1074957 C136.419837,11.8639081 136.337017,11.6843576 136.025211,11.6694293 C134.363674,11.5898464 132.709362,11.584184 131.11159,12.1295277 C129.613286,12.6409997 129.114584,13.3405674 129.114584,14.8752924 C129.114479,18.2038758 129.115107,21.5323562 129.113642,24.8609396 C129.113327,25.6487384 128.768749,26.2601781 128.069226,26.6368842 C127.390644,27.0022655 126.68976,26.9781744 126.028978,26.5745975 C125.42128,26.2034508 125.115442,25.653989 125.116384,24.9426846 C125.118583,23.0725377 125.117117,21.2023909 125.117222,19.3322441" id="Fill-5"></path>
                <path d="M92.7814838,27.0586633 C91.6139374,27.0586633 90.4452392,27.0882109 89.2790539,27.0493975 C88.3278245,27.0177909 87.6157374,26.5541921 87.2581757,25.665808 C86.937993,24.8703908 87.1759836,24.01001 87.8502728,23.423485 C88.3180871,23.0166135 88.8691405,22.8716552 89.4961039,22.929412 C91.6494318,23.1275972 93.8082043,23.2645251 95.970432,23.1661017 C97.0243753,23.1181255 98.0253388,22.8058681 98.9326975,22.2494054 C100.92918,21.0249818 100.942791,18.6544818 98.9542664,17.4172919 C97.6888224,16.629905 96.2409853,16.3669623 94.8109477,16.0627353 C92.8132089,15.637641 90.9444645,14.9559872 89.322087,13.6747333 C86.0110548,11.0598222 86.2265341,4.96261845 90.6017706,2.87606375 C92.2699035,2.08054354 94.031327,1.74347441 95.8579806,1.70043993 C97.5307204,1.66090586 99.2077531,1.6389768 100.87442,1.82902861 C102.254724,1.98644422 102.997593,2.81614493 102.938436,4.07166052 C102.889016,5.12374037 101.922081,5.94963181 100.643445,5.94777865 C98.9523818,5.94530777 97.2615283,5.88116786 95.5704654,5.85316456 C94.6893872,5.83854519 93.833019,5.9805178 93.0216731,6.32973542 C92.0007113,6.76914014 91.3550061,7.48178294 91.2883101,8.62713849 C91.2232894,9.74407893 91.8147583,10.4720618 92.7251534,11.0057717 C93.8381494,11.6581868 95.0957407,11.8879786 96.3384641,12.1493771 C98.0142403,12.5017862 99.6442611,12.9628112 101.148219,13.8089844 C105.642922,16.3381354 105.351428,21.879906 102.915401,24.3567567 C101.462643,25.8339308 99.634419,26.5659288 97.6336438,26.9768154 C96.0250871,27.3071926 94.3996732,27.1297011 92.782112,27.187355 C92.7819026,27.1444234 92.7816932,27.1015949 92.7814838,27.0586633" id="Fill-7"></path>
                <path d="M78.6176291,15.841166 C80.1327904,15.841166 81.6481612,15.8273702 83.1629037,15.8502258 C83.576377,15.856403 83.7254745,15.7531409 83.6512399,15.3370036 C83.3626776,13.7191953 82.5430602,12.4918889 80.9399481,11.9080407 C79.2511887,11.2928947 77.5481897,11.3657856 75.9107349,12.0942833 C74.4881312,12.7271372 73.7828498,13.8934953 73.5824477,15.3916718 C73.5328184,15.7629214 73.6554259,15.8537263 74.0200028,15.8495052 C75.5523355,15.8317972 77.085087,15.8419896 78.6176291,15.841166 M79.8081055,19.7245647 C77.9240745,19.7242559 76.039834,19.7400077 74.1563265,19.7132399 C73.6761572,19.7064449 73.6023414,19.8599483 73.6953179,20.2740265 C73.9378107,21.3543156 74.5807936,22.1193616 75.5564189,22.6266126 C76.8388248,23.2934412 78.2350433,23.4550778 79.6576469,23.4883318 C80.9867505,23.5193207 82.3016145,23.386408 83.6164784,23.2044895 C84.6707359,23.0586047 85.6047939,23.7464357 85.8155617,24.7559958 C86.0085298,25.6809284 85.4571623,26.7459803 84.4958814,26.9270752 C81.1924925,27.549325 77.871304,27.789618 74.6783771,26.4438124 C71.9962976,25.3132821 70.5001922,23.1685588 69.8056953,20.4476058 C68.9919413,17.2595537 69.4799633,14.2400361 71.2369893,11.4631795 C72.8054446,8.98437268 75.2329904,7.93198397 78.120079,7.81811761 C80.1620027,7.73760812 82.1227812,8.05789586 83.8450457,9.23928507 C85.7949351,10.5768545 86.7381024,12.5249369 87.2027756,14.7383301 C87.4247466,15.7960724 87.5679807,16.8691547 87.4227572,17.9541796 C87.2743926,19.0636045 86.4994836,19.7231234 85.3553907,19.7243588 C83.5062258,19.7264179 81.6571657,19.7249765 79.8081055,19.7245647" id="Fill-9"></path>
                <path d="M163.016283,15.841166 C164.531445,15.841166 166.046816,15.8273702 167.561558,15.8502258 C167.975031,15.856403 168.124129,15.7531409 168.049894,15.3370036 C167.761332,13.7191953 166.941715,12.4918889 165.338602,11.9080407 C163.649843,11.2928947 161.946844,11.3657856 160.309389,12.0942833 C158.886786,12.7271372 158.181504,13.8934953 157.981102,15.3916718 C157.931473,15.7629214 158.05408,15.8537263 158.418657,15.8495052 C159.95099,15.8317972 161.483741,15.8419896 163.016283,15.841166 M164.20676,19.7245647 C162.322729,19.7242559 160.438488,19.7400077 158.554981,19.7132399 C158.074812,19.7064449 158.000996,19.8599483 158.093972,20.2740265 C158.336465,21.3543156 158.979448,22.1193616 159.955073,22.6266126 C161.237479,23.2934412 162.633698,23.4550778 164.056301,23.4883318 C165.385405,23.5193207 166.700269,23.386408 168.015133,23.2044895 C169.06939,23.0586047 170.003448,23.7464357 170.214216,24.7559958 C170.407184,25.6809284 169.855817,26.7459803 168.894536,26.9270752 C165.591147,27.549325 162.269958,27.789618 159.077031,26.4438124 C156.394952,25.3132821 154.898847,23.1685588 154.20435,20.4476058 C153.390596,17.2595537 153.878618,14.2400361 155.635644,11.4631795 C157.204099,8.98437268 159.631645,7.93198397 162.518733,7.81811761 C164.560657,7.73760812 166.521436,8.05789586 168.2437,9.23928507 C170.193589,10.5768545 171.136757,12.5249369 171.60143,14.7383301 C171.823401,15.7960724 171.966635,16.8691547 171.821412,17.9541796 C171.673047,19.0636045 170.898138,19.7231234 169.754045,19.7243588 C167.90488,19.7264179 166.05582,19.7249765 164.20676,19.7245647" id="Fill-9-Copy"></path>
                <path d="M114.86967,15.6630293 C116.439172,15.6630293 118.00857,15.6642648 119.578072,15.6613821 C119.77282,15.6610732 120.002434,15.7313903 119.955004,15.3668327 C119.759104,13.8624789 119.089317,12.6617345 117.695193,11.9360166 C116.404515,11.2641433 115.016882,11.2232709 113.618884,11.4680938 C111.471001,11.8442852 110.194353,13.1006245 109.873542,15.0781516 C109.80915,15.4749336 109.833546,15.6939153 110.370988,15.6786782 C111.869501,15.6362615 113.370004,15.6639559 114.86967,15.6630293 M116.065695,19.5462222 C114.164179,19.5461193 112.262558,19.5574441 110.36125,19.5370594 C109.955002,19.5327353 109.893331,19.6735754 109.962854,20.0161011 C110.280943,21.5835652 111.372475,22.408736 112.821045,22.8525677 C114.934586,23.500144 117.090426,23.3808211 119.247524,23.1118041 C119.489493,23.0816388 119.729368,23.0289267 119.97207,23.0112187 C120.991043,22.9372983 121.903218,23.6020678 122.090427,24.5454289 C122.289364,25.5474735 121.726898,26.4851722 120.708763,26.7814718 C119.629586,27.0954794 118.509051,27.1343958 117.394485,27.1668261 C115.807811,27.2128462 114.21852,27.2408495 112.660849,26.8540539 C109.372537,26.0374283 107.201514,24.0242793 106.261174,20.8368449 C105.101166,16.9047492 105.712738,13.2530983 108.472508,10.1026241 C109.832708,8.54977938 111.698207,7.87265547 113.746413,7.68908972 C116.02528,7.48493331 118.219756,7.75024399 120.143888,9.07484125 C122.202355,10.4920965 123.142067,12.5787541 123.553551,14.9351494 C123.724532,15.9142354 123.870488,16.9039256 123.679928,17.899484 C123.478898,18.9501226 122.756759,19.5405598 121.665541,19.544472 C119.798891,19.551164 117.932241,19.5463252 116.065695,19.5462222" id="Fill-11"></path>
                <path d="M24.5721572,17.5503694 C24.5877579,17.8545964 24.5969718,18.2147271 24.6262888,18.5733134 C24.8216651,20.9686251 26.1053275,22.6104215 28.2535249,23.2193903 C29.1881065,23.4842892 30.1456181,23.515484 31.1057473,23.4597863 C33.7583006,23.3057682 35.5044374,21.8762615 36.0229281,19.4229871 C36.3252065,17.9926568 36.3108621,16.5570759 35.9116285,15.1454831 C35.4013046,13.3414322 34.209467,12.2005037 32.3571611,11.7372138 C31.4680207,11.5148346 30.5621278,11.4924938 29.6551879,11.5454118 C27.0372915,11.6978856 25.3119906,13.1178177 24.7651253,15.5533841 C24.6216818,16.1926212 24.5918414,16.8432861 24.5721572,17.5503694 M30.2953438,27.1941087 C29.0994228,27.2437322 27.8401563,27.0939351 26.615756,26.7151699 C23.9851905,25.901427 22.2680565,24.1689287 21.4972308,21.5857272 C20.6938425,18.8932923 20.6877697,16.1641031 21.48341,13.4690943 C22.327528,10.6103898 24.2706117,8.81889932 27.2189517,8.13292143 C29.3192998,7.64420208 31.4405885,7.64214301 33.5420883,8.12715605 C36.5117878,8.81251622 38.4685876,10.6077131 39.3092503,13.4938031 C40.1154657,16.2614969 40.1171409,19.0598708 39.2180538,21.8018262 C38.1774077,24.9757738 35.7964549,26.5969795 32.5215453,27.0812719 C31.810924,27.1863872 31.0979993,27.2038893 30.2953438,27.1941087" id="Fill-13"></path>
            </g>
        </g>
    </g>
</svg>