<?xml version="1.0" encoding="UTF-8" standalone="no"?>
<svg width="176px" height="60px" viewBox="0 0 176 60" version="1.1" xmlns="http://www.w3.org/2000/svg" xmlns:xlink="http://www.w3.org/1999/xlink">
    <!-- Generator: Sketch 40.3 (33839) - http://www.bohemiancoding.com/sketch -->
    <title>Page 1</title>
    <desc>Created with Sketch.</desc>
    <defs></defs>
    <g id="Page-1" stroke="none" stroke-width="1" fill="none" fill-rule="evenodd">
        <g id="Artboard" transform="translate(-47.000000, -99.000000)" fill="#797C7B">
            <g id="Page-1" transform="translate(47.000000, 99.000000)">
                <g id="Group-3" transform="translate(0.000000, 2.308700)">
                    <path d="M82.1069,55.5277 C37.4109,55.5277 1.1769,43.5157 1.1769,28.6977 C1.1769,13.8807 37.4109,1.8677 82.1069,1.8677 C126.8029,1.8677 163.0369,13.8807 163.0369,28.6977 C163.0369,43.5157 126.8029,55.5277 82.1069,55.5277 L82.1069,55.5277 Z M-0.0001,56.9997 L164.2139,56.9997 L164.2139,0.3957 L-0.0001,0.3957 L-0.0001,56.9997 Z" id="Fill-1"></path>
                </g>
                <path d="M37.4513,42.1512 C37.8353,42.1512 37.9883,41.9982 37.7843,41.7672 C37.6233,41.5872 37.3493,40.3612 37.3493,39.0562 L37.3493,23.8132 C37.3493,22.5082 37.6233,21.2822 37.7843,21.1022 C37.9883,20.8722 37.8353,20.7182 37.4513,20.7182 L23.6663,20.7182 C23.2823,20.7182 23.1293,20.8722 23.3333,21.1022 C23.4943,21.2822 23.7683,22.5082 23.7683,23.8132 L23.7683,39.0562 C23.7683,40.3612 23.4943,41.5872 23.3333,41.7672 C23.1293,41.9982 23.2823,42.1512 23.6663,42.1512 L37.4513,42.1512 Z" id="Fill-4"></path>
                <path d="M58.2069,28.3691 L63.2239,21.5621 C63.4279,21.3571 63.3259,21.0761 63.3259,20.9481 C63.3259,20.8201 63.3259,20.7181 63.4279,20.7181 L77.0349,20.7181 C77.2139,20.7181 77.1369,20.8461 77.0609,20.9481 L71.4599,28.7741 C71.2039,29.1071 71.2549,29.4141 71.5109,29.7471 L79.2089,41.9201 C79.2859,42.0231 79.3619,42.1511 79.1829,42.1511 L62.5589,42.1511 C62.4569,42.1511 62.4569,42.0481 62.4569,41.9201 C62.4569,41.7931 62.7119,40.6931 62.5079,40.4881 L58.2109,33.9131 L58.2109,39.0561 C58.2109,40.3611 58.4849,41.5871 58.6459,41.7671 C58.8499,41.9981 58.6969,42.1511 58.3129,42.1511 L44.9369,42.1511 C44.5529,42.1511 44.3999,41.9981 44.6049,41.7671 C44.7649,41.5871 45.0389,40.3611 45.0389,39.0561 L45.0389,23.8131 C45.0389,22.5081 44.7649,21.2821 44.6049,21.1021 C44.3999,20.8721 44.5529,20.7181 44.9369,20.7181 L58.3129,20.7181 C58.6969,20.7181 58.8499,20.8721 58.6459,21.1021 C58.4849,21.2821 58.2109,22.5081 58.2109,23.8131 L58.2069,28.3691 Z" id="Fill-6"></path>
                <path d="M96.8051,34.1938 C96.8051,34.1078 96.8371,33.8098 97.1891,33.8098 L102.4831,33.8098 C103.0301,33.8098 104.9971,33.7428 105.1661,33.9108 C105.3341,34.0808 105.5451,33.9748 105.5451,33.6538 L105.5451,28.5168 C105.5451,28.1958 105.3341,28.0898 105.1651,28.2598 C104.9971,28.4288 103.0301,28.3618 102.4831,28.3618 L97.1891,28.3618 C96.8371,28.3618 96.8041,28.0628 96.8041,27.9768 L96.8061,26.9368 C96.8061,26.8508 96.8391,26.5518 97.1901,26.5518 L104.7981,26.5518 C106.0891,26.5518 107.3021,26.8238 107.4811,26.9818 C107.7081,27.1848 107.8601,27.0328 107.8601,26.6538 L107.8601,20.7158 L83.8951,20.7158 C83.5151,20.7158 83.3631,20.9068 83.5661,21.1338 C83.7241,21.3128 83.9961,22.5268 83.9961,23.8168 L83.9961,38.8998 C83.9961,40.1908 83.7241,41.4038 83.5661,41.5828 C83.3631,41.8108 83.5141,41.9618 83.8941,41.9618 L107.8591,41.9608 L107.8591,35.6528 C107.8591,35.2728 107.7071,35.1208 107.4801,35.3238 C107.3011,35.4828 106.0881,35.7538 104.7961,35.7538 L97.1891,35.7538 C96.8371,35.7538 96.8041,35.4558 96.8041,35.3698 L96.8051,34.1938 Z" id="Fill-8"></path>
                <path d="M125.5252,33.8454 C125.3462,33.8304 125.3252,33.6454 125.3752,33.5164 L126.6162,30.5784 C126.6662,30.4934 126.6952,30.4064 126.8022,30.4064 C126.9092,30.4064 126.9372,30.4934 126.9872,30.5784 L128.2282,33.5164 C128.2782,33.6454 128.2562,33.8304 128.0782,33.8454 L125.5252,33.8454 Z M145.8322,41.9614 C145.8322,41.9614 137.8722,23.0464 137.7582,22.7324 C137.6432,22.4184 137.5292,21.8764 137.7292,21.3914 C137.9292,20.9064 137.7582,20.7924 137.4152,20.7924 L118.7842,20.7924 C118.4412,20.7924 118.2712,20.9064 118.4712,21.3914 C118.6702,21.8764 118.5562,22.4184 118.4412,22.7324 C118.3282,23.0464 111.2812,41.9614 111.2812,41.9614 L122.7362,41.9614 C123.0072,41.9614 123.0642,41.8334 122.9782,41.6484 C122.8932,41.4634 122.8932,41.0354 123.0212,40.7214 L123.6352,38.6814 C123.8342,38.1104 124.1202,38.0254 124.6052,38.0254 L129.6402,38.0254 C130.1252,38.0254 130.4112,38.1104 130.6102,38.6814 L131.2242,40.7214 C131.3522,41.0354 131.3522,41.4634 131.2672,41.6484 C131.1812,41.8334 131.2382,41.9614 131.5092,41.9614 L145.8322,41.9614 Z" id="Fill-10"></path>
                <path d="M165.5059,5.0412 C165.5059,2.1392 167.8589,0.0002 170.6399,0.0002 C173.3949,0.0002 175.7479,2.1392 175.7479,5.0412 C175.7479,7.9692 173.3949,10.1082 170.6399,10.1082 C167.8589,10.1082 165.5059,7.9692 165.5059,5.0412 L165.5059,5.0412 Z M170.6399,9.2662 C172.9269,9.2662 174.7319,7.4752 174.7319,5.0412 C174.7319,2.6472 172.9269,0.8422 170.6399,0.8422 C168.3279,0.8422 166.5219,2.6472 166.5219,5.0412 C166.5219,7.4752 168.3279,9.2662 170.6399,9.2662 L170.6399,9.2662 Z M169.5709,7.9692 L168.6879,7.9692 L168.6879,2.1392 L170.9079,2.1392 C172.2849,2.1392 172.9669,2.6472 172.9669,3.7972 C172.9669,4.8402 172.3119,5.2952 171.4559,5.4022 L173.1139,7.9692 L172.1249,7.9692 L170.5869,5.4422 L169.5709,5.4422 L169.5709,7.9692 Z M170.6269,4.6932 C171.3759,4.6932 172.0449,4.6402 172.0449,3.7442 C172.0449,3.0222 171.3899,2.8882 170.7739,2.8882 L169.5709,2.8882 L169.5709,4.6932 L170.6269,4.6932 Z" id="Fill-12"></path>
            </g>
        </g>
    </g>
</svg>