<?xml version="1.0" encoding="UTF-8"?>
<svg width="279px" height="75px" viewBox="0 0 279 75" version="1.1" xmlns="http://www.w3.org/2000/svg" xmlns:xlink="http://www.w3.org/1999/xlink">
    <!-- Generator: Sketch 42 (36781) - http://www.bohemiancoding.com/sketch -->
    <title>Slice</title>
    <desc>Created with Sketch.</desc>
    <defs>
        <ellipse id="path-1" cx="19.6595745" cy="19.6086957" rx="19.6595745" ry="19.6086957"></ellipse>
        <mask id="mask-2" maskContentUnits="userSpaceOnUse" maskUnits="objectBoundingBox" x="0" y="0" width="39.3191489" height="39.2173913" fill="white">
            <use xlink:href="#path-1"></use>
        </mask>
    </defs>
    <g id="Page-1" stroke="none" stroke-width="1" fill="none" fill-rule="evenodd">
        <g id="Group-7" transform="translate(0.000000, -1.000000)">
            <rect id="Rectangle-14" fill="#FF574B" x="0" y="0" width="279" height="77.0213349"></rect>
            <g id="Group-8" transform="translate(26.000000, 19.000000)">
                <path d="M0.692228604,16.2070312 L0.692228604,10.2011719 C1.41488847,9.92773301 2.51839306,9.79101562 4.00277548,9.79101562 C7.06919706,9.79101562 9.00277148,11.2070171 9.80355673,14.0390625 L9.80355673,15.0644531 C10.3113718,13.5605394 11.2488624,12.2959036 12.6160567,11.2705078 C13.9832511,10.2451121 15.90706,9.73242187 18.3875411,9.73242187 C19.2859831,9.73242187 20.1209357,9.82519438 20.8924239,10.0107422 C21.6639121,10.19629 22.2156644,10.3867178 22.5476974,10.5820312 L23.0164474,10.8457031 L19.7644942,17.7597656 C19.0027717,17.1542938 17.7820808,16.8515625 16.1023849,16.8515625 C15.2234742,16.8515625 14.4373493,17.0322248 13.7439864,17.3935547 C13.0506236,17.7548846 12.5135196,18.2236299 12.1326583,18.7998047 C11.751797,19.3759794 11.463714,19.9765594 11.2684005,20.6015625 C11.073087,21.2265656 10.9656662,21.8613249 10.9461349,22.5058594 L10.9461349,39 L3.09457235,39 L3.09457235,18.7851562 C3.09457235,17.925777 2.9139101,17.2812521 2.55258017,16.8515625 C2.19125024,16.4218729 1.57113925,16.2070312 0.692228604,16.2070312 Z M24.276213,24.46875 C24.276213,19.9960714 25.4676073,16.4218884 27.8504317,13.7460937 C30.2332561,11.0702991 33.5437699,9.73242187 37.7820724,9.73242187 C42.0008434,9.73242187 45.3064745,11.0702991 47.6990645,13.7460937 C50.0916546,16.4218884 51.2879317,19.9960714 51.2879317,24.46875 C51.2879317,28.9804913 50.0965374,32.5888537 47.713713,35.2939453 C45.3308886,37.999037 42.0203748,39.3515625 37.7820724,39.3515625 C33.5437699,39.3515625 30.2332561,38.0039197 27.8504317,35.3085937 C25.4676073,32.6132678 24.276213,29.0000227 24.276213,24.46875 Z M32.010588,24.5273437 C32.010588,29.7812763 33.9343969,32.4082031 37.7820724,32.4082031 C41.5906851,32.4082031 43.494963,29.7812763 43.494963,24.5273437 C43.494963,19.2929426 41.5906851,16.6757812 37.7820724,16.6757812 C35.8680003,16.6757812 34.427585,17.3496026 33.4607833,18.6972656 C32.4939816,20.0449286 32.010588,21.9882686 32.010588,24.5273437 Z M55.6238692,31.6171875 C55.6238692,29.0390496 56.5076495,27.0859441 58.2752364,25.7578125 C60.0428234,24.4296809 62.860178,23.765625 66.7273849,23.765625 L73.3191817,23.765625 L73.3191817,20.0449219 C73.3191817,18.42382 72.9480917,17.247074 72.2059005,16.5146484 C71.4637093,15.7822229 70.3602047,15.4160156 68.8953536,15.4160156 C67.5086279,15.4160156 66.4393027,15.7529263 65.6873458,16.4267578 C64.9353889,17.1005893 64.5594161,18.0429627 64.5594161,19.2539062 C64.5594161,19.6640646 64.5935954,20.0351546 64.6619552,20.3671875 C64.7303149,20.6992204 64.8035563,20.9335931 64.8816817,21.0703125 L64.9988692,21.2460937 L57.9676192,21.2460937 C57.5379296,20.6015593 57.323088,19.5175857 57.323088,17.9941406 C57.323088,15.4941281 58.3484684,13.492195 60.3992599,11.9882812 C62.4500514,10.4843675 65.3797096,9.73242187 69.1883224,9.73242187 C77.1961749,9.73242187 81.2000411,13.2870738 81.2000411,20.3964844 L81.2000411,30.2402344 C81.2000411,31.119145 81.3807034,31.7783181 81.7420333,32.2177734 C82.1033632,32.6572288 82.7234742,32.8769531 83.6023849,32.8769531 L83.6023849,38.8828125 C82.8015996,39.1171887 81.6395018,39.234375 80.1160567,39.234375 C77.0105725,39.234375 75.0672325,37.8574356 74.2859786,35.1035156 L74.2859786,34.078125 C72.5281573,37.5937676 69.4715473,39.3515625 65.1160567,39.3515625 C62.1668232,39.3515625 59.8475105,38.638679 58.1580489,37.2128906 C56.4685873,35.7871022 55.6238692,33.9218865 55.6238692,31.6171875 Z M63.5340255,30.4160156 C63.5340255,31.3730517 63.8660534,32.1152317 64.5301192,32.6425781 C65.194185,33.1699245 66.082848,33.4335937 67.1961349,33.4335937 C68.1141082,33.4335937 68.9539435,33.2773453 69.7156661,32.9648437 C70.4773887,32.6523422 71.0682031,32.2714866 71.488127,31.8222656 C71.908051,31.3730446 72.2693755,30.9238304 72.5721114,30.4746094 C72.8748473,30.0253884 73.0750406,29.6445328 73.1726974,29.3320312 L73.3191817,28.8632812 L73.3191817,27.9550781 L67.7527755,27.9550781 C66.3855811,27.9550781 65.3406697,28.1699197 64.6180099,28.5996094 C63.89535,29.029299 63.5340255,29.6347617 63.5340255,30.4160156 Z M87.7039474,33.6679687 L92.0398849,29.5664062 C92.1180102,29.6835943 92.2400793,29.8398428 92.4060958,30.0351562 C92.5721122,30.2304697 92.928554,30.5820287 93.4754317,31.0898437 C94.0223095,31.5976588 94.6082411,32.046873 95.2332442,32.4375 C95.8582474,32.828127 96.6639034,33.1796859 97.6502364,33.4921875 C98.6365695,33.8046891 99.6473016,33.9609375 100.682463,33.9609375 C103.553571,33.9609375 104.989104,33.062509 104.989104,31.265625 C104.989104,30.6601532 104.696138,30.1572286 104.110197,29.7568359 C103.524257,29.3564433 102.762546,29.0390637 101.825041,28.8046875 C100.887536,28.5703113 99.8572733,28.3310559 98.7342208,28.0869141 C97.6111683,27.8427722 96.4832499,27.5107443 95.3504317,27.0908203 C94.2176136,26.6708963 93.1824677,26.1582062 92.244963,25.5527344 C91.3074583,24.9472626 90.5457472,24.0830134 89.9598067,22.9599609 C89.3738663,21.8369084 89.0809005,20.523445 89.0809005,19.0195312 C89.0809005,17.7890563 89.3055076,16.6367241 89.7547286,15.5625 C90.2039496,14.4882759 90.897302,13.5117231 91.8348067,12.6328125 C92.7723114,11.7539019 94.0564783,11.0605494 95.6873458,10.5527344 C97.3182133,10.0449193 99.2176084,9.79101562 101.385588,9.79101562 C103.534036,9.79101562 105.389486,10.0205055 106.951994,10.4794922 C108.514502,10.9384789 109.725427,11.5732381 110.584807,12.3837891 C111.444186,13.19434 112.06918,14.0683547 112.459807,15.0058594 C112.850434,15.9433641 113.045744,16.9589789 113.045744,18.0527344 C113.045744,18.5214867 113.006682,18.9853493 112.928557,19.4443359 C112.850431,19.9033226 112.772307,20.2499988 112.694182,20.484375 L112.547697,20.8066406 L105.662932,20.8066406 C105.858245,20.2597629 105.9559,19.5859415 105.9559,18.7851562 C105.9559,17.7890575 105.594576,16.9882843 104.871916,16.3828125 C104.149256,15.7773407 103.00669,15.4746094 101.444182,15.4746094 C100.037925,15.4746094 98.9588339,15.772458 98.206877,16.3681641 C97.4549202,16.9638702 97.0789474,17.7890572 97.0789474,18.84375 C97.0789474,19.5273472 97.3182028,20.1132788 97.7967208,20.6015625 C98.2752388,21.0898462 98.9099981,21.4511707 99.7010177,21.6855469 C100.492037,21.919923 101.390466,22.1591785 102.39633,22.4033203 C103.402195,22.6474622 104.427575,22.8623038 105.472502,23.0478516 C106.517429,23.2333994 107.54281,23.5263652 108.548674,23.9267578 C109.554538,24.3271504 110.452967,24.7958958 111.243986,25.3330078 C112.035006,25.8701199 112.669765,26.6171827 113.148283,27.5742187 C113.626801,28.5312548 113.866057,29.6445249 113.866057,30.9140625 C113.866057,33.7070452 112.782083,35.9042889 110.614104,37.5058594 C108.446124,39.1074299 105.252797,39.9082031 101.034025,39.9082031 C99.6082371,39.9082031 98.2605943,39.7958996 96.9910567,39.5712891 C95.7215191,39.3466786 94.6473111,39.04883 93.7684005,38.6777344 C92.8894898,38.3066388 92.0887166,37.8964866 91.3660567,37.4472656 C90.6433969,36.9980446 90.062348,36.5537131 89.6228927,36.1142578 C89.1834373,35.6748025 88.8123473,35.2695331 88.5096114,34.8984375 C88.2068755,34.5273419 87.9969167,34.2343761 87.8797286,34.0195312 L87.7039474,33.6679687 Z M118.553557,16.265625 L118.553557,10.0839844 L122.918791,10.0839844 L122.918791,1.03125 L130.741057,1.03125 L130.741057,10.0839844 L140.760588,10.0839844 L140.760588,16.265625 L130.741057,16.265625 L130.741057,26.34375 C130.741057,28.3945415 131.11703,29.9081982 131.868986,30.8847656 C132.620943,31.861333 133.797689,32.3496094 135.39926,32.3496094 C136.239108,32.3496094 137.039881,32.2080092 137.801604,31.9248047 C138.563326,31.6416001 139.119961,31.3632826 139.471525,31.0898437 L139.969572,30.6503906 L142.313322,36.421875 C142.235197,36.5000004 142.118011,36.6074212 141.96176,36.7441406 C141.805509,36.8808601 141.468598,37.1152327 140.951018,37.4472656 C140.433437,37.7792985 139.896333,38.0722644 139.33969,38.3261719 C138.783046,38.5800794 138.070163,38.8144521 137.201018,39.0292969 C136.331873,39.2441417 135.457858,39.3515625 134.578947,39.3515625 C130.496896,39.3515625 127.533058,38.28712 125.687346,36.1582031 C123.841633,34.0292862 122.918791,30.8750209 122.918791,26.6953125 L122.918791,16.265625 L118.553557,16.265625 Z M182.692229,39 L174.859407,39 L174.859407,22.7077307 L156.65005,22.7077307 L156.65005,39 L148.817229,39 L148.817229,0.984704977 L156.65005,0.984704977 L156.65005,16.3892545 L174.859407,16.3892545 L174.859407,0.984704977 L182.692229,0.984704977 L182.692229,39 Z" id="roastHQ" fill="#FFFFFF"></path>
                <g id="Group-6" transform="translate(187.000000, 1.000000)">
                    <use id="Oval-3" stroke="#FFFFFF" mask="url(#mask-2)" stroke-width="16" xlink:href="#path-1"></use>
                    <rect id="Rectangle-15" fill="#FFFFFF" transform="translate(30.979255, 30.007777) rotate(-45.000000) translate(-30.979255, -30.007777) " x="27.4047872" y="18.8664726" width="7.14893617" height="22.2826087"></rect>
                </g>
            </g>
        </g>
    </g>
</svg>