<?xml version="1.0" encoding="UTF-8" standalone="no"?>
<svg width="192px" height="41px" viewBox="0 0 192 41" version="1.1" xmlns="http://www.w3.org/2000/svg" xmlns:xlink="http://www.w3.org/1999/xlink">
    <!-- Generator: Sketch 40.3 (33839) - http://www.bohemiancoding.com/sketch -->
    <title>Group 4</title>
    <desc>Created with Sketch.</desc>
    <defs></defs>
    <g id="Page-1" stroke="none" stroke-width="1" fill="none" fill-rule="evenodd">
        <g id="Artboard" transform="translate(-294.000000, -107.000000)" fill="#797C7B">
            <g id="Group-4" transform="translate(294.000000, 107.000000)">
                <path d="M0,0 L19.504576,0 C19.5034045,6.50142857 19.504576,13.0028571 19.5034045,19.5042857 L0,19.5042857 L0,0" id="Fill-1"></path>
                <path d="M21.4960342,0 L41.0006101,0 C41.0006101,6.50142857 41.0017816,13.0028571 40.9994387,19.5042857 C34.4990848,19.5031143 27.9975595,19.5042857 21.4972056,19.5042857 C21.4948627,13.0028571 21.4960342,6.50142857 21.4960342,0" id="Fill-3"></path>
                <path d="M175.88676,7.43154286 C177.68493,6.26128571 180.007907,6.15234286 182.034509,6.70994286 C182.052081,7.91417143 182.036852,9.11957143 182.042709,10.3249714 C181.07978,9.90091429 179.946992,9.62445714 178.933691,10.0403143 C178.130079,10.3589429 177.652129,11.1836286 177.526785,12.0083143 C177.375668,13.0544 177.47407,14.1145429 177.448298,15.1664857 C179.505357,15.1711714 181.562416,15.1676571 183.619475,15.1688286 C183.634704,13.8334 183.603075,12.4968 183.637047,11.1613714 C185.035754,10.7630857 186.419231,10.3167714 187.810909,9.8974 C187.822624,11.6568857 187.794509,13.4175429 187.826138,15.1782 C189.216644,15.1582857 190.608322,15.1735143 192,15.1688286 L192,18.5940857 C190.603636,18.5366857 189.206101,18.5788571 187.809738,18.5741714 C187.815595,20.5433429 187.810909,22.5125143 187.812081,24.4828571 C187.834338,25.5734571 187.753508,26.6699143 187.881196,27.757 C187.958511,28.3977714 188.191629,29.1076571 188.792581,29.4391714 C189.798853,30.0026286 191.075729,29.7566286 192,29.1381143 L192,32.5973429 C190.794582,33.1209714 189.447419,33.2802857 188.1436,33.1877429 C186.906553,33.0963714 185.624991,32.6465429 184.817865,31.6625429 C183.885394,30.5508571 183.645247,29.0455714 183.626504,27.6375143 C183.615961,24.6152286 183.627675,21.5929429 183.621818,18.5694857 C181.563588,18.5683143 179.505357,18.5671429 177.448298,18.5706571 C177.445955,23.3137714 177.447126,28.0568857 177.447126,32.8 L173.228749,32.8 C173.228749,28.0580571 173.222892,23.3172857 173.231092,18.5753429 C172.252935,18.5566 171.273606,18.5800286 170.295448,18.5601143 C170.298963,17.4343714 170.303649,16.3074571 170.293106,15.1805429 C171.266577,15.1582857 172.24122,15.1676571 173.217035,15.1746857 C173.288493,13.6776 173.060061,12.1371714 173.507553,10.6787429 C173.88593,9.36205714 174.727029,8.17422857 175.88676,7.43154286" id="Fill-4"></path>
                <path d="M85.5706162,7.67754286 C86.421086,7.54868571 87.3418426,7.8392 87.9053081,8.50457143 C88.5660037,9.2332 88.687834,10.3929143 88.1981696,11.2445429 C87.6569616,12.2051143 86.4456864,12.6514286 85.3902135,12.4206571 C84.2949115,12.2238571 83.3823551,11.2058857 83.4315558,10.0707714 C83.3999268,8.87591429 84.3991702,7.81108571 85.5706162,7.67754286" id="Fill-5"></path>
                <path d="M53.2422209,8.2 L59.3770836,8.2 C61.2865406,13.0485429 63.2100549,17.8924 65.1218548,22.7409429 C65.6103478,23.9533714 66.0672117,25.1798571 66.5791336,26.3829143 C69.0356559,20.3242857 71.5273215,14.2808857 73.9651007,8.21405714 C75.9319585,8.18242857 77.8999878,8.20702857 79.8680171,8.20234286 C79.8633313,16.4011714 79.8656742,24.6 79.8668456,32.7988286 C78.4470531,32.7953143 77.028432,32.8105429 75.6098109,32.7906286 C75.6250397,26.7402 75.6086394,20.6897714 75.6168395,14.6381714 C75.6191824,14.3664 75.6098109,14.0946286 75.5910677,13.8228571 C75.5078951,13.9493714 75.434094,14.0805714 75.3696644,14.2164571 C72.9318853,20.4098 70.4472483,26.5855714 68.0235265,32.7847714 C67.0137401,32.8210857 66.0027822,32.7871143 64.9918243,32.8035143 C62.4767297,26.6101714 59.9932642,20.4027714 57.4910555,14.2047429 C57.4254545,14.0758857 57.3551678,13.9505429 57.2790238,13.8298857 C57.2274802,16.4808286 57.2708237,19.1341143 57.2567663,21.7850571 C57.2579378,25.4563143 57.2544234,29.1275714 57.2579378,32.7988286 C55.918975,32.8023429 54.5800122,32.7988286 53.2422209,32.8 C53.2410494,24.6 53.239878,16.4 53.2422209,8.2" id="Fill-6"></path>
                <path d="M97.1796461,15.1524286 C99.2156193,14.5725714 101.410909,14.596 103.445711,15.1711714 C103.865088,15.2883143 104.27158,15.4511429 104.648786,15.6725429 C104.625357,17.0161714 104.648786,18.3609714 104.6359,19.7057714 C103.275851,18.6667143 101.550311,18.0083714 99.8212569,18.2262571 C98.4483221,18.3504286 97.1386455,19.0626571 96.3174619,20.172 C95.261989,21.5472571 95.0183282,23.3735143 95.1999024,25.0556857 C95.3357901,26.3723714 95.8805125,27.6878857 96.9043563,28.5606 C97.9680293,29.5059429 99.45928,29.8409714 100.850958,29.7355429 C102.226236,29.5774 103.524198,28.9952 104.6359,28.1822286 C104.647614,29.4555714 104.630043,30.7289143 104.645272,32.0022571 C102.920903,33.0284286 100.853301,33.2931714 98.8794143,33.1959429 C96.8598414,33.0893429 94.8461257,32.3244 93.3841611,30.9046286 C91.7956803,29.3735714 90.933496,27.1900286 90.8315802,25.0029714 C90.728493,22.7292286 91.1912142,20.3570857 92.4997193,18.4582 C93.5961928,16.8381143 95.3111897,15.6912857 97.1796461,15.1524286" id="Fill-7"></path>
                <path d="M125.759414,14.8490286 C127.783673,14.5913143 129.919219,14.7061143 131.798218,15.5612571 C133.428871,16.2969143 134.750262,17.6569429 135.482416,19.2852286 C136.263771,21.0189429 136.453545,22.9658571 136.321171,24.846 C136.191141,26.6816286 135.61479,28.5207714 134.466772,29.9792 C133.291812,31.5278286 131.520586,32.5774286 129.624015,32.9675143 C128.002733,33.3048857 126.30648,33.3037143 124.685198,32.9628286 C122.745284,32.5481429 120.949457,31.4224 119.811983,29.7847429 C118.476534,27.8870286 118.096986,25.4738857 118.266846,23.2001429 C118.381647,21.2708 118.981428,19.3262286 120.213789,17.8127429 C121.563295,16.1176857 123.63324,15.1172857 125.759414,14.8490286 Z M127.017547,18.1969714 C128.285052,18.1138 129.634558,18.4722571 130.545943,19.3941714 C131.520586,20.3524 131.897791,21.7428857 132.00205,23.0689429 C132.077023,24.5203429 132.017279,26.0326571 131.408127,27.3774571 C131.005149,28.2841429 130.267138,29.0502571 129.335839,29.4134 C128.246394,29.8316 127.022233,29.8562 125.897645,29.5645143 C124.753142,29.2634571 123.782013,28.4364286 123.253691,27.3833143 C122.574253,26.0268 122.472337,24.4582571 122.61291,22.9705429 C122.740598,21.6175429 123.211519,20.2258857 124.242392,19.2922571 C124.989774,18.5940857 126.008932,18.2532 127.017547,18.1969714 Z" id="Combined-Shape"></path>
                <path d="M143.258475,14.8841714 C145.208932,14.5409429 147.250763,14.7928 149.096962,15.4921429 C149.099304,16.7854 149.096962,18.0774857 149.098133,19.3695714 C147.808371,18.4828 146.232776,18.0060286 144.667724,18.0610857 C143.879341,18.0915429 143.012471,18.4254 142.652837,19.1751143 C142.367004,19.9166286 142.564979,20.8889143 143.264332,21.3328857 C144.460378,22.1329714 145.8872,22.4726857 147.126589,23.1896 C148.102404,23.7378286 149.048932,24.4547429 149.543282,25.4879429 C150.472239,27.4231429 150.078633,29.9803714 148.445638,31.4235714 C146.886443,32.8808286 144.640781,33.2838 142.575522,33.2064857 C141.108871,33.1116 139.635192,32.8222571 138.286858,32.2224857 C138.292715,30.8624571 138.278658,29.5036 138.293887,28.1447429 C139.427846,28.9682571 140.736351,29.5574857 142.121001,29.7964571 C143.085101,29.9534286 144.133545,29.9604571 145.032044,29.5293714 C145.891885,29.1018 146.046516,27.88 145.535766,27.1326286 C145.057816,26.5562857 144.35612,26.2388286 143.694253,25.9272286 C142.451348,25.3684571 141.145186,24.9010571 140.053398,24.0634857 C139.286101,23.4648857 138.705064,22.6214571 138.477804,21.6702571 C138.140427,20.2680571 138.245857,18.6878 139.061184,17.4624857 C139.992483,16.0345143 141.61025,15.1782 143.258475,14.8841714" id="Fill-9"></path>
                <path d="M159.381086,14.8431714 C161.486174,14.5819429 163.721293,14.7236857 165.642465,15.6936286 C167.317633,16.5312 168.616766,18.0446857 169.265747,19.7948 C169.772984,21.1337429 169.951043,22.5792857 169.921757,24.0049143 C169.925272,26.1345714 169.350092,28.3204571 168.013472,30.0096571 C166.762367,31.6449714 164.848225,32.7074571 162.82748,33.0413143 C160.851251,33.3611143 158.763734,33.2779429 156.885906,32.5387714 C154.983478,31.7902286 153.402026,30.2626857 152.600757,28.3813714 C151.765516,26.4637429 151.677657,24.3059714 151.937718,22.2571429 C152.210665,20.2083143 153.13845,18.2051714 154.719902,16.8428 C156.015522,15.7053429 157.683661,15.0610571 159.381086,14.8431714 Z M160.519732,18.2004857 C161.711092,18.1173143 162.983282,18.3926 163.899353,19.1973714 C164.743966,19.8978857 165.211373,20.9474857 165.425747,22.0041143 C165.667065,23.2434857 165.664722,24.5262 165.460891,25.7714286 C165.299231,26.6992 164.978255,27.6246286 164.370275,28.3591143 C163.757608,29.0971143 162.846223,29.5469429 161.905552,29.6851714 C160.895766,29.8362857 159.832093,29.7636571 158.887907,29.3571714 C157.868749,28.9260857 157.079195,28.044 156.663331,27.0295429 C156.163124,25.8206286 156.063551,24.4816857 156.163124,23.1884286 C156.259182,21.9361714 156.614131,20.6511143 157.441171,19.6776571 C158.195583,18.7686286 159.352971,18.2660857 160.519732,18.2004857 Z" id="Combined-Shape"></path>
                <path d="M114.081269,15.4394286 C115.245686,14.7400857 116.725223,14.6815143 117.996242,15.1090857 C117.990384,16.5159714 117.996242,17.9228571 117.992727,19.3297429 C117.161001,18.7908857 116.123099,18.5601143 115.141428,18.6596857 C113.94421,18.7955714 112.995339,19.7151429 112.503331,20.7694286 C111.969152,21.8858 111.868408,23.1486 111.902379,24.3692286 C111.902379,27.1794857 111.903551,29.9897429 111.902379,32.8 L107.743746,32.8 C107.740232,26.9264571 107.748432,21.0517429 107.740232,15.1782 C109.128395,15.1606286 110.516559,15.1676571 111.904722,15.1746857 C111.898865,16.1832857 111.904722,17.1918857 111.901208,18.2016571 C112.352215,17.1040286 113.023453,16.0380286 114.081269,15.4394286" id="Fill-11"></path>
                <path d="M83.8146187,15.1746857 C85.2133252,15.1688286 86.6132032,15.1547714 88.0119097,15.1817143 C87.9955095,21.0540857 88.0107383,26.9276286 88.004881,32.8 L83.8169616,32.8 C83.8134472,26.9252857 83.818133,21.0505714 83.8146187,15.1746857" id="Fill-12"></path>
                <path d="M0,21.4945429 C6.50152532,21.4968857 13.0030506,21.4933714 19.504576,21.4968857 C19.5057474,27.9983143 19.504576,34.4985714 19.504576,41 L0,41 L0,21.4945429" id="Fill-16"></path>
                <path d="M21.4972056,21.4968857 C27.9975595,21.4945429 34.4990848,21.4957143 41.0006101,21.4957143 L41.0006101,41 L21.4960342,41 C21.4972056,34.4985714 21.4948627,27.9971429 21.4972056,21.4968857" id="Fill-17"></path>
            </g>
        </g>
    </g>
</svg>