<?xml version="1.0" encoding="UTF-8" standalone="no"?>
<svg width="175px" height="68px" viewBox="0 0 175 68" version="1.1" xmlns="http://www.w3.org/2000/svg" xmlns:xlink="http://www.w3.org/1999/xlink">
    <!-- Generator: Sketch 40.3 (33839) - http://www.bohemiancoding.com/sketch -->
    <title>pernod</title>
    <desc>Created with Sketch.</desc>
    <defs>
        <polygon id="path-1" points="9.41090139 0.265743243 0.581875 0.265743243 0.581875 16.8543689 9.41090139 16.8543689 9.41090139 0.265743243"></polygon>
        <polygon id="path-3" points="8.92295213 0.265743243 0.0938588763 0.265743243 0.0938588763 16.8543689 8.92295213 16.8543689 8.92295213 0.265743243"></polygon>
        <polygon id="path-5" points="3.7846153e-20 0.267514865 3.7846153e-20 18.3007581 13.6757846 18.3007581 13.6757846 0.267514865 0 0.267514865"></polygon>
        <polygon id="path-7" points="0.817101064 13.9864865 14.6076596 13.9864865 14.6076596 0.171008108 0.817101064 0.171008108 0.817101064 13.9864865"></polygon>
        <polygon id="path-9" points="0.585412234 18.6486486 16.7421941 18.6486486 16.7421941 0.267794595 0.585412234 0.267794595"></polygon>
        <polygon id="path-11" points="0 68.7345365 174.149202 68.7345365 174.149202 0.932712162 0 0.932712162"></polygon>
    </defs>
    <g id="Page-1" stroke="none" stroke-width="1" fill="none" fill-rule="evenodd">
        <g id="Artboard" transform="translate(-820.000000, -354.000000)">
            <g id="pernod" transform="translate(820.000000, 353.000000)">
                <path d="M72.2450266,21.3366649 C75.9386436,22.7231919 78.3616489,25.0356243 78.3616489,25.0356243 C78.4193617,23.9372189 78.7079255,22.7819351 79.1119149,21.7413405 C79.1119149,21.7413405 77.9576596,19.5445297 74.4958245,17.1752189 C70.7444947,14.6315432 66.4746809,13.9378135 66.4746809,13.9378135 C65.6089894,15.7877595 65.0327926,17.8102054 64.6855851,19.9492054 C64.6855851,19.9492054 67.8020745,19.6023405 72.2450266,21.3366649 L72.2450266,21.3366649 Z" id="Fill-1" fill="#797C7B"></path>
                <path d="M79.6891356,20.7006527 C80.3239761,19.6600581 81.1896676,18.7350851 82.1698537,18.0413554 C82.1698537,18.0413554 80.9011037,13.9955311 78.7657314,10.9315581 C76.6880718,7.92632838 73.2839495,5.44139595 73.2839495,5.44139595 C71.6102793,6.71230135 70.1097473,8.21538243 68.8987101,9.89189595 C68.8987101,9.89189595 72.3605452,11.3940446 74.8999069,13.8799095 C78.4194548,17.2907473 79.6891356,20.7006527 79.6891356,20.7006527" id="Fill-3" fill="#797C7B"></path>
                <g id="Group-7" transform="translate(77.260638, 0.666969)">
                    <mask id="mask-2" fill="white">
                        <use xlink:href="#path-1"></use>
                    </mask>
                    <g id="Clip-6"></g>
                    <path d="M5.77509309,16.8543689 C6.81392287,16.3340716 8.19902926,15.9293959 9.41006649,15.8137743 C9.41006649,15.8137743 9.46871011,11.8835716 8.60301862,7.89555811 C7.6219016,3.21381486 6.46764628,0.265463514 6.46764628,0.265463514 C4.3899867,0.612328378 2.42868351,1.19043649 0.581875,2.05759865 C0.581875,2.05759865 2.71631649,6.21904459 3.81285904,8.99303108 C5.37110372,13.0397878 5.77509309,16.8543689 5.77509309,16.8543689" id="Fill-5" fill="#797C7B" mask="url(#mask-2)"></path>
                </g>
                <path d="M95.1535505,21.7409676 C95.5575399,22.7815622 95.8461037,23.9377784 95.8461037,25.0361838 C95.8461037,25.0361838 98.3268218,22.7237514 101.962726,21.3362919 C106.405678,19.6029 109.522168,19.9488324 109.522168,19.9488324 C109.233604,17.8107649 108.597832,15.7873865 107.733072,13.9374405 C107.733072,13.9374405 103.52004,14.6321027 99.769641,17.1748459 C96.3078059,19.5450892 95.1535505,21.7409676 95.1535505,21.7409676" id="Fill-8" fill="#797C7B"></path>
                <path d="M92.0374335,18.0417284 C93.0762633,18.7354581 93.9419548,19.6604311 94.5767952,20.7010257 C94.5767952,20.7010257 95.8464761,17.2901878 99.3660239,13.8802824 C101.905386,11.3944176 105.367221,9.89133649 105.367221,9.89133649 C104.09754,8.21575541 102.654721,6.71267432 100.981051,5.44083649 C100.981051,5.44083649 97.5769282,7.92670135 95.4424867,10.9319311 C93.3648271,13.9959041 92.0374335,18.0417284 92.0374335,18.0417284" id="Fill-10" fill="#797C7B"></path>
                <g id="Group-14" transform="translate(87.500000, 0.666969)">
                    <mask id="mask-4" fill="white">
                        <use xlink:href="#path-3"></use>
                    </mask>
                    <g id="Clip-13"></g>
                    <path d="M3.67202128,16.8543689 C3.67202128,16.8543689 4.07601064,13.0397878 5.69196809,8.99303108 C6.78851064,6.21904459 8.92295213,2.05759865 8.92295213,2.05759865 C7.07614362,1.19043649 5.11484043,0.612328378 3.03718085,0.265463514 C3.03718085,0.265463514 1.88292553,3.21381486 0.845026596,7.89555811 C0.0370478723,11.8835716 0.0947606383,15.8137743 0.0947606383,15.8137743 C1.30672872,15.9293959 2.63319149,16.3340716 3.67202128,16.8543689" id="Fill-12" fill="#797C7B" mask="url(#mask-4)"></path>
                </g>
                <path d="M84.0742819,33.4746973 C82.5169681,32.8387784 81.1895745,31.856927 80.2084574,30.5850892 C80.2084574,30.5850892 76.2839894,30.1226027 73.2838564,30.6997784 C68.7254787,31.6256838 66.7055319,33.1856432 66.7055319,33.1856432 C67.6289362,35.0934 68.8409043,36.8277243 70.2260106,38.3876838 C70.2260106,38.3876838 72.0718883,36.6542919 75.3038032,35.0934 C79.6890426,33.0122108 84.0742819,33.4746973 84.0742819,33.4746973" id="Fill-15" fill="#797C7B"></path>
                <path d="M71.8991223,28.5038068 C76.4007181,28.2725635 79.4585638,29.4287797 79.4585638,29.4287797 C78.8805053,28.4459959 78.5351596,27.3475905 78.419734,26.1335635 C78.419734,26.1335635 74.9001862,24.1111176 71.6105585,23.7064419 C67.1089628,23.070523 64.4551064,23.9376851 64.4551064,23.9376851 C64.5128191,26.0757527 64.8590957,28.1569419 65.4939362,30.1225095 C65.4939362,30.1225095 68.3786436,28.6772392 71.8991223,28.5038068" id="Fill-17" fill="#797C7B"></path>
                <path d="M101.789495,40.6423054 C101.789495,40.6423054 96.3654255,33.8215622 87.1323138,33.8215622 C77.900133,33.8215622 72.4760638,40.6423054 72.4760638,40.6423054 C74.149734,42.0288324 75.9388298,43.1859811 77.9578457,44.0522108 C77.9578457,44.0522108 80.7280585,38.5033054 87.1323138,38.5033054 C93.4797872,38.5033054 96.3077128,44.0522108 96.3077128,44.0522108 C98.2699468,43.1859811 100.115824,42.0288324 101.789495,40.6423054" id="Fill-19" fill="#797C7B"></path>
                <path d="M94.0572872,30.5849027 C93.0761702,31.8567405 91.6910638,32.8395243 90.1328191,33.4745108 C90.1328191,33.4745108 94.5767021,33.0129568 98.9042287,35.0932135 C102.136144,36.6541054 104.040665,38.3884297 104.040665,38.3884297 C105.42484,36.8275378 106.636809,35.0932135 107.560213,33.1863892 C107.560213,33.1863892 105.540266,31.6254973 100.980957,30.7005243 C97.9808245,30.1224162 94.0572872,30.5849027 94.0572872,30.5849027" id="Fill-21" fill="#797C7B"></path>
                <path d="M109.809987,23.9376851 C109.809987,23.9376851 107.155199,23.070523 102.654535,23.7064419 C99.3658378,24.1111176 95.8462899,26.1344959 95.8462899,26.1344959 C95.7308644,27.3475905 95.3259441,28.4459959 94.8074601,29.4287797 C94.8074601,29.4287797 97.8662367,28.2725635 102.308258,28.5038068 C105.886449,28.6772392 108.772088,30.1225095 108.772088,30.1225095 C109.349215,28.1569419 109.752274,26.0766851 109.809987,23.9376851" id="Fill-23" fill="#797C7B"></path>
                <g id="Group-27" transform="translate(0.000000, 50.085888)">
                    <mask id="mask-6" fill="white">
                        <use xlink:href="#path-5"></use>
                    </mask>
                    <g id="Clip-26"></g>
                    <path d="M10.4448005,8.70696081 C9.52139628,9.45756892 8.54027926,9.51537973 7.38602394,9.51537973 L4.15503989,9.51537973 L4.15503989,1.94309595 L7.38602394,1.94309595 C8.54027926,1.94309595 9.46368351,2.05965 10.3870878,2.81025811 C11.2527793,3.50398784 11.8299069,4.60239324 11.8299069,5.69986622 C11.8299069,6.91482568 11.3682048,7.89667703 10.4448005,8.70696081 M11.5990559,1.42279865 C10.329375,0.498758108 8.88655585,0.267514865 7.38602394,0.267514865 L-0.000279255319,0.267514865 L-0.000279255319,1.94309595 L2.30823138,1.94309595 L2.30823138,16.625177 L-0.000279255319,16.625177 L-0.000279255319,18.3007581 L6.40490691,18.3007581 L6.40490691,16.625177 L4.15503989,16.625177 L4.15503989,11.1909608 L7.55916223,11.1909608 C9.23283245,11.1909608 10.6179388,10.9597176 11.8876197,9.74662297 C13.0409441,8.64915 13.6757846,7.26075811 13.6757846,5.69986622 C13.6757846,4.02521757 12.8678059,2.40558243 11.5990559,1.42279865" id="Fill-25" fill="#797C7B" mask="url(#mask-6)"></path>
                </g>
                <g id="Group-30" transform="translate(13.031915, 54.748050)">
                    <mask id="mask-8" fill="white">
                        <use xlink:href="#path-7"></use>
                    </mask>
                    <g id="Clip-29"></g>
                    <path d="M2.49077128,6.24114324 C2.83611702,3.75527838 5.08691489,1.67408919 7.6262766,1.67408919 C10.3387766,1.67408919 12.7040691,3.58184595 13.0503457,6.29708919 L2.49077128,6.24114324 Z M7.68398936,0.171008108 C3.81816489,0.171008108 0.817101064,3.40748108 0.817101064,7.16425135 C0.817101064,10.9228865 3.93265957,13.9868595 7.74170213,13.9868595 C10.5119149,13.9868595 12.9349202,12.4259676 14.0891755,9.9401027 L12.3000798,9.9401027 C11.3189628,11.6156838 9.64529255,12.5406568 7.68398936,12.5406568 C4.97148936,12.5406568 2.66297872,10.3438459 2.49077128,7.62673784 L14.6076596,7.62673784 L14.6076596,7.10830541 C14.6076596,3.23404865 11.6075266,0.171008108 7.68398936,0.171008108 L7.68398936,0.171008108 Z" id="Fill-28" fill="#797C7B" mask="url(#mask-8)"></path>
                </g>
                <path d="M32.429734,57.8094122 L32.429734,55.1501149 L28.5629787,55.1501149 L28.5629787,56.7110068 L30.8137766,56.7110068 L30.8137766,66.8260338 L28.5629787,66.8260338 L28.5629787,68.3869257 L34.6805319,68.3869257 L34.6805319,66.8260338 L32.429734,66.8260338 L32.429734,61.5083716 C32.429734,58.6765743 33.7571277,56.94225 36.6995479,56.7110068 L36.6995479,55.1501149 C34.7959574,55.2088581 33.0645745,55.9594662 32.429734,57.8094122" id="Fill-31" fill="#797C7B"></path>
                <path d="M52.7990824,60.9309162 C52.7990824,59.3122135 52.3950931,58.0991189 52.0488165,57.4632 C51.183125,55.7279432 48.933258,54.9195243 47.4904388,54.9195243 C45.6436303,54.9195243 43.8554654,55.7857541 43.0474867,57.4632 L43.0474867,55.1507676 L39.1239495,55.1507676 L39.1239495,56.7116595 L41.3738165,56.7116595 L41.3738165,66.8257541 L39.1239495,66.8257541 L39.1239495,68.3866459 L45.239641,68.3866459 L45.239641,66.8257541 L43.0474867,66.8257541 L43.0474867,61.3355919 C43.0474867,60.0637541 43.0474867,58.9653486 43.9131782,57.9238216 C44.6625133,57.0575919 45.8744814,56.538227 47.0287367,56.538227 C48.2984176,56.538227 49.7412367,56.9429027 50.4905718,58.1550649 C51.0686303,59.1975243 51.1254122,60.3518757 51.1254122,61.5080919 L51.1254122,66.8257541 L48.8755452,66.8257541 L48.8755452,68.3866459 L54.9921676,68.3866459 L54.9921676,66.8257541 L52.7990824,66.8257541 L52.7990824,60.9309162 Z" id="Fill-33" fill="#797C7B"></path>
                <path d="M62.3779122,67.1155541 C59.3768484,67.1155541 57.0692686,64.6884324 57.0692686,61.7978919 C57.0692686,58.9073514 59.4345612,56.5380405 62.3779122,56.5380405 C65.3212633,56.5380405 67.6288431,58.9660946 67.6288431,61.8557027 C67.6288431,64.7462432 65.2635505,67.1155541 62.3779122,67.1155541 M62.3779122,54.9193378 C58.5120878,54.9193378 55.3955984,57.9823784 55.3955984,61.8557027 C55.3955984,65.6712162 58.5120878,68.7342568 62.3779122,68.7342568 C66.2437367,68.7342568 69.3025133,65.6134054 69.3025133,61.7391486 C69.3025133,57.9823784 66.1860239,54.9193378 62.3779122,54.9193378" id="Fill-35" fill="#797C7B"></path>
                <g id="Group-39" transform="translate(69.813830, 50.085888)">
                    <mask id="mask-10" fill="white">
                        <use xlink:href="#path-9"></use>
                    </mask>
                    <g id="Clip-38"></g>
                    <path d="M7.62450798,17.0879432 C4.73980053,17.0879432 2.2581516,14.7167676 2.2581516,11.7702811 C2.2581516,8.82192973 4.624375,6.39387568 7.62450798,6.39387568 C10.5101463,6.39387568 12.9331516,8.76318649 12.9331516,11.7115378 C12.9331516,14.6608216 10.6255718,17.0879432 7.62450798,17.0879432 L7.62450798,17.0879432 Z M14.549109,0.267794595 L10.6255718,0.267794595 L10.6255718,1.82868649 L12.8763697,1.82868649 L12.8763697,8.1282 C11.836609,6.04794324 9.64445479,4.83298378 7.39365691,4.83298378 C3.70097074,4.83298378 0.585412234,8.01351081 0.585412234,11.7115378 C0.585412234,12.9833757 1.10389628,14.4286459 1.7387367,15.5270514 C2.95070479,17.3760649 5.37464096,18.6488351 7.45136968,18.6488351 C9.75988032,18.6488351 11.7211835,17.4926189 12.8763697,15.5270514 L12.8763697,18.3010378 L16.7421941,18.3010378 L16.7421941,16.7401459 L14.549109,16.7401459 L14.549109,0.267794595 Z" id="Fill-37" fill="#797C7B" mask="url(#mask-10)"></path>
                </g>
                <path d="M103.866689,61.7977986 C106.983178,61.7977986 109.349402,59.3119338 109.349402,56.2488932 C109.349402,54.4567581 108.656848,52.8380554 107.329455,51.6827716 C105.886636,50.5265554 104.443816,50.3540554 102.713364,50.3540554 L94.9230718,50.3540554 L94.9230718,52.0287041 L97.2306516,52.0287041 L97.2306516,66.7107851 L94.9230718,66.7107851 L94.9230718,68.3863662 L101.211902,68.3863662 L101.211902,66.7107851 L99.0197473,66.7107851 L99.0197473,52.0287041 L102.597939,52.0287041 C103.924402,52.0287041 105.078657,52.0874473 106.174269,53.0692986 C107.098604,53.8795824 107.501662,55.0357986 107.501662,56.3067041 C107.501662,57.8097851 106.752327,59.1385014 105.481715,59.9478527 C104.328391,60.6415824 103.000997,60.6415824 101.674535,60.6415824 L100.981051,60.6415824 L106.521476,68.3863662 L110.041024,68.3863662 L110.041024,66.7107851 L107.675731,66.7107851 L103.866689,61.7977986 Z" id="Fill-40" fill="#797C7B"></path>
                <mask id="mask-12" fill="white">
                    <use xlink:href="#path-11"></use>
                </mask>
                <g id="Clip-43"></g>
                <polygon id="Fill-42" fill="#797C7B" mask="url(#mask-12)" points="113.676463 52.95405 115.29242 52.95405 115.29242 50.3534959 113.676463 50.3534959"></polygon>
                <polygon id="Fill-44" fill="#797C7B" mask="url(#mask-12)" points="115.292327 55.1504878 111.426503 55.1504878 111.426503 56.7113797 113.67637 56.7113797 113.67637 66.8264068 111.367859 66.8264068 111.367859 68.3863662 117.542194 68.3863662 117.542194 66.8264068 115.292327 66.8264068"></polygon>
                <path d="M124.409082,67.1155541 C121.408019,67.1155541 119.042726,64.8609324 119.042726,61.8557027 C119.042726,58.9660946 121.351237,56.5967838 124.235944,56.5967838 C126.082753,56.5967838 127.871848,57.5786351 128.795253,59.1385946 L130.353497,59.1385946 L130.353497,55.1505811 L128.795253,55.1505811 L128.795253,57.000527 C127.583285,55.6718108 126.02504,54.9193378 124.178231,54.9193378 C122.274641,54.9193378 120.600971,55.7277568 119.33129,57.000527 C118.119322,58.2723649 117.369987,60.0057568 117.369987,61.9125811 C117.369987,65.6134054 120.485545,68.7342568 124.235944,68.7342568 C127.121582,68.7342568 129.833152,66.999 130.814269,64.2250135 L128.910678,64.2837568 C128.160412,66.0171486 126.313604,67.0577432 124.409082,67.1155541" id="Fill-45" fill="#797C7B" mask="url(#mask-12)"></path>
                <path d="M138.430864,67.1155541 C135.546157,67.1155541 133.179934,64.6884324 133.179934,61.8557027 C133.179934,58.9073514 135.60387,56.5380405 138.547221,56.5380405 C141.431928,56.5380405 143.798152,58.9073514 143.798152,61.7978919 C143.798152,64.7462432 141.431928,67.1155541 138.430864,67.1155541 L138.430864,67.1155541 Z M143.798152,58.0411216 C142.586184,56.0177432 140.740306,54.9193378 138.374082,54.9193378 C135.950146,54.9193378 133.699348,56.1342973 132.602806,58.0411216 C132.084322,59.0220405 131.507194,59.8910676 131.507194,61.8557027 C131.449481,63.3000405 131.910253,64.5718784 132.546024,65.6712162 C133.757992,67.5780405 135.950146,68.7342568 138.374082,68.7342568 C140.681662,68.7342568 142.642965,67.6367838 143.798152,65.6712162 L143.798152,68.3864595 L147.663976,68.3864595 L147.663976,66.8255676 L145.471822,66.8255676 L145.471822,56.711473 L147.663976,56.711473 L147.663976,55.1505811 L143.798152,55.1505811 L143.798152,58.0411216 Z" id="Fill-46" fill="#797C7B" mask="url(#mask-12)"></path>
                <path d="M153.319176,57.8094122 L153.319176,55.1501149 L149.394707,55.1501149 L149.394707,56.7110068 L151.645505,56.7110068 L151.645505,66.8260338 L149.394707,66.8260338 L149.394707,68.3869257 L155.51133,68.3869257 L155.51133,66.8260338 L153.319176,66.8260338 L153.319176,61.5083716 C153.319176,58.6765743 154.646569,56.94225 157.531277,56.7110068 L157.531277,55.1501149 C155.684468,55.2088581 153.896303,55.9594662 153.319176,57.8094122" id="Fill-47" fill="#797C7B" mask="url(#mask-12)"></path>
                <path d="M165.032912,67.1738311 C162.147274,67.1738311 159.665625,64.8026554 159.665625,61.8561689 C159.665625,58.9078176 162.031848,56.4797635 165.032912,56.4797635 C167.918551,56.4797635 170.341556,58.8490743 170.341556,61.7974257 C170.341556,64.7467095 168.033976,67.1738311 165.032912,67.1738311 L165.032912,67.1738311 Z M171.956582,66.8260338 L171.956582,50.3536824 L168.033976,50.3536824 L168.033976,51.9145743 L170.283843,51.9145743 L170.283843,58.2140878 C169.245013,56.1338311 167.052859,54.9188716 164.802061,54.9188716 C161.109375,54.9188716 157.993816,58.0993986 157.993816,61.7974257 C157.993816,63.0692635 158.512301,64.5145338 159.147141,65.6129392 C160.358178,67.4619527 162.782114,68.734723 164.858843,68.734723 C167.168285,68.734723 169.129588,67.5785068 170.283843,65.6129392 L170.283843,68.3869257 L174.149668,68.3869257 L174.149668,66.8260338 L171.956582,66.8260338 Z" id="Fill-48" fill="#797C7B" mask="url(#mask-12)"></path>
            </g>
        </g>
    </g>
</svg>