<?xml version="1.0" encoding="UTF-8" standalone="no"?>
<svg width="164px" height="58px" viewBox="0 0 164 58" version="1.1" xmlns="http://www.w3.org/2000/svg" xmlns:xlink="http://www.w3.org/1999/xlink">
    <!-- Generator: Sketch 40.3 (33839) - http://www.bohemiancoding.com/sketch -->
    <title>schiphol</title>
    <desc>Created with Sketch.</desc>
    <defs>
        <polygon id="path-1" points="0 57.3657434 163.63349 57.3657434 163.63349 0.639027699 0 0.639027699"></polygon>
    </defs>
    <g id="Page-1" stroke="none" stroke-width="1" fill="none" fill-rule="evenodd">
        <g id="Artboard" transform="translate(-1084.000000, -365.000000)">
            <g id="schiphol" transform="translate(1084.000000, 365.000000)">
                <path d="M50.1394478,45.8551068 L52.1333425,45.8551068 L55.5906219,54.7234505 L53.6352372,54.7234505 L52.8776502,52.691636 L49.3074964,52.691636 L48.535966,54.7234505 L46.7073992,54.7234505 L50.1394478,45.8551068 Z M51.1108324,47.6341119 L51.0856016,47.6341119 L49.8107838,51.2941798 L52.3843223,51.2941798 L51.1108324,47.6341119 Z" id="Fill-1" fill="#797C7B"></path>
                <g id="Group-36" transform="translate(0.000000, 0.028083)">
                    <path d="M56.5524453,48.1522046 L58.1306964,48.1522046 L58.1306964,49.0680554 L58.1559271,49.0680554 C58.6844453,48.2676032 59.4539838,48.0014528 60.085417,48.0014528 C60.9930607,48.0014528 61.6364453,48.3443132 62.0036194,49.1561051 C62.3940324,48.3676597 63.2412551,48.0014528 64.0360243,48.0014528 C65.6395061,48.0014528 66.092332,49.1054098 66.092332,50.5675692 L66.092332,54.6972357 L64.4018704,54.6972357 L64.4018704,50.7963652 C64.4018704,50.1860204 64.4018704,49.322866 63.4298219,49.322866 C62.3063887,49.322866 62.1669555,50.6689599 62.1669555,51.5207744 L62.1669555,54.6972357 L60.47583,54.6972357 L60.47583,50.7963652 C60.47583,50.1860204 60.47583,49.322866 59.5064372,49.322866 C58.383004,49.322866 58.2429069,50.6689599 58.2429069,51.5207744 L58.2429069,54.6972357 L56.5524453,54.6972357 L56.5524453,48.1522046 L56.5524453,48.1522046 Z" id="Fill-2" fill="#797C7B"></path>
                    <path d="M71.7931579,49.5242465 C71.2745992,49.348147 70.8974656,49.2460893 70.2773198,49.2460893 C69.8244939,49.2460893 69.2820324,49.4108491 69.2820324,49.9704986 C69.2820324,51.0117535 72.2227449,50.3520475 72.2227449,52.7147157 C72.2227449,54.2389101 70.8722348,54.849922 69.49583,54.849922 C68.8531093,54.849922 68.1957814,54.7365246 67.5782915,54.5697637 L67.6792146,53.1723075 C68.2077328,53.4384579 68.7654656,53.6052188 69.3444453,53.6052188 C69.7740324,53.6052188 70.4539352,53.4384579 70.4539352,52.8027654 C70.4539352,51.5207077 67.5138866,52.3972029 67.5138866,50.0332007 C67.5138866,48.6217366 68.7402348,47.999385 70.0635223,47.999385 C70.8582915,47.999385 71.3755223,48.1267903 71.9060324,48.2421888 L71.7931579,49.5242465 Z" id="Fill-4" fill="#797C7B"></path>
                    <path d="M74.3431919,49.3981752 L73.0936049,49.3981752 L73.0936049,48.1514709 L74.3431919,48.1514709 L74.3431919,46.8440656 L76.0336534,46.2977569 L76.0336534,48.1514709 L77.5362121,48.1514709 L77.5362121,49.3981752 L76.0336534,49.3981752 L76.0336534,52.4478982 C76.0336534,53.0075478 76.185702,53.5278417 76.8284227,53.5278417 C77.1318559,53.5278417 77.4213457,53.4651396 77.5986251,53.3497411 L77.6490866,54.696502 C77.2951919,54.7998937 76.9047789,54.8512561 76.3994996,54.8512561 C75.0742202,54.8512561 74.3431919,54.0234551 74.3431919,52.7273895 L74.3431919,49.3981752 Z" id="Fill-6" fill="#797C7B"></path>
                    <path d="M84.161281,54.3280938 C83.5431271,54.6702872 82.8360016,54.8503889 81.9283579,54.8503889 C79.7830785,54.8503889 78.5354834,53.6036846 78.5354834,51.4571385 C78.5354834,49.564069 79.5320988,48.0005189 81.5492324,48.0005189 C83.9594348,48.0005189 84.6413296,49.6641255 84.6413296,51.9540859 L80.1482607,51.9540859 C80.2259449,53.0066806 80.9569733,53.6036846 82.0040502,53.6036846 C82.8240502,53.6036846 83.5298478,53.2988457 84.161281,52.9446456 L84.161281,54.3280938 L84.161281,54.3280938 Z M83.0265603,50.7834245 C82.9741069,49.9576246 82.5969733,49.2472233 81.6501555,49.2472233 C80.7040016,49.2472233 80.223953,49.9069293 80.1482607,50.7834245 L83.0265603,50.7834245 Z" id="Fill-8" fill="#797C7B"></path>
                    <path d="M86.136651,48.1522046 L87.6385457,48.1522046 L87.6385457,49.6397117 L87.6644405,49.6397117 C87.7401328,49.0293669 88.4339789,48.0014528 89.4425457,48.0014528 C89.6072097,48.0014528 89.7824972,48.0014528 89.9591126,48.0521481 L89.9591126,49.767117 C89.8077279,49.6790673 89.5062866,49.6277049 89.2035174,49.6277049 C87.8271126,49.6277049 87.8271126,51.3540136 87.8271126,52.2978802 L87.8271126,54.6972357 L86.136651,54.6972357 L86.136651,48.1522046 Z" id="Fill-10" fill="#797C7B"></path>
                    <path d="M95.2735757,53.9605529 L95.2483449,53.9605529 C94.7430656,54.5969124 94.0492194,54.851056 93.2544502,54.851056 C91.2605555,54.851056 90.5281992,53.1974551 90.5281992,51.4064432 C90.5281992,49.6020904 91.2605555,48.0005189 93.2544502,48.0005189 C94.099681,48.0005189 94.692604,48.292684 95.1978834,48.9150356 L95.2231142,48.9150356 L95.2231142,45.166918 L96.9135757,45.166918 L96.9135757,54.6963019 L95.2735757,54.6963019 L95.2735757,53.9605529 Z M93.7205555,53.5283086 C94.8439887,53.5283086 95.2091709,52.3343007 95.2091709,51.4064432 C95.2091709,50.4905924 94.7815757,49.3219322 93.6953247,49.3219322 C92.5977862,49.3219322 92.294353,50.5292809 92.294353,51.4064432 C92.294353,52.3089531 92.6090737,53.5283086 93.7205555,53.5283086 L93.7205555,53.5283086 Z" id="Fill-12" fill="#797C7B"></path>
                    <path d="M98.9876777,48.4959322 C99.6443417,48.1904262 100.524763,48.0009859 101.245832,48.0009859 C103.226447,48.0009859 104.048439,48.8247846 104.048439,50.7585438 L104.048439,51.5983516 C104.048439,52.2560565 104.061718,52.753004 104.07367,53.2346094 C104.086949,53.7315568 104.110188,54.1898157 104.149362,54.6967688 L102.658755,54.6967688 C102.596342,54.3559096 102.596342,53.9236653 102.583062,53.71955 L102.557832,53.71955 C102.166755,54.4439593 101.321524,54.8508559 100.549994,54.8508559 C99.4033215,54.8508559 98.2805522,54.1524613 98.2805522,52.9057569 C98.2805522,51.9272041 98.7466575,51.3555478 99.3900421,51.036701 C100.035419,50.7191882 100.866706,50.6564862 101.574496,50.6564862 L102.50737,50.6564862 C102.50737,49.6018903 102.040601,49.2456891 101.043985,49.2456891 C100.322917,49.2456891 99.6038397,49.5251803 99.0381393,49.9580916 L98.9876777,48.4959322 Z M100.967629,53.6041515 C101.48486,53.6041515 101.889216,53.3773567 102.155467,53.0211555 C102.431014,52.6509463 102.50737,52.1813477 102.50737,51.6723934 L101.776342,51.6723934 C101.018755,51.6723934 99.8953215,51.7997988 99.8953215,52.8036993 C99.8953215,53.3633488 100.363419,53.6041515 100.967629,53.6041515 L100.967629,53.6041515 Z" id="Fill-14" fill="#797C7B"></path>
                    <path d="M105.851642,48.1522046 L107.429893,48.1522046 L107.429893,49.0680554 L107.455124,49.0680554 C107.983642,48.2676032 108.755172,48.0014528 109.384614,48.0014528 C110.292257,48.0014528 110.937634,48.3443132 111.302816,49.1561051 C111.693229,48.3676597 112.540452,48.0014528 113.335221,48.0014528 C114.936711,48.0014528 115.391529,49.1054098 115.391529,50.5675692 L115.391529,54.6972357 L113.701067,54.6972357 L113.701067,50.7963652 C113.701067,50.1860204 113.701067,49.322866 112.729019,49.322866 C111.605585,49.322866 111.468144,50.6689599 111.468144,51.5207744 L111.468144,54.6972357 L109.775027,54.6972357 L109.775027,50.7963652 C109.775027,50.1860204 109.775027,49.322866 108.803642,49.322866 C107.682201,49.322866 107.542104,50.6689599 107.542104,51.5207744 L107.542104,54.6972357 L105.851642,54.6972357 L105.851642,48.1522046 Z" id="Fill-16" fill="#797C7B"></path>
                    <path d="M123.787532,45.8270243 L125.781427,45.8270243 L129.238706,54.695368 L127.283321,54.695368 L126.525734,52.6635534 L122.953589,52.6635534 L122.18405,54.695368 L120.355483,54.695368 L123.787532,45.8270243 Z M124.758917,47.6060294 L124.733686,47.6060294 L123.458868,51.2660972 L126.032406,51.2660972 L124.758917,47.6060294 Z" id="Fill-18" fill="#797C7B"></path>
                    <mask id="mask-2" fill="white">
                        <use xlink:href="#path-1"></use>
                    </mask>
                    <g id="Clip-21"></g>
                    <path d="M130.302316,46.9585302 L131.992777,46.9585302 L131.992777,45.3322781 L130.302316,45.3322781 L130.302316,46.9585302 Z M130.302316,54.6975692 L131.992777,54.6975692 L131.992777,48.1525382 L130.302316,48.1525382 L130.302316,54.6975692 Z" id="Fill-20" fill="#797C7B" mask="url(#mask-2)"></path>
                    <path d="M134.00347,48.1522046 L135.504037,48.1522046 L135.504037,49.6397117 L135.53126,49.6397117 C135.606952,49.0293669 136.300798,48.0014528 137.309365,48.0014528 C137.472037,48.0014528 137.649317,48.0014528 137.825932,48.0521481 L137.825932,49.767117 C137.674547,49.6790673 137.371114,49.6277049 137.070337,49.6277049 C135.693932,49.6277049 135.693932,51.3540136 135.693932,52.2978802 L135.693932,54.6972357 L134.00347,54.6972357 L134.00347,48.1522046 Z" id="Fill-22" fill="#797C7B" mask="url(#mask-2)"></path>
                    <path d="M138.914839,48.1530051 L140.529608,48.1530051 L140.529608,49.0808626 L140.554839,49.0808626 C140.935956,48.4445031 141.577349,48.0002521 142.573964,48.0002521 C144.567859,48.0002521 145.298887,49.6011566 145.298887,51.4061764 C145.298887,53.1985223 144.567859,54.8507891 142.535454,54.8507891 C141.816377,54.8507891 141.223454,54.6706874 140.630531,53.9482793 L140.6053,53.9482793 L140.6053,57.3655432 L138.914839,57.3655432 L138.914839,48.1530051 Z M140.619244,51.4061764 C140.619244,52.3333669 140.984426,53.5273748 142.107859,53.5273748 C143.217349,53.5273748 143.534062,52.3080192 143.534062,51.4061764 C143.534062,50.5290141 143.2293,49.3216653 142.13309,49.3216653 C141.046839,49.3216653 140.619244,50.4916597 140.619244,51.4061764 L140.619244,51.4061764 Z" id="Fill-23" fill="#797C7B" mask="url(#mask-2)"></path>
                    <path d="M149.796006,48.0007191 C151.727488,48.0007191 153.202824,49.3101255 153.202824,51.4686783 C153.202824,53.3517422 151.955229,54.8512561 149.796006,54.8512561 C147.650727,54.8512561 146.403132,53.3517422 146.403132,51.4686783 C146.403132,49.3101255 147.879796,48.0007191 149.796006,48.0007191 M149.796006,53.5278417 C151.096055,53.5278417 151.436006,52.3591815 151.436006,51.2652301 C151.436006,50.2633307 150.907488,49.3221323 149.796006,49.3221323 C148.697804,49.3221323 148.169286,50.2886783 148.169286,51.2652301 C148.169286,52.3458406 148.509237,53.5278417 149.796006,53.5278417" id="Fill-24" fill="#797C7B" mask="url(#mask-2)"></path>
                    <path d="M154.548355,48.1522046 L156.048921,48.1522046 L156.048921,49.6397117 L156.074152,49.6397117 C156.151836,49.0293669 156.845683,48.0014528 157.854249,48.0014528 C158.016921,48.0014528 158.194201,48.0014528 158.370816,48.0521481 L158.370816,49.767117 C158.219432,49.6790673 157.915998,49.6277049 157.615221,49.6277049 C156.238816,49.6277049 156.238816,51.3540136 156.238816,52.2978802 L156.238816,54.6972357 L154.548355,54.6972357 L154.548355,48.1522046 Z" id="Fill-25" fill="#797C7B" mask="url(#mask-2)"></path>
                    <path d="M160.327994,49.3981752 L159.078406,49.3981752 L159.078406,48.1514709 L160.327994,48.1514709 L160.327994,46.8440656 L162.018455,46.2977569 L162.018455,48.1514709 L163.521014,48.1514709 L163.521014,49.3981752 L162.018455,49.3981752 L162.018455,52.4478982 C162.018455,53.0075478 162.170504,53.5278417 162.813224,53.5278417 C163.116657,53.5278417 163.406147,53.4651396 163.583427,53.3497411 L163.633888,54.696502 C163.279994,54.7998937 162.889581,54.8512561 162.386293,54.8512561 C161.06035,54.8512561 160.327994,54.0234551 160.327994,52.7273895 L160.327994,49.3981752 Z" id="Fill-26" fill="#797C7B" mask="url(#mask-2)"></path>
                    <path d="M34.7571773,29.5315512 C31.3251287,29.5315512 29.6851287,26.9594313 29.6207239,23.1372719 C29.6751692,19.2850955 31.585404,16.9737897 34.6423109,16.9524443 C36.6481571,16.9384364 37.6646915,17.4867462 38.9720437,18.0403923 L39.642651,12.1744115 C37.899736,11.583411 35.8162057,11.2705676 33.5195417,11.2705676 C30.0018413,11.2645642 27.1972421,12.5899796 25.3202057,14.7585382 C23.4411773,16.9150899 22.4910397,19.8667575 22.4810802,23.107922 C22.4770964,23.1412742 22.4830721,23.1432753 22.4810802,23.1506128 C22.4790883,26.5525348 23.3960275,29.5709067 25.2889992,31.750805 C27.177987,33.9373737 30.0330478,35.2154291 33.6861976,35.2154291 L33.7114283,35.2154291 C36.2165781,35.2154291 38.6261166,34.8745698 39.9752988,34.310918 L39.6526105,28.2241458 C38.1560275,28.7431057 36.5724648,29.5315512 34.7571773,29.5315512" id="Fill-27" fill="#797C7B" mask="url(#mask-2)"></path>
                    <path d="M13.3594931,16.9292979 C11.7347644,16.2615873 10.1704567,15.7412934 9.06495061,15.1269463 C7.94550121,14.4925879 7.38976032,13.8875794 7.38577652,12.9777321 C7.38577652,12.9777321 7.38577652,12.9717287 7.38776842,12.9503833 C7.39905587,11.5349169 7.91628664,10.7658157 8.64864291,10.249524 C9.3889668,9.73856868 10.4074931,9.53111815 11.3284162,9.52511475 C13.2665377,9.52511475 15.3786186,10.141463 17.7848372,11.0866637 L18.4919628,4.86648276 C16.2630235,4.05669192 13.382732,3.59643188 10.8271206,3.59643188 C8.16461053,3.59843301 5.48682915,4.20744375 3.42720162,5.73964274 C1.36491822,7.25649972 -0.00883076923,9.73856868 0.00112874494,13.1731758 L0.00112874494,13.1751769 C-0.000863157895,13.1985235 0.00112874494,13.206528 0.00112874494,13.2105302 L0.00112874494,13.2125314 C-0.0167983806,18.401463 3.56132308,20.516658 6.77359838,21.8240633 C8.39235142,22.493775 9.90619757,23.1201289 11.0488858,23.6957875 C13.4564324,24.9031362 13.0368049,27.6039955 11.3011935,28.4731532 C10.3822623,28.9327462 9.22031903,29.2856122 8.22702348,29.2836111 C6.07178462,29.2856122 3.90127449,28.6179016 1.0946834,27.0970424 L0.3915417,33.894883 C2.01427854,34.3231249 5.31818138,35.2156292 8.52448097,35.2156292 L8.55568745,35.2156292 C11.5813879,35.2096258 14.4417603,34.5972798 16.5989911,33.0704172 C18.7582138,31.5555613 20.1319628,28.6612595 20.1319628,25.6682352 C20.1319628,20.6834189 16.579736,18.2347021 13.3594931,16.9292979" id="Fill-28" fill="#797C7B" mask="url(#mask-2)"></path>
                    <path d="M150.241263,14.5105314 C148.095984,12.4106783 145.106802,11.2693669 141.774348,11.2693669 C138.458494,11.2693669 135.481263,12.4126795 133.335984,14.5105314 C131.192696,16.6103844 129.907919,19.6601074 129.903935,23.3648672 C129.901943,23.3748728 129.901943,23.3848785 129.901943,23.3942171 C129.901943,26.6473884 130.986202,29.6050594 133.027239,31.7536066 C135.071595,33.9108253 138.072065,35.2182306 141.762397,35.2162295 L141.774348,35.2162295 C145.47796,35.2162295 148.482413,33.9068231 150.532745,31.7536066 C152.585069,29.6070605 153.67132,26.6433861 153.673312,23.3888807 L153.673312,23.3808762 C153.675304,19.6681119 152.390526,16.6123855 150.241263,14.5105314 M145.521117,27.4711871 C144.786105,28.7198926 143.693879,29.5170096 141.762397,29.5363539 C139.858138,29.5170096 138.777198,28.7125551 138.046834,27.4558451 C137.323773,26.1951328 137.047563,24.4434765 137.047563,22.7171679 C137.082753,19.6814528 138.608551,16.9552459 141.772356,16.9532448 C144.990607,16.9632504 146.488518,19.5894008 146.531676,22.719169 C146.527692,24.4668231 146.247498,26.2184794 145.521117,27.4711871" id="Fill-29" fill="#797C7B" mask="url(#mask-2)"></path>
                    <path d="M94.5356421,27.494667 C93.8630429,28.7373691 92.9613749,29.5124737 91.3857798,29.5338191 C89.7703466,29.5144748 88.8142332,28.7373691 88.1031239,27.5140113 C87.4232211,26.3106648 87.1277555,24.6764081 87.1217798,23.2455998 L87.1237717,23.2375953 L87.1237717,23.1768943 C87.1217798,21.7714336 87.465715,20.1471826 88.1887757,18.9451702 C88.9271077,17.7418236 89.9316907,16.9647179 91.4767433,16.9527111 C93.0277717,16.9687202 93.9115126,17.7418236 94.5688405,18.9611792 C95.1903142,20.1645257 95.439302,21.7974483 95.4373101,23.15755 L95.4373101,23.1688898 C95.4373101,23.1768943 95.4373101,23.1889011 95.439302,23.2022419 C95.439302,24.613706 95.1830105,26.2693081 94.5356421,27.494667 L94.5356421,27.494667 Z M86.9544599,32.8143392 C88.7445166,34.5659955 90.6799822,35.0749497 92.7980389,35.0576066 C96.2865247,35.0689463 98.7664437,33.6034517 100.288257,31.3721911 C101.811399,29.1449327 102.423577,26.2046049 102.427561,23.1768943 L102.425569,23.1708909 C102.423577,20.1298395 101.815383,17.2228638 100.305521,15.0329599 C98.8049538,12.8390537 96.3582332,11.4215862 92.9361441,11.4315919 C90.3227676,11.4235873 88.3441441,12.3394381 86.9684032,13.762909 L86.972387,11.7664477 L80.3121279,11.7664477 L80.3121279,43.3422872 L84.9784923,43.3422872 C86.070719,43.3422872 86.9544599,42.4517841 86.9544599,41.3538304 L86.9544599,32.8143392 Z" id="Fill-30" fill="#797C7B" mask="url(#mask-2)"></path>
                    <path d="M73.6557198,34.6926003 C74.7479466,34.6926003 75.6303595,33.8020972 75.6303595,32.7021425 L75.6303595,11.7656473 L68.7563028,11.7656473 L68.7563028,34.6926003 L73.6557198,34.6926003 Z" id="Fill-31" fill="#797C7B" mask="url(#mask-2)"></path>
                    <path d="M70.7321377,3.73957942 C69.6266316,3.96837535 68.7555061,4.63008253 68.7555061,5.73003731 L68.7555061,9.42145619 L75.6315547,9.42145619 L75.6315547,2.72367213 L70.7321377,3.73957942 Z" id="Fill-32" fill="#797C7B" mask="url(#mask-2)"></path>
                    <path d="M158.654862,1.65473488 C157.549355,1.88353081 156.67823,2.54523799 156.67823,3.64519276 L156.67823,34.6927337 L161.577647,34.6927337 C162.669874,34.6927337 163.554279,33.8022306 163.554279,32.7022759 L163.554279,0.638827586 L158.654862,1.65473488 Z" id="Fill-33" fill="#797C7B" mask="url(#mask-2)"></path>
                    <path d="M57.3196599,22.3600328 L57.3196599,34.6923335 L62.2190769,34.6923335 C63.3093117,34.6923335 64.1930526,33.8018304 64.1930526,32.7018756 L64.1930526,20.3949226 C64.1910607,17.858156 63.632,15.5882069 62.3239838,13.9225992 C61.0159676,12.2369802 58.9543482,11.2490888 56.2586397,11.2564262 C53.7999676,11.252424 51.639417,12.1549339 50.0844049,13.65845 L50.0844049,0.837873375 L45.1836599,1.85378067 C44.0774899,2.08324364 43.2090202,2.74428378 43.2090202,3.84223742 L43.2090202,34.6923335 L50.0631579,34.6923335 L50.0631579,34.668987 L50.0804211,34.668987 L50.082413,22.9196823 C50.1295547,21.7183369 50.3758866,20.2601798 50.9515466,19.1208694 C51.6314494,17.826805 52.5742834,16.9583143 54.3424291,16.9423053 C55.9107206,16.983662 56.4472065,17.5766637 56.8860891,18.6292583 C57.2711903,19.6338259 57.3236437,21.0719717 57.3196599,22.3600328" id="Fill-34" fill="#797C7B" mask="url(#mask-2)"></path>
                    <path d="M120.144209,22.3600328 L120.144209,34.6923335 L125.043626,34.6923335 C126.133861,34.6923335 127.017602,33.8018304 127.017602,32.7018756 L127.017602,20.3949226 C127.01561,17.858156 126.456549,15.5882069 125.146541,13.9225992 C123.840517,12.2369802 121.778897,11.2490888 119.083189,11.2564262 C116.624517,11.252424 114.463966,12.1549339 112.908954,13.65845 L112.908954,0.837873375 L108.008209,1.85378067 C106.902039,2.08324364 106.033569,2.74428378 106.033569,3.84223742 L106.033569,34.6923335 L112.887707,34.6923335 L112.887707,34.668987 L112.90497,34.668987 L112.90497,22.9196823 C112.954104,21.7183369 113.198444,20.2601798 113.776096,19.1208694 C114.455998,17.826805 115.398832,16.9583143 117.164986,16.9423053 C118.73527,16.983662 119.271755,17.5766637 119.710638,18.6292583 C120.095739,19.6338259 120.146201,21.0719717 120.144209,22.3600328" id="Fill-35" fill="#797C7B" mask="url(#mask-2)"></path>
                </g>
            </g>
        </g>
    </g>
</svg>