<?xml version="1.0" encoding="UTF-8" standalone="no"?>
<svg width="138px" height="84px" viewBox="0 0 138 84" version="1.1" xmlns="http://www.w3.org/2000/svg" xmlns:xlink="http://www.w3.org/1999/xlink">
    <!-- Generator: Sketch 40.3 (33839) - http://www.bohemiancoding.com/sketch -->
    <title>Fill 2</title>
    <desc>Created with Sketch.</desc>
    <defs></defs>
    <g id="Page-1" stroke="none" stroke-width="1" fill="none" fill-rule="evenodd">
        <g id="Artboard" transform="translate(-837.000000, -87.000000)" fill="#797C7B">
            <path d="M974.730604,168.598888 C974.730604,167.718508 974.071303,167.016565 973.219787,167.016565 C972.464706,167.016565 971.719466,167.718508 971.719466,168.598888 C971.719466,169.477957 972.355151,170.229758 973.185018,170.229758 C974.047686,170.229758 974.730604,169.477957 974.730604,168.598888 L974.730604,168.598888 Z M974.37176,168.598888 C974.37176,169.299519 973.892865,169.835489 973.219787,169.835489 C972.561141,169.835489 972.043541,169.299519 972.043541,168.598888 C972.043541,167.96058 972.597879,167.400337 973.185018,167.400337 C973.879088,167.400337 974.37176,167.911378 974.37176,168.598888 L974.37176,168.598888 Z M973.975524,168.266942 C973.975524,167.998629 973.806926,167.730972 973.49466,167.730972 L972.836014,167.730972 C972.655609,167.730972 972.631992,167.78083 972.631992,167.985508 L972.631992,169.363153 L972.753356,169.594729 C972.824206,169.594729 972.957378,169.580296 972.957378,169.414979 L972.957378,168.802255 L973.185018,168.802255 C973.316222,169.008246 973.436274,169.260814 973.628488,169.555368 C973.67769,169.606537 973.99914,169.555368 973.879088,169.325104 C973.795118,169.172907 973.67769,168.928867 973.591095,168.76355 C973.855472,168.76355 973.975524,168.548375 973.975524,168.266942 L973.975524,168.266942 Z M973.61668,168.241357 C973.61668,168.345008 973.579287,168.40733 973.365424,168.40733 L972.944258,168.40733 L972.944258,168.011749 L973.365424,168.011749 C973.579287,168.011749 973.61668,168.088504 973.61668,168.21446 L973.61668,168.241357 L973.61668,168.241357 Z M971.030644,164.313101 C971.030644,161.514513 969.611013,161.526978 968.634197,161.526978 L961.351048,161.526978 C961.036814,161.526978 960.679282,161.733625 960.679282,162.275498 L960.679282,169.922084 C960.679282,170.233694 961.017133,170.210733 960.897081,170.210733 L963.041615,170.210733 C963.149859,170.210733 963.4431,170.164155 963.4431,169.855825 L963.4431,166.248364 C963.4431,166.248364 964.030239,167.491524 964.333321,168.046518 L967.474352,168.046518 C967.692151,168.046518 968.255017,167.998629 968.255017,169.071224 C968.255017,169.461557 968.146774,170.210733 968.592212,170.210733 L970.728874,170.210733 C970.856798,170.210733 971.020147,170.222541 971.020147,169.74955 C971.020147,168.82784 971.193993,167.042806 969.88195,166.800734 C970.662616,166.237867 971.030644,166.144712 971.030644,164.313101 L971.030644,164.313101 Z M968.340956,164.867439 C968.340956,165.316813 968.340956,165.741259 966.727143,165.741259 L963.390618,165.741259 L963.390618,164.187145 C963.390618,164.014611 963.367002,163.819117 963.910187,163.819117 L967.150933,163.819117 C968.276666,163.819117 968.340956,163.968033 968.340956,164.867439 L968.340956,164.867439 Z M959.62768,166.731852 L959.62768,162.160039 C959.62768,161.906158 959.68541,161.514513 959.098271,161.514513 L957.483146,161.514513 C956.961609,161.514513 956.99769,161.906158 956.99769,162.160039 L956.99769,166.731852 C956.99769,167.054614 956.929464,167.931059 955.824068,167.931059 L953.136348,167.931059 C952.007991,167.931059 951.95551,167.054614 951.95551,166.731852 L951.95551,162.160039 C951.95551,161.906158 951.986343,161.514513 951.46743,161.514513 L949.862145,161.514513 C949.311087,161.514513 949.332736,161.881885 949.332736,162.160039 L949.332736,166.731852 C949.332736,167.700139 949.38653,170.210733 952.485575,170.210733 L956.464345,170.210733 C959.573886,170.210733 959.62768,167.700139 959.62768,166.731852 L959.62768,166.731852 Z M935.586464,118.54052 C946.395728,113.487188 953.453862,105.900956 953.838291,97.4828899 C953.838291,97.4828899 950.988534,95.1448296 941.774714,91.5452403 C933.683346,88.3825612 927.512809,87.6556895 927.512809,87.6556895 L927.539706,106.415277 C927.539706,109.219112 926.478263,112.083958 924.477398,114.617513 C918.361966,113.046997 911.611506,112.161368 904.523195,112.1594 L904.518603,112.1594 C897.423732,112.161368 890.664743,113.046997 884.544064,114.622761 C882.53795,112.087238 881.475852,109.221081 881.475852,106.415277 L881.502749,87.6556895 C881.502749,87.6556895 875.333524,88.3825612 867.240844,91.5452403 C858.028335,95.1448296 855.17661,97.4828899 855.17661,97.4828899 C855.561695,105.904236 862.625733,113.493748 873.443526,118.547081 C862.632949,123.601069 855.572847,131.187301 855.192355,139.604055 C855.192355,139.604055 858.040144,141.941459 867.252652,145.543017 C875.3473,148.705696 881.515869,149.4306 881.515869,149.4306 L881.488972,130.67298 C881.488972,127.869145 882.549759,125.002331 884.552592,122.470745 C890.668023,124.04126 897.417172,124.925577 904.504827,124.928201 L904.510075,124.928201 C911.606914,124.925577 918.365246,124.037324 924.485926,122.465496 C926.492695,124.999707 927.552826,127.865864 927.552826,130.67298 L927.525273,149.4306 C927.525273,149.4306 933.694498,148.705696 941.787178,145.543017 C950.999686,141.941459 953.849443,139.604055 953.849443,139.604055 C953.468951,131.182053 946.402945,123.592541 935.586464,118.54052 L935.586464,118.54052 Z M920.169305,118.538552 C916.344045,121.088507 911.122114,122.758738 904.714097,122.758738 L904.512043,122.762018 L904.504827,122.762018 L904.302772,122.758738 C897.900659,122.758738 892.683977,121.091788 888.860685,118.547081 C892.685945,115.997782 897.905907,114.327551 904.31458,114.327551 L904.516635,114.324271 L904.523195,114.324271 L904.725906,114.327551 C911.127363,114.327551 916.346013,115.994501 920.169305,118.538552 L920.169305,118.538552 Z M855.326839,164.441025 C854.558638,163.277243 853.386328,161.514513 852.563677,161.514513 L849.648318,161.514513 C849.151054,161.514513 849.173359,161.906158 849.173359,162.160039 L849.173359,169.601945 C849.173359,169.843361 849.107756,170.210733 849.648318,170.210733 L851.144047,170.210733 C851.687233,170.210733 851.631471,169.843361 851.631471,169.601945 L851.631471,164.038228 C853.224291,166.121752 854.785622,168.09244 855.879865,169.659019 C856.465036,170.257311 856.747126,170.210733 857.387402,170.210733 L860.378204,170.210733 L860.378204,162.160039 C860.378204,161.906158 860.410349,161.514513 859.891436,161.514513 L858.264503,161.514513 C857.722629,161.514513 857.754774,161.906158 857.754774,162.160039 L857.754774,167.664714 C857.018062,166.662313 855.923819,165.325998 855.326839,164.441025 L855.326839,164.441025 Z M848.174894,166.731852 L848.174894,162.160039 C848.174894,161.906158 848.229344,161.514513 847.644173,161.514513 L846.029048,161.514513 C845.509479,161.514513 845.541624,161.906158 845.541624,162.160039 L845.541624,166.731852 C845.541624,167.054614 845.475366,167.931059 844.371282,167.931059 L841.684218,167.931059 C840.555862,167.931059 840.5001,167.054614 840.5001,166.731852 L840.5001,162.160039 C840.5001,161.906158 840.534213,161.514513 840.014644,161.514513 L838.40936,161.514513 C837.858302,161.514513 837.878638,161.881885 837.878638,162.160039 L837.878638,166.731852 C837.878638,167.700139 837.9344,170.210733 841.032789,170.210733 L845.010247,170.210733 C848.1211,170.210733 848.174894,167.700139 848.174894,166.731852 L848.174894,166.731852 Z M868.584375,161.526978 L861.36486,161.526978 L861.36486,170.210733 L863.912191,170.210733 L863.912191,168.39093 L864.755179,170.210733 L868.648666,170.210733 C872.334194,170.210733 871.986502,168.15017 871.986502,164.773628 C871.986502,161.467936 869.027846,161.526978 868.584375,161.526978 L868.584375,161.526978 Z M868.009701,163.842733 C868.875649,163.842733 869.417523,163.923424 869.417523,165.972179 C869.417523,166.581623 869.516582,167.917938 868.201259,167.917938 L863.888574,167.917938 L863.888574,163.842733 L868.009701,163.842733 L868.009701,163.842733 Z M872.97119,163.369086 L872.97119,168.161322 C872.97119,170.072969 874.095611,170.257311 874.670942,170.257311 L881.585407,170.257311 C882.127937,170.257311 882.08464,169.86501 882.08464,169.163067 C882.08464,168.507701 882.127937,168.102936 881.585407,168.102936 L876.122717,168.102936 C875.994137,168.102936 875.549355,168.206588 875.549355,167.675866 L875.549355,165.395536 L876.297875,166.940466 L881.109792,166.940466 C881.523085,166.940466 881.532926,166.743004 881.42337,166.537013 C881.347272,166.304782 880.676818,164.948785 880.676818,164.948785 L876.026282,164.948785 C875.495561,164.948785 875.593308,164.739515 875.593308,164.209449 C875.593308,163.679384 876.070236,163.760731 876.209968,163.760731 L881.467324,163.760731 C882.041998,163.760731 881.956059,163.380894 881.956059,162.7006 C881.956059,161.975697 882.03019,161.583396 881.467324,161.583396 L874.812643,161.583396 C873.219167,161.583396 872.97119,162.87379 872.97119,163.369086 L872.97119,163.369086 Z M883.08048,162.275498 L883.08048,169.922084 C883.08048,170.233694 883.417675,170.210733 883.298279,170.210733 L885.444781,170.210733 C885.554337,170.210733 885.84561,170.164155 885.84561,169.855825 L885.84561,166.248364 C885.84561,166.248364 886.430781,167.491524 886.733863,168.046518 L889.87883,168.046518 C890.094661,168.046518 890.656215,167.998629 890.656215,169.071224 C890.656215,169.461557 890.547972,170.210733 890.99341,170.210733 L893.129416,170.210733 C893.259308,170.210733 893.420689,170.222541 893.420689,169.74955 C893.420689,168.82784 893.593223,167.042806 892.282492,166.800734 C893.063814,166.237867 893.431186,166.144712 893.431186,164.313101 C893.431186,161.514513 892.011555,161.526978 891.037364,161.526978 L883.75487,161.526978 C883.438012,161.526978 883.08048,161.733625 883.08048,162.275498 L883.08048,162.275498 Z M885.791816,164.187145 C885.791816,164.014611 885.770168,163.819117 886.310729,163.819117 L889.551475,163.819117 C890.679832,163.819117 890.745434,163.968033 890.745434,164.867439 C890.745434,165.316813 890.745434,165.741259 889.128341,165.741259 L885.791816,165.741259 L885.791816,164.187145 L885.791816,164.187145 Z M903.500458,161.583396 C903.500458,161.583396 899.652236,168.943956 899.08937,170.072969 L899.08937,170.257311 L901.85122,170.257311 C902.2304,169.577016 903.336453,167.342608 903.542443,166.985732 C903.705793,167.366224 904.268659,168.737965 904.268659,168.737965 L907.616992,168.737965 L908.40881,170.257311 L911.163444,170.257311 L911.163444,169.968661 C910.609762,168.909187 907.964683,163.832237 907.585503,163.000402 C907.021981,161.837276 906.503068,161.583396 905.970378,161.583396 L903.500458,161.583396 L903.500458,161.583396 Z M903.761554,166.593431 C903.847493,166.398593 904.98569,164.209449 905.103118,163.990338 L905.23301,163.97853 C905.343222,164.209449 906.425657,166.398593 906.512908,166.593431 L906.381704,166.721355 L903.87767,166.721355 L903.761554,166.593431 L903.761554,166.593431 Z M911.91262,162.275498 L911.91262,169.922084 C911.91262,170.233694 912.248503,170.210733 912.129107,170.210733 L914.275609,170.210733 C914.381885,170.210733 914.675126,170.164155 914.675126,169.855825 L914.675126,166.248364 C914.675126,166.248364 915.262265,167.491524 915.565347,168.046518 L918.706378,168.046518 C918.924177,168.046518 919.486387,167.998629 919.486387,169.071224 C919.486387,169.461557 919.380112,170.210733 919.824238,170.210733 L921.9609,170.210733 C922.088824,170.210733 922.251517,170.222541 922.251517,169.74955 C922.251517,168.82784 922.426019,167.042806 921.113976,166.800734 C921.893986,166.237867 922.263982,166.144712 922.263982,164.313101 C922.263982,161.514513 920.842383,161.526978 919.868191,161.526978 L912.583074,161.526978 C912.26884,161.526978 911.91262,161.733625 911.91262,162.275498 L911.91262,162.275498 Z M914.622644,164.187145 C914.622644,164.014611 914.599028,163.819117 915.141557,163.819117 L918.382303,163.819117 C919.511972,163.819117 919.57495,163.968033 919.57495,164.867439 C919.57495,165.316813 919.57495,165.741259 917.959169,165.741259 L914.622644,165.741259 L914.622644,164.187145 L914.622644,164.187145 Z M923.084664,162.160039 L923.084664,169.601945 C923.084664,169.843361 923.042679,170.210733 923.594393,170.210733 L925.069129,170.210733 C925.588698,170.210733 925.558521,169.843361 925.558521,169.601945 L925.558521,164.187145 C926.576666,166.144712 928.082235,169.128298 928.623453,170.210733 L930.889351,170.210733 C931.453529,169.128298 932.949914,166.144712 933.9779,164.187145 L933.9779,169.601945 C933.9779,169.843361 933.935914,170.210733 934.477788,170.210733 L935.961708,170.210733 C936.504238,170.210733 936.427483,169.843361 936.427483,169.601945 L936.427483,162.160039 C936.427483,161.906158 936.481933,161.526978 935.961708,161.526978 L933.424873,161.526978 C933.00174,161.526978 932.471018,161.433823 931.874039,162.722905 C931.420728,163.760731 930.434072,165.902641 929.751154,167.042806 C929.09054,165.902641 928.126189,163.760731 927.67091,162.722905 C927.06409,161.433823 926.520904,161.526978 926.143036,161.526978 L923.594393,161.526978 C923.055143,161.526978 923.084664,161.906158 923.084664,162.160039 L923.084664,162.160039 Z M937.390523,165.695994 C937.390523,167.481028 937.284247,170.233694 939.699062,170.233694 L946.115607,170.233694 C948.563879,170.233694 948.446451,167.481028 948.446451,165.695994 C948.446451,164.071029 948.64129,161.479744 945.607191,161.479744 L940.242248,161.479744 C937.218645,161.502705 937.390523,164.061189 937.390523,165.695994 L937.390523,165.695994 Z M940.221911,165.753068 C940.221911,164.948785 940.035601,163.679384 941.617925,163.679384 L944.315485,163.679384 C945.910273,163.679384 945.736427,164.948785 945.736427,165.753068 C945.736427,166.652473 945.779724,167.998629 944.554932,167.998629 L941.368636,167.998629 C940.143845,167.998629 940.221911,166.652473 940.221911,165.753068 L940.221911,165.753068 Z" id="Fill-2"></path>
        </g>
    </g>
</svg>