<?xml version="1.0" encoding="UTF-8"?>
<svg width="1024px" height="61px" viewBox="0 0 1024 61" version="1.1" xmlns="http://www.w3.org/2000/svg" xmlns:xlink="http://www.w3.org/1999/xlink">
    <!-- Generator: Sketch 41.2 (35397) - http://www.bohemiancoding.com/sketch -->
    <title>Page 1</title>
    <desc>Created with Sketch.</desc>
    <defs>
        <linearGradient x1="100%" y1="50%" x2="25.5739796%" y2="50%" id="linearGradient-1">
            <stop stop-color="#F63323" offset="0%"></stop>
            <stop stop-color="#FF3A57" offset="100%"></stop>
        </linearGradient>
    </defs>
    <g id="Page-1" stroke="none" stroke-width="1" fill="none" fill-rule="evenodd">
        <g id="Index" transform="translate(0.000000, -1227.000000)" fill="url(#linearGradient-1)">
            <g id="Group-4-Copy" transform="translate(517.500000, 1300.500000) scale(-1, 1) translate(-517.500000, -1300.500000) translate(-37.000000, 1227.000000)">
                <path d="M1020.2694,0 C1009.79187,0 1004.5447,13.0725919 999.297536,25.6935721 C993.251727,38.3145524 987.278692,51.387693 975.172147,51.387693 C963.065601,51.387693 957.001133,38.3145524 950.93853,25.6935721 C944.760236,13.0725919 938.787201,0 926.680656,0 C914.575977,0 908.509642,13.0725919 902.448905,25.6935721 C895.695886,38.3145524 888.287905,51.387693 873.262951,51.387693 C858.243594,51.387693 850.716189,38.3145524 843.194382,25.6935721 C835.814391,13.0725919 828.486647,0.0367654642 813.631498,0.0367654642 C798.778214,0.0367654642 791.334779,13.0725919 783.896942,25.6935721 C774.684547,38.3145524 765.539329,51.387693 746.996983,51.387693 C728.454637,51.387693 719.163871,38.3145524 709.880569,25.6935721 C700.416266,13.0725919 691.271047,0 672.726835,0 C654.186355,0 644.89559,13.0725919 635.612288,25.6935721 C624.507779,38.3145524 613.776469,51.387693 592.019021,51.387693 C570.26344,51.387693 559.362325,38.3145524 548.470539,25.6935721 C537.366031,13.0725919 526.63472,0 504.879139,0 C483.121692,0 472.222442,13.0725919 461.32879,25.6935721 C447.867536,38.3145524 434.857852,51.387693 408.482078,51.387693 C382.104439,51.387693 368.891361,38.3145524 355.685748,25.6935721 C342.222627,13.0725919 329.214809,0 302.837169,0 C276.463262,0 263.248318,13.0725919 250.042705,25.6935721 C234.110879,38.3145524 218.716459,51.387693 187.500307,51.387693 C156.287886,51.387693 140.649021,38.3145524 125.021352,25.6935721 C109.089527,13.0725919 93.6951067,0 62.4808204,0 C31.266534,0 15.6276691,13.0725919 0,25.6935721 L0.905005312,60.8128216 L1081.31341,60.8128216 L1081.31341,25.6935721 C1076.07557,38.3145524 1071.16056,51.387693 1061.19803,51.387693 C1051.23364,51.387693 1046.24212,38.3145524 1041.25433,25.6935721 C1035.91386,13.0725919 1030.74694,0 1020.2694,0 Z" id="Page-1"></path>
            </g>
        </g>
    </g>
</svg>